G04 #@! TF.FileFunction,Copper,L2,Bot,Signal*
%FSLAX46Y46*%
G04 Gerber Fmt 4.6, Leading zero omitted, Abs format (unit mm)*
G04 Created by KiCad (PCBNEW 4.0.5) date 03/29/17 16:27:12*
%MOMM*%
%LPD*%
G01*
G04 APERTURE LIST*
%ADD10C,0.100000*%
%ADD11O,1.524000X2.524000*%
%ADD12C,1.998980*%
%ADD13C,1.300000*%
%ADD14R,1.300000X1.300000*%
%ADD15R,1.200000X1.200000*%
%ADD16C,1.200000*%
%ADD17R,1.727200X1.727200*%
%ADD18O,1.727200X1.727200*%
%ADD19R,2.000000X1.900000*%
%ADD20C,1.900000*%
%ADD21O,1.600000X1.600000*%
%ADD22R,3.500120X3.500120*%
%ADD23R,1.750000X1.750000*%
%ADD24C,1.750000*%
%ADD25O,1.000000X1.905000*%
%ADD26R,1.000000X1.905000*%
%ADD27C,1.699260*%
%ADD28R,1.699260X1.699260*%
%ADD29O,1.300000X1.700000*%
%ADD30R,2.032000X2.032000*%
%ADD31O,2.032000X2.032000*%
%ADD32C,0.700000*%
%ADD33C,0.800000*%
%ADD34C,0.250000*%
%ADD35C,0.800000*%
%ADD36C,1.000000*%
%ADD37C,0.500000*%
%ADD38C,0.400000*%
%ADD39C,0.254000*%
G04 APERTURE END LIST*
D10*
D11*
X145300000Y-71620000D03*
X147840000Y-71620000D03*
X150380000Y-71620000D03*
X152920000Y-71620000D03*
X155460000Y-71620000D03*
X155460000Y-56380000D03*
X152920000Y-56380000D03*
X150380000Y-56380000D03*
X147840000Y-56380000D03*
X145300000Y-56380000D03*
D12*
X139065000Y-95250000D03*
X139065000Y-85090000D03*
D13*
X186010000Y-65000000D03*
X181010000Y-65000000D03*
X118435000Y-61595000D03*
D14*
X114935000Y-61595000D03*
D13*
X173670000Y-95060000D03*
D14*
X173670000Y-97560000D03*
D15*
X178645000Y-92760000D03*
D16*
X178645000Y-90260000D03*
D15*
X133985000Y-121920000D03*
D16*
X133985000Y-124420000D03*
D15*
X123825000Y-109855000D03*
D16*
X126325000Y-109855000D03*
D17*
X107950000Y-99695000D03*
D18*
X105410000Y-99695000D03*
X107950000Y-97155000D03*
X105410000Y-97155000D03*
X107950000Y-94615000D03*
X105410000Y-94615000D03*
X107950000Y-92075000D03*
X105410000Y-92075000D03*
X107950000Y-89535000D03*
X105410000Y-89535000D03*
D17*
X107950000Y-122555000D03*
D18*
X105410000Y-122555000D03*
X107950000Y-120015000D03*
X105410000Y-120015000D03*
X107950000Y-117475000D03*
X105410000Y-117475000D03*
X107950000Y-114935000D03*
X105410000Y-114935000D03*
X107950000Y-112395000D03*
X105410000Y-112395000D03*
D19*
X125410000Y-76010000D03*
D20*
X125410000Y-73470000D03*
D11*
X159300000Y-71620000D03*
X161840000Y-71620000D03*
X164380000Y-71620000D03*
X166920000Y-71620000D03*
X169460000Y-71620000D03*
X169460000Y-56380000D03*
X166920000Y-56380000D03*
X164380000Y-56380000D03*
X161840000Y-56380000D03*
X159300000Y-56380000D03*
D21*
X121285000Y-85090000D03*
X121285000Y-87630000D03*
X121285000Y-90170000D03*
X121285000Y-92710000D03*
X121285000Y-95250000D03*
X121285000Y-97790000D03*
X121285000Y-100330000D03*
X121285000Y-102870000D03*
X121285000Y-105410000D03*
X128905000Y-105410000D03*
X128905000Y-102870000D03*
X128905000Y-100330000D03*
X128905000Y-97790000D03*
X128905000Y-95250000D03*
X128905000Y-92710000D03*
X128905000Y-90170000D03*
X128905000Y-87630000D03*
X128905000Y-85090000D03*
X139065000Y-127000000D03*
X141605000Y-127000000D03*
X144145000Y-127000000D03*
X146685000Y-127000000D03*
X149225000Y-127000000D03*
X151765000Y-127000000D03*
X154305000Y-127000000D03*
X156845000Y-127000000D03*
X159385000Y-127000000D03*
X161925000Y-127000000D03*
X161925000Y-119380000D03*
X159385000Y-119380000D03*
X156845000Y-119380000D03*
X154305000Y-119380000D03*
X151765000Y-119380000D03*
X149225000Y-119380000D03*
X146685000Y-119380000D03*
X144145000Y-119380000D03*
X141605000Y-119380000D03*
X139065000Y-119380000D03*
D22*
X112245140Y-70970000D03*
X106245660Y-70970000D03*
X109245400Y-75669000D03*
D12*
X116520000Y-68390000D03*
X126680000Y-68390000D03*
X131445000Y-64135000D03*
X131445000Y-74295000D03*
X134620000Y-64135000D03*
X134620000Y-74295000D03*
X137795000Y-64135000D03*
X137795000Y-74295000D03*
X142240000Y-95250000D03*
X142240000Y-85090000D03*
X145415000Y-95250000D03*
X145415000Y-85090000D03*
X148590000Y-95250000D03*
X148590000Y-85090000D03*
X151765000Y-95250000D03*
X151765000Y-85090000D03*
X154940000Y-95250000D03*
X154940000Y-85090000D03*
X158115000Y-95250000D03*
X158115000Y-85090000D03*
X161290000Y-95250000D03*
X161290000Y-85090000D03*
X196010000Y-64970000D03*
X196010000Y-75130000D03*
D23*
X195920000Y-90190000D03*
D24*
X195920000Y-92690000D03*
D23*
X195920000Y-106280000D03*
D24*
X195920000Y-108780000D03*
X195920000Y-111280000D03*
X195920000Y-113780000D03*
X195920000Y-116280000D03*
X195920000Y-118780000D03*
D25*
X136525000Y-57785000D03*
D26*
X135255000Y-57785000D03*
D25*
X133985000Y-57785000D03*
X132715000Y-57785000D03*
D27*
X185150520Y-125057460D03*
D28*
X174990520Y-125057460D03*
D27*
X185150520Y-118057460D03*
D28*
X174990520Y-118057460D03*
D27*
X185150520Y-111057460D03*
D28*
X174990520Y-111057460D03*
D27*
X185150520Y-104057460D03*
D28*
X174990520Y-104057460D03*
D29*
X184990000Y-122060000D03*
X182698920Y-122060000D03*
X187281080Y-122060000D03*
X184990000Y-115060000D03*
X182698920Y-115060000D03*
X187281080Y-115060000D03*
X184990000Y-108060000D03*
X182698920Y-108060000D03*
X187281080Y-108060000D03*
X184990000Y-101060000D03*
X182698920Y-101060000D03*
X187281080Y-101060000D03*
D15*
X192010000Y-66970000D03*
D16*
X192010000Y-64470000D03*
D30*
X117475000Y-75970000D03*
D31*
X117475000Y-73430000D03*
D30*
X186154100Y-77800700D03*
D31*
X188694100Y-77800700D03*
D12*
X197010000Y-82970000D03*
X177010000Y-82970000D03*
D21*
X139634000Y-108585000D03*
X142174000Y-108585000D03*
X144714000Y-108585000D03*
X147254000Y-108585000D03*
X149794000Y-108585000D03*
X152334000Y-108585000D03*
X154874000Y-108585000D03*
X157414000Y-108585000D03*
X159954000Y-108585000D03*
X159954000Y-100965000D03*
X157414000Y-100965000D03*
X154874000Y-100965000D03*
X152334000Y-100965000D03*
X149794000Y-100965000D03*
X147254000Y-100965000D03*
X144714000Y-100965000D03*
X142174000Y-100965000D03*
X139634000Y-100965000D03*
D32*
X140865020Y-93439010D03*
X167217123Y-94482377D03*
X104250084Y-61408077D03*
X128915200Y-70625200D03*
X126629200Y-93993200D03*
X137665500Y-102997500D03*
X143202700Y-105867700D03*
X162557500Y-98565200D03*
X162557500Y-105766100D03*
X125892600Y-86932000D03*
X129740700Y-78169000D03*
X136522500Y-77978500D03*
X133931700Y-84874600D03*
X137589300Y-83122000D03*
X143799600Y-83007700D03*
X143799600Y-80797900D03*
X146961900Y-80759800D03*
X146961900Y-82588600D03*
X162773400Y-82588600D03*
X133933795Y-87799101D03*
X129349305Y-65254194D03*
X144870160Y-67944693D03*
X171490135Y-127192941D03*
X167942300Y-126200400D03*
X165300700Y-121095000D03*
X156512300Y-114668800D03*
X176667200Y-102197400D03*
X171968200Y-102070400D03*
X172768300Y-109131600D03*
X176870400Y-70434700D03*
X176870400Y-78829400D03*
X173225500Y-78829400D03*
X173225500Y-70536300D03*
X169098000Y-92507300D03*
X169098000Y-87668600D03*
X129347000Y-81826600D03*
X177441900Y-114656100D03*
X177530800Y-109055400D03*
X135608100Y-98362000D03*
X136979700Y-108458500D03*
X133931200Y-105410000D03*
X139970000Y-123440000D03*
X179010000Y-84970000D03*
X180010000Y-124970000D03*
X180010000Y-129970000D03*
X133010000Y-117970000D03*
X124010000Y-117970000D03*
X116010000Y-117970000D03*
X114010000Y-110970000D03*
X120010000Y-81970000D03*
X120010000Y-66970000D03*
X103010000Y-72970000D03*
X103010000Y-84970000D03*
X103010000Y-113970000D03*
X103010000Y-125970000D03*
X109010000Y-125970000D03*
X111010000Y-127970000D03*
X111010000Y-134970000D03*
X120010000Y-134970000D03*
X130010000Y-134970000D03*
X140010000Y-134970000D03*
X150010000Y-134970000D03*
X160010000Y-134970000D03*
X170010000Y-134970000D03*
X180010000Y-134970000D03*
X194010000Y-125970000D03*
X189010000Y-134970000D03*
X189010000Y-129970000D03*
X198010000Y-125970000D03*
X198010000Y-116970000D03*
X198010000Y-106970000D03*
X198010000Y-96970000D03*
X198010000Y-86970000D03*
X198010000Y-76970000D03*
X198010000Y-66970000D03*
X198010000Y-60970000D03*
X189010000Y-58970000D03*
X189010000Y-51970000D03*
X180010000Y-51970000D03*
X170010000Y-51970000D03*
X160010000Y-51970000D03*
X151010000Y-51970000D03*
X140010000Y-51970000D03*
X130010000Y-51970000D03*
D33*
X120010000Y-51970000D03*
X111010000Y-51970000D03*
D32*
X129010000Y-110970000D03*
X137010000Y-110970000D03*
D16*
X123960000Y-79570000D03*
D32*
X123251000Y-119799600D03*
X146657100Y-116174990D03*
D33*
X151765000Y-75123500D03*
D32*
X147840000Y-68240000D03*
D33*
X150429000Y-59754000D03*
X152829300Y-76274200D03*
X145415000Y-76274200D03*
X161287500Y-74574900D03*
X155460000Y-61889400D03*
X152920000Y-60721000D03*
X164380000Y-58865000D03*
D32*
X172624959Y-91304244D03*
X174492868Y-90463874D03*
D34*
X192010000Y-66970000D02*
X187980000Y-66970000D01*
X187980000Y-66970000D02*
X186010000Y-65000000D01*
X196010000Y-75130000D02*
X197850000Y-76970000D01*
X197850000Y-76970000D02*
X198010000Y-76970000D01*
X176870400Y-70434700D02*
X176870400Y-69139600D01*
X176870400Y-69139600D02*
X181010000Y-65000000D01*
X169098000Y-92507300D02*
X167217123Y-94388177D01*
X167217123Y-94388177D02*
X167217123Y-94482377D01*
X103010000Y-62648161D02*
X104250084Y-61408077D01*
X103010000Y-72970000D02*
X103010000Y-62648161D01*
X104190000Y-61400000D02*
X105299076Y-61400000D01*
X105299076Y-61400000D02*
X105319541Y-61420465D01*
X105319541Y-61420465D02*
X107559535Y-61420465D01*
X107559535Y-61420465D02*
X111010000Y-57970000D01*
X111010000Y-57970000D02*
X111010000Y-51970000D01*
X126629200Y-108702272D02*
X126629200Y-93993200D01*
X126325000Y-109855000D02*
X126325000Y-109006472D01*
X126325000Y-109006472D02*
X126629200Y-108702272D01*
X161960926Y-105867700D02*
X143202700Y-105867700D01*
X162557500Y-105766100D02*
X162062526Y-105766100D01*
X162062526Y-105766100D02*
X161960926Y-105867700D01*
X162557500Y-105766100D02*
X162557500Y-98565200D01*
X135837026Y-78169000D02*
X129740700Y-78169000D01*
X136522500Y-77978500D02*
X136027526Y-77978500D01*
X136027526Y-77978500D02*
X135837026Y-78169000D01*
X135334301Y-83471999D02*
X133931700Y-84874600D01*
X137589300Y-83122000D02*
X137239301Y-83471999D01*
X137239301Y-83471999D02*
X135334301Y-83471999D01*
X146428826Y-80797900D02*
X143799600Y-80797900D01*
X146961900Y-80759800D02*
X146466926Y-80759800D01*
X146466926Y-80759800D02*
X146428826Y-80797900D01*
X162773400Y-82588600D02*
X146961900Y-82588600D01*
X134064296Y-87668600D02*
X133933795Y-87799101D01*
X169098000Y-87668600D02*
X134064296Y-87668600D01*
X173020001Y-94410001D02*
X170928234Y-94410001D01*
X170928234Y-94410001D02*
X168741824Y-92223591D01*
D35*
X173020001Y-94410001D02*
X173670000Y-95060000D01*
D34*
X170995161Y-127192941D02*
X171490135Y-127192941D01*
X170232941Y-127192941D02*
X170995161Y-127192941D01*
X170040000Y-127000000D02*
X170232941Y-127192941D01*
X164399000Y-126200400D02*
X163599400Y-127000000D01*
X163599400Y-127000000D02*
X161925000Y-127000000D01*
X167942300Y-126200400D02*
X164399000Y-126200400D01*
X164221200Y-120015500D02*
X165300700Y-121095000D01*
X164221200Y-117767600D02*
X164221200Y-120015500D01*
X161122400Y-114668800D02*
X164221200Y-117767600D01*
X156512300Y-114668800D02*
X161122400Y-114668800D01*
X176444201Y-102420399D02*
X176667200Y-102197400D01*
X171968200Y-102070400D02*
X172318199Y-102420399D01*
X172318199Y-102420399D02*
X176444201Y-102420399D01*
X176959626Y-109131600D02*
X172768300Y-109131600D01*
X177530800Y-109055400D02*
X177035826Y-109055400D01*
X177035826Y-109055400D02*
X176959626Y-109131600D01*
X173225500Y-70536300D02*
X173225500Y-78829400D01*
X177441900Y-114656100D02*
X157045700Y-114656100D01*
X177060400Y-108585000D02*
X177530800Y-109055400D01*
X159954000Y-108585000D02*
X177060400Y-108585000D01*
X128905000Y-105410000D02*
X133931200Y-105410000D01*
X122374700Y-73024700D02*
X122374700Y-65534700D01*
X122374700Y-65534700D02*
X118435000Y-61595000D01*
X125360000Y-76010000D02*
X122374700Y-73024700D01*
X122565200Y-74574900D02*
X122565200Y-66664800D01*
X122565200Y-66664800D02*
X128290000Y-60940000D01*
X124063800Y-76073500D02*
X122565200Y-74574900D01*
X125296500Y-76073500D02*
X124063800Y-76073500D01*
X125410000Y-76010000D02*
X125360000Y-76010000D01*
X125360000Y-76010000D02*
X125296500Y-76073500D01*
X120359999Y-78888301D02*
X123238300Y-76010000D01*
X123238300Y-76010000D02*
X125410000Y-76010000D01*
X120010000Y-81970000D02*
X120359999Y-81620001D01*
X120359999Y-81620001D02*
X120359999Y-78888301D01*
X129010000Y-110970000D02*
X127440000Y-110970000D01*
X127440000Y-110970000D02*
X126325000Y-109855000D01*
X137010000Y-110970000D02*
X136997613Y-110957613D01*
X136997613Y-110957613D02*
X129022387Y-110957613D01*
X129022387Y-110957613D02*
X129010000Y-110970000D01*
D35*
X128270000Y-60960000D02*
X128270000Y-60920000D01*
X132940005Y-60940000D02*
X134000928Y-59879077D01*
X128270000Y-60920000D02*
X128290000Y-60940000D01*
X128290000Y-60940000D02*
X132940005Y-60940000D01*
D34*
X180170000Y-51970000D02*
X180010000Y-51970000D01*
X181010000Y-86970000D02*
X179010000Y-84970000D01*
X198010000Y-86970000D02*
X181010000Y-86970000D01*
X180010000Y-129970000D02*
X180010000Y-124970000D01*
X124010000Y-117970000D02*
X133010000Y-117970000D01*
X116010000Y-117970000D02*
X124010000Y-117970000D01*
X114010000Y-110458500D02*
X114010000Y-110970000D01*
X118110000Y-105410000D02*
X118110000Y-106358500D01*
X118110000Y-106358500D02*
X114010000Y-110458500D01*
X120010000Y-66970000D02*
X120010000Y-81970000D01*
X103010000Y-84970000D02*
X103010000Y-72970000D01*
X193010000Y-125970000D02*
X189010000Y-129970000D01*
X198010000Y-125970000D02*
X193010000Y-125970000D01*
D36*
X181920000Y-91085000D02*
X181920000Y-84790000D01*
X178645000Y-92760000D02*
X180245000Y-92760000D01*
X180245000Y-92760000D02*
X181920000Y-91085000D01*
D35*
X160020000Y-108585000D02*
X161151370Y-108585000D01*
X118110000Y-109230000D02*
X108575000Y-109230000D01*
X108575000Y-109230000D02*
X105410000Y-112395000D01*
X120495990Y-111615990D02*
X118110000Y-109230000D01*
X118110000Y-109230000D02*
X118110000Y-105410000D01*
X125412538Y-111615990D02*
X120495990Y-111615990D01*
X126325000Y-109855000D02*
X126325000Y-110703528D01*
X126325000Y-110703528D02*
X125412538Y-111615990D01*
X154305000Y-119380000D02*
X156845000Y-119380000D01*
X133985000Y-59835000D02*
X133985000Y-57785000D01*
D36*
X117475000Y-71796400D02*
X117475000Y-73660000D01*
X117475000Y-73660000D02*
X114971527Y-73660000D01*
X114971527Y-73660000D02*
X112196977Y-70885450D01*
X114935000Y-61595000D02*
X114935000Y-66805000D01*
X114935000Y-66805000D02*
X116510209Y-68380209D01*
X117475000Y-73430000D02*
X117475000Y-69345000D01*
X117475000Y-69345000D02*
X116520000Y-68390000D01*
X136525000Y-121920000D02*
X139065000Y-124460000D01*
X139065000Y-124460000D02*
X139065000Y-127000000D01*
D35*
X175940000Y-91200000D02*
X176880000Y-90260000D01*
X176880000Y-90260000D02*
X178645000Y-90260000D01*
X175940000Y-96740000D02*
X175940000Y-91200000D01*
X173670000Y-97560000D02*
X175120000Y-97560000D01*
X175120000Y-97560000D02*
X175940000Y-96740000D01*
X123825000Y-109855000D02*
X123825000Y-107950000D01*
X123825000Y-107950000D02*
X121285000Y-105410000D01*
X133985000Y-121920000D02*
X136525000Y-121920000D01*
D34*
X118110000Y-102870000D02*
X121285000Y-102870000D01*
X105410000Y-99695000D02*
X108585000Y-102870000D01*
X108585000Y-102870000D02*
X121285000Y-102870000D01*
X118110000Y-100330000D02*
X121285000Y-100330000D01*
X111515000Y-97155000D02*
X114690000Y-100330000D01*
X114690000Y-100330000D02*
X121285000Y-100330000D01*
X107950000Y-97155000D02*
X111515000Y-97155000D01*
X118110000Y-97790000D02*
X121285000Y-97790000D01*
X105410000Y-97155000D02*
X106707399Y-95857601D01*
X106707399Y-95857601D02*
X111337601Y-95857601D01*
X111337601Y-95857601D02*
X113270000Y-97790000D01*
X113270000Y-97790000D02*
X121285000Y-97790000D01*
X159705989Y-121599011D02*
X161125001Y-120179999D01*
X138294932Y-121599011D02*
X159705989Y-121599011D01*
X161125001Y-120179999D02*
X161925000Y-119380000D01*
X136495521Y-119799600D02*
X138294932Y-121599011D01*
X123251000Y-119799600D02*
X136495521Y-119799600D01*
X118110000Y-95250000D02*
X121285000Y-95250000D01*
X112260000Y-94640000D02*
X112870000Y-95250000D01*
X112870000Y-95250000D02*
X121285000Y-95250000D01*
X109196314Y-94640000D02*
X112260000Y-94640000D01*
X107950000Y-94615000D02*
X109171314Y-94615000D01*
X109171314Y-94615000D02*
X109196314Y-94640000D01*
X118110000Y-92710000D02*
X121285000Y-92710000D01*
X112037601Y-93372399D02*
X112700000Y-92710000D01*
X112700000Y-92710000D02*
X121285000Y-92710000D01*
X105410000Y-94615000D02*
X106652601Y-93372399D01*
X106652601Y-93372399D02*
X112037601Y-93372399D01*
X118110000Y-90170000D02*
X119097828Y-90170000D01*
X119097828Y-90170000D02*
X121285000Y-90170000D01*
X111245000Y-92075000D02*
X113150000Y-90170000D01*
X113150000Y-90170000D02*
X121285000Y-90170000D01*
X107950000Y-92075000D02*
X111245000Y-92075000D01*
X118110000Y-87630000D02*
X121285000Y-87630000D01*
X105410000Y-92075000D02*
X106652601Y-90832399D01*
X113840000Y-87630000D02*
X121285000Y-87630000D01*
X106652601Y-90832399D02*
X110637601Y-90832399D01*
X110637601Y-90832399D02*
X113840000Y-87630000D01*
X118110000Y-85090000D02*
X119097828Y-85090000D01*
X119097828Y-85090000D02*
X121285000Y-85090000D01*
X108908599Y-88671401D02*
X112490000Y-85090000D01*
X112490000Y-85090000D02*
X121285000Y-85090000D01*
X107950000Y-89535000D02*
X108813599Y-88671401D01*
X108813599Y-88671401D02*
X108908599Y-88671401D01*
X150750489Y-117433411D02*
X157414000Y-110769900D01*
X146091589Y-117433411D02*
X150750489Y-117433411D01*
X144145000Y-119380000D02*
X146091589Y-117433411D01*
X157414000Y-109716370D02*
X157414000Y-108585000D01*
X157414000Y-110769900D02*
X157414000Y-109716370D01*
X138503700Y-121095000D02*
X142430000Y-121095000D01*
X142430000Y-121095000D02*
X144145000Y-119380000D01*
X133384740Y-115976040D02*
X138503700Y-121095000D01*
X115373960Y-115976040D02*
X126514900Y-115976040D01*
X126514900Y-115976040D02*
X133384740Y-115976040D01*
X157410000Y-108655000D02*
X157480000Y-108585000D01*
X110092399Y-121257601D02*
X115373960Y-115976040D01*
X105410000Y-122555000D02*
X106707399Y-121257601D01*
X106707399Y-121257601D02*
X110092399Y-121257601D01*
X147360060Y-115472030D02*
X147007099Y-115824991D01*
X114990000Y-115472030D02*
X145954140Y-115472030D01*
X147007099Y-115824991D02*
X146657100Y-116174990D01*
X107950000Y-120015000D02*
X110447030Y-120015000D01*
X110447030Y-120015000D02*
X114990000Y-115472030D01*
X145954140Y-115472030D02*
X146307101Y-115824991D01*
X154874000Y-109716370D02*
X149118340Y-115472030D01*
X149118340Y-115472030D02*
X147360060Y-115472030D01*
X146307101Y-115824991D02*
X146657100Y-116174990D01*
X154874000Y-108585000D02*
X154874000Y-109716370D01*
X154870000Y-108655000D02*
X154940000Y-108585000D01*
X105410000Y-120015000D02*
X106652601Y-118772399D01*
X106652601Y-118772399D02*
X110727601Y-118772399D01*
X114531980Y-114968020D02*
X147932680Y-114968020D01*
X110727601Y-118772399D02*
X114531980Y-114968020D01*
X147932680Y-114968020D02*
X152334000Y-110566700D01*
X152334000Y-110566700D02*
X152334000Y-108585000D01*
X152330000Y-108655000D02*
X152400000Y-108585000D01*
X107950000Y-117475000D02*
X111019010Y-117475000D01*
X111019010Y-117475000D02*
X114030000Y-114464010D01*
X114030000Y-114464010D02*
X145706190Y-114464010D01*
X145706190Y-114464010D02*
X149794000Y-110376200D01*
X149794000Y-110376200D02*
X149794000Y-108585000D01*
X105410000Y-117475000D02*
X106707399Y-116177601D01*
X106707399Y-116177601D02*
X111332399Y-116177601D01*
X147254000Y-110579400D02*
X147254000Y-108585000D01*
X111332399Y-116177601D02*
X113550000Y-113960000D01*
X113550000Y-113960000D02*
X143873400Y-113960000D01*
X143873400Y-113960000D02*
X147254000Y-110579400D01*
X147250000Y-108655000D02*
X147320000Y-108585000D01*
X107950000Y-114935000D02*
X111398020Y-114935000D01*
X141743700Y-113410000D02*
X144714000Y-110439700D01*
X111398020Y-114935000D02*
X112923020Y-113410000D01*
X112923020Y-113410000D02*
X141743700Y-113410000D01*
X144714000Y-110439700D02*
X144714000Y-108585000D01*
X144710000Y-108655000D02*
X144780000Y-108585000D01*
X105410000Y-114935000D02*
X106707399Y-113637601D01*
X106707399Y-113637601D02*
X111742399Y-113637601D01*
X111742399Y-113637601D02*
X112480990Y-112899010D01*
X112480990Y-112899010D02*
X139689290Y-112899010D01*
X139689290Y-112899010D02*
X142174000Y-110414300D01*
X142174000Y-110414300D02*
X142174000Y-108585000D01*
X142170000Y-108655000D02*
X142240000Y-108585000D01*
X137716800Y-112395000D02*
X139634000Y-110477800D01*
X139634000Y-110477800D02*
X139634000Y-108585000D01*
X107950000Y-112395000D02*
X132179100Y-112395000D01*
X132179100Y-112395000D02*
X137716800Y-112395000D01*
X139630000Y-108655000D02*
X139700000Y-108585000D01*
D35*
X190700000Y-104100000D02*
X192880000Y-106280000D01*
X192880000Y-106280000D02*
X195920000Y-106280000D01*
X186606032Y-104100000D02*
X190700000Y-104100000D01*
X185150000Y-104057460D02*
X186563492Y-104057460D01*
X186563492Y-104057460D02*
X186606032Y-104100000D01*
X184990000Y-101060000D02*
X184990000Y-103897460D01*
X184990000Y-103897460D02*
X185150000Y-104057460D01*
X189730000Y-106240000D02*
X192270000Y-108780000D01*
X192270000Y-108780000D02*
X195920000Y-108780000D01*
X186370000Y-106240000D02*
X189730000Y-106240000D01*
X184990000Y-107620000D02*
X186370000Y-106240000D01*
X184990000Y-108060000D02*
X184990000Y-107620000D01*
X185150000Y-111057460D02*
X185150000Y-108220000D01*
X185150000Y-108220000D02*
X184990000Y-108060000D01*
X184990000Y-115060000D02*
X184990000Y-117897460D01*
X184990000Y-117897460D02*
X185150000Y-118057460D01*
X184990000Y-114800000D02*
X188510000Y-111280000D01*
X188510000Y-111280000D02*
X195920000Y-111280000D01*
X184990000Y-115060000D02*
X184990000Y-114800000D01*
X195920000Y-113780000D02*
X192480000Y-113780000D01*
X192480000Y-113780000D02*
X185401558Y-120858442D01*
X185401558Y-120858442D02*
X185331558Y-120858442D01*
X185331558Y-120858442D02*
X184990000Y-121200000D01*
X184990000Y-121200000D02*
X184990000Y-122060000D01*
X185150000Y-125057460D02*
X185150000Y-122220000D01*
X185150000Y-122220000D02*
X184990000Y-122060000D01*
D34*
X126680000Y-68390000D02*
X126680000Y-72200000D01*
X126680000Y-72200000D02*
X125410000Y-73470000D01*
D37*
X146481800Y-75123500D02*
X145300000Y-73941700D01*
X145300000Y-73941700D02*
X145300000Y-71620000D01*
X151765000Y-75123500D02*
X146481800Y-75123500D01*
D38*
X145300000Y-71620000D02*
X145300000Y-69958000D01*
X145300000Y-69958000D02*
X146078000Y-69180000D01*
X146078000Y-69180000D02*
X158800000Y-69180000D01*
X158800000Y-69180000D02*
X159300000Y-69680000D01*
X159300000Y-69680000D02*
X159300000Y-71620000D01*
X161840000Y-71620000D02*
X161840000Y-69958000D01*
X161840000Y-69958000D02*
X160122000Y-68240000D01*
X160122000Y-68240000D02*
X148334974Y-68240000D01*
X148334974Y-68240000D02*
X147840000Y-68240000D01*
D37*
X141793000Y-59754000D02*
X150429000Y-59754000D01*
X141031000Y-60516000D02*
X141793000Y-59754000D01*
X141031000Y-77407000D02*
X141031000Y-60516000D01*
X136967000Y-81471000D02*
X141031000Y-77407000D01*
X135064000Y-81471000D02*
X136967000Y-81471000D01*
X128905000Y-87630000D02*
X135064000Y-81471000D01*
X145415000Y-76274200D02*
X152829300Y-76274200D01*
X152829300Y-76274200D02*
X165671500Y-76274200D01*
X165671500Y-76274200D02*
X166920000Y-75025700D01*
X166920000Y-75025700D02*
X166920000Y-71620000D01*
X152920000Y-71620000D02*
X152920000Y-72120000D01*
X156131300Y-74549500D02*
X155460000Y-73878200D01*
X155460000Y-73878200D02*
X155460000Y-71620000D01*
X160696415Y-74549500D02*
X156131300Y-74549500D01*
X161287500Y-74574900D02*
X160721815Y-74574900D01*
X160721815Y-74574900D02*
X160696415Y-74549500D01*
D38*
X169460000Y-71120000D02*
X169460000Y-71620000D01*
X155460000Y-71620000D02*
X155460000Y-72120000D01*
D37*
X143012200Y-63068700D02*
X144191500Y-61889400D01*
X144191500Y-61889400D02*
X155460000Y-61889400D01*
X143012200Y-63208400D02*
X143012200Y-63068700D01*
X155460000Y-61889400D02*
X154894315Y-61889400D01*
X154894315Y-61889400D02*
X154807215Y-61976500D01*
X154807215Y-61976500D02*
X144244100Y-61976500D01*
X168361400Y-61976500D02*
X169460000Y-60877900D01*
X169460000Y-60877900D02*
X169460000Y-56380000D01*
X144244100Y-61976500D02*
X168361400Y-61976500D01*
X143012200Y-63208400D02*
X144244100Y-61976500D01*
X143012200Y-78486500D02*
X143012200Y-63208400D01*
X142224800Y-79273900D02*
X143012200Y-78486500D01*
X142224800Y-83661308D02*
X142224800Y-79273900D01*
X142240000Y-85090000D02*
X142240000Y-83676508D01*
X142240000Y-83676508D02*
X142224800Y-83661308D01*
X165796000Y-60782700D02*
X166920000Y-59658700D01*
X166920000Y-59658700D02*
X166920000Y-56380000D01*
X143126500Y-60782700D02*
X162735300Y-60782700D01*
X162735300Y-60782700D02*
X165796000Y-60782700D01*
X143126500Y-60782700D02*
X143188200Y-60721000D01*
X143188200Y-60721000D02*
X152920000Y-60721000D01*
X142008900Y-61900300D02*
X143126500Y-60782700D01*
X142008900Y-77788000D02*
X142008900Y-61900300D01*
X139075200Y-80721700D02*
X142008900Y-77788000D01*
X139075200Y-83666308D02*
X139075200Y-80721700D01*
X139065000Y-85090000D02*
X139065000Y-83676508D01*
X139065000Y-83676508D02*
X139075200Y-83666308D01*
X159300000Y-56380000D02*
X159300000Y-55880000D01*
X159300000Y-55880000D02*
X157570000Y-54150000D01*
X157570000Y-54150000D02*
X147030000Y-54150000D01*
X147030000Y-54150000D02*
X145300000Y-55880000D01*
X163980001Y-58465001D02*
X164380000Y-58865000D01*
X141049999Y-58465001D02*
X163980001Y-58465001D01*
X139888000Y-59627000D02*
X141049999Y-58465001D01*
X139888000Y-76899000D02*
X139888000Y-59627000D01*
X136212990Y-80574010D02*
X139888000Y-76899000D01*
X128905000Y-85090000D02*
X133420990Y-80574010D01*
X133420990Y-80574010D02*
X136212990Y-80574010D01*
D38*
X169590000Y-124830000D02*
X172360000Y-122060000D01*
X172360000Y-122060000D02*
X182698920Y-122060000D01*
X161555000Y-124830000D02*
X169590000Y-124830000D01*
X159385000Y-127000000D02*
X161555000Y-124830000D01*
X151765000Y-127000000D02*
X154671488Y-124093512D01*
X154671488Y-124093512D02*
X168686488Y-124093512D01*
X168686488Y-124093512D02*
X171440000Y-121340000D01*
X171440000Y-121340000D02*
X178660000Y-121340000D01*
X178660000Y-121340000D02*
X182698920Y-117301080D01*
X182698920Y-117301080D02*
X182698920Y-115060000D01*
X149225000Y-127000000D02*
X152963532Y-123261468D01*
X152963532Y-123261468D02*
X168128532Y-123261468D01*
X168128532Y-123261468D02*
X170740000Y-120650000D01*
X170740000Y-120650000D02*
X177710000Y-120650000D01*
X180240000Y-110518920D02*
X182698920Y-108060000D01*
X177710000Y-120650000D02*
X180240000Y-118120000D01*
X180240000Y-118120000D02*
X180240000Y-110518920D01*
X141605000Y-127000000D02*
X146126632Y-122478368D01*
X146126632Y-122478368D02*
X167521632Y-122478368D01*
X179610000Y-110224011D02*
X179610000Y-104148920D01*
X167521632Y-122478368D02*
X170004010Y-119995990D01*
X177214010Y-119995990D02*
X179585990Y-117624010D01*
X170004010Y-119995990D02*
X177214010Y-119995990D01*
X179585990Y-117624010D02*
X179585990Y-110248021D01*
X179610000Y-104148920D02*
X182698920Y-101060000D01*
X179585990Y-110248021D02*
X179610000Y-110224011D01*
D34*
X139065000Y-97793000D02*
X139634000Y-98362000D01*
X139634000Y-98362000D02*
X139634000Y-100965000D01*
X139065000Y-95250000D02*
X139065000Y-97793000D01*
X142240000Y-98296000D02*
X142174000Y-98362000D01*
X142174000Y-98362000D02*
X142174000Y-100965000D01*
X142240000Y-95250000D02*
X142240000Y-98296000D01*
X145415000Y-97915000D02*
X144714000Y-98616000D01*
X144714000Y-98616000D02*
X144714000Y-100965000D01*
X145415000Y-95250000D02*
X145415000Y-97915000D01*
X147254000Y-100965000D02*
X147254000Y-98870000D01*
X147254000Y-98870000D02*
X148590000Y-97534000D01*
X148590000Y-97534000D02*
X148590000Y-95250000D01*
X151765000Y-95250000D02*
X151765000Y-96899000D01*
X151765000Y-96899000D02*
X149794000Y-98870000D01*
X149794000Y-98870000D02*
X149794000Y-100965000D01*
X152334000Y-100965000D02*
X152334000Y-99632000D01*
X152334000Y-99632000D02*
X154940000Y-97026000D01*
X154940000Y-97026000D02*
X154940000Y-95250000D01*
X158115000Y-95250000D02*
X158115000Y-97724000D01*
X158115000Y-97724000D02*
X154874000Y-100965000D01*
X158213999Y-100102001D02*
X161290000Y-97026000D01*
X161290000Y-97026000D02*
X161290000Y-95250000D01*
X157414000Y-100965000D02*
X158213999Y-100165001D01*
X158213999Y-100165001D02*
X158213999Y-100102001D01*
X193418500Y-64427600D02*
X193960900Y-64970000D01*
X193960900Y-64970000D02*
X196010000Y-64970000D01*
X192900928Y-64427600D02*
X193418500Y-64427600D01*
X192010000Y-64470000D02*
X192858528Y-64470000D01*
X192858528Y-64470000D02*
X192900928Y-64427600D01*
X128905000Y-92710000D02*
X162088100Y-92710000D01*
X174851100Y-84938100D02*
X174851100Y-77076800D01*
X162088100Y-92710000D02*
X165440400Y-89357700D01*
X196010000Y-66383492D02*
X196010000Y-64970000D01*
X165440400Y-89357700D02*
X170431500Y-89357700D01*
X170431500Y-89357700D02*
X174851100Y-84938100D01*
X174851100Y-77076800D02*
X180007300Y-71920600D01*
X180007300Y-71920600D02*
X192923200Y-71920600D01*
X192923200Y-71920600D02*
X196022000Y-68821800D01*
X196022000Y-68821800D02*
X196022000Y-66395492D01*
X196022000Y-66395492D02*
X196010000Y-66383492D01*
X172129985Y-91304244D02*
X172624959Y-91304244D01*
X165897600Y-93129600D02*
X167722956Y-91304244D01*
X165897600Y-105081877D02*
X165897600Y-93129600D01*
X159322990Y-107184510D02*
X163794967Y-107184510D01*
X163794967Y-107184510D02*
X165897600Y-105081877D01*
X158696700Y-110211100D02*
X158696700Y-107810800D01*
X167722956Y-91304244D02*
X172129985Y-91304244D01*
X149225000Y-119380000D02*
X150404001Y-118200999D01*
X150404001Y-118200999D02*
X150706801Y-118200999D01*
X150706801Y-118200999D02*
X158696700Y-110211100D01*
X158696700Y-107810800D02*
X159322990Y-107184510D01*
X173997894Y-90463874D02*
X174492868Y-90463874D01*
X165313400Y-92774000D02*
X167623526Y-90463874D01*
X163459200Y-106680500D02*
X163573500Y-106680500D01*
X163573500Y-106680500D02*
X165313400Y-104940600D01*
X165313400Y-104940600D02*
X165313400Y-92774000D01*
X167623526Y-90463874D02*
X173997894Y-90463874D01*
X163459200Y-106680500D02*
X163586200Y-106680500D01*
X156804400Y-106680500D02*
X163459200Y-106680500D01*
X156182100Y-107302800D02*
X156804400Y-106680500D01*
X156182100Y-110465100D02*
X156182100Y-107302800D01*
X156103801Y-110543399D02*
X156182100Y-110465100D01*
X149667000Y-116929400D02*
X156053001Y-110543399D01*
X156053001Y-110543399D02*
X156103801Y-110543399D01*
X144091700Y-116929400D02*
X149667000Y-116929400D01*
X142441099Y-118580001D02*
X144091700Y-116929400D01*
X141605000Y-119380000D02*
X142404999Y-118580001D01*
X142404999Y-118580001D02*
X142441099Y-118580001D01*
D39*
G36*
X189883000Y-56970000D02*
X189893006Y-57019410D01*
X189933800Y-57071600D01*
X193933800Y-60071600D01*
X193979332Y-60093241D01*
X194010000Y-60097000D01*
X198883000Y-60097000D01*
X198883000Y-126843000D01*
X193010000Y-126843000D01*
X192960590Y-126853006D01*
X192920197Y-126880197D01*
X189920197Y-129880197D01*
X189892334Y-129922211D01*
X189883000Y-129970000D01*
X189883000Y-135843000D01*
X110137000Y-135843000D01*
X110137000Y-129970000D01*
X110126994Y-129920590D01*
X110099803Y-129880197D01*
X107099803Y-126880197D01*
X107057789Y-126852334D01*
X107010000Y-126843000D01*
X101137000Y-126843000D01*
X101137000Y-125282735D01*
X133301870Y-125282735D01*
X133351383Y-125508164D01*
X133816036Y-125667807D01*
X134306413Y-125637482D01*
X134618617Y-125508164D01*
X134668130Y-125282735D01*
X133985000Y-124599605D01*
X133301870Y-125282735D01*
X101137000Y-125282735D01*
X101137000Y-124251036D01*
X132737193Y-124251036D01*
X132767518Y-124741413D01*
X132896836Y-125053617D01*
X133122265Y-125103130D01*
X133805395Y-124420000D01*
X134164605Y-124420000D01*
X134847735Y-125103130D01*
X135073164Y-125053617D01*
X135232807Y-124588964D01*
X135202482Y-124098587D01*
X135073164Y-123786383D01*
X134847735Y-123736870D01*
X134164605Y-124420000D01*
X133805395Y-124420000D01*
X133122265Y-123736870D01*
X132896836Y-123786383D01*
X132737193Y-124251036D01*
X101137000Y-124251036D01*
X101137000Y-114905641D01*
X103911400Y-114905641D01*
X103911400Y-114964359D01*
X104025474Y-115537848D01*
X104350330Y-116024029D01*
X104621172Y-116205000D01*
X104350330Y-116385971D01*
X104025474Y-116872152D01*
X103911400Y-117445641D01*
X103911400Y-117504359D01*
X104025474Y-118077848D01*
X104350330Y-118564029D01*
X104621172Y-118745000D01*
X104350330Y-118925971D01*
X104025474Y-119412152D01*
X103911400Y-119985641D01*
X103911400Y-120044359D01*
X104025474Y-120617848D01*
X104350330Y-121104029D01*
X104621172Y-121285000D01*
X104350330Y-121465971D01*
X104025474Y-121952152D01*
X103911400Y-122525641D01*
X103911400Y-122584359D01*
X104025474Y-123157848D01*
X104350330Y-123644029D01*
X104836511Y-123968885D01*
X105410000Y-124082959D01*
X105983489Y-123968885D01*
X106469670Y-123644029D01*
X106478805Y-123630358D01*
X106483238Y-123653917D01*
X106622310Y-123870041D01*
X106834510Y-124015031D01*
X107086400Y-124066040D01*
X108813600Y-124066040D01*
X109048917Y-124021762D01*
X109265041Y-123882690D01*
X109410031Y-123670490D01*
X109432959Y-123557265D01*
X133301870Y-123557265D01*
X133985000Y-124240395D01*
X134668130Y-123557265D01*
X134618617Y-123331836D01*
X134153964Y-123172193D01*
X133663587Y-123202518D01*
X133351383Y-123331836D01*
X133301870Y-123557265D01*
X109432959Y-123557265D01*
X109461040Y-123418600D01*
X109461040Y-122017601D01*
X110092399Y-122017601D01*
X110383238Y-121959749D01*
X110629800Y-121795002D01*
X115688762Y-116736040D01*
X133069938Y-116736040D01*
X135373498Y-119039600D01*
X123884111Y-119039600D01*
X123809686Y-118965045D01*
X123447788Y-118814772D01*
X123055931Y-118814430D01*
X122693771Y-118964071D01*
X122416445Y-119240914D01*
X122266172Y-119602812D01*
X122265830Y-119994669D01*
X122415471Y-120356829D01*
X122692314Y-120634155D01*
X123054212Y-120784428D01*
X123446069Y-120784770D01*
X123808229Y-120635129D01*
X123883890Y-120559600D01*
X136180719Y-120559600D01*
X136425843Y-120804724D01*
X136090655Y-120871397D01*
X136070297Y-120885000D01*
X135059669Y-120885000D01*
X135049090Y-120868559D01*
X134836890Y-120723569D01*
X134585000Y-120672560D01*
X133385000Y-120672560D01*
X133149683Y-120716838D01*
X132933559Y-120855910D01*
X132788569Y-121068110D01*
X132737560Y-121320000D01*
X132737560Y-122520000D01*
X132781838Y-122755317D01*
X132920910Y-122971441D01*
X133133110Y-123116431D01*
X133385000Y-123167440D01*
X134585000Y-123167440D01*
X134820317Y-123123162D01*
X135036441Y-122984090D01*
X135056317Y-122955000D01*
X135954868Y-122955000D01*
X137930000Y-124930133D01*
X137930000Y-126137233D01*
X137739233Y-126422736D01*
X137630000Y-126971887D01*
X137630000Y-127028113D01*
X137739233Y-127577264D01*
X138050302Y-128042811D01*
X138515849Y-128353880D01*
X139065000Y-128463113D01*
X139614151Y-128353880D01*
X140079698Y-128042811D01*
X140335000Y-127660725D01*
X140590302Y-128042811D01*
X141055849Y-128353880D01*
X141605000Y-128463113D01*
X142154151Y-128353880D01*
X142619698Y-128042811D01*
X142875000Y-127660725D01*
X143130302Y-128042811D01*
X143595849Y-128353880D01*
X144145000Y-128463113D01*
X144694151Y-128353880D01*
X145159698Y-128042811D01*
X145415000Y-127660725D01*
X145670302Y-128042811D01*
X146135849Y-128353880D01*
X146685000Y-128463113D01*
X147234151Y-128353880D01*
X147699698Y-128042811D01*
X147955000Y-127660725D01*
X148210302Y-128042811D01*
X148675849Y-128353880D01*
X149225000Y-128463113D01*
X149774151Y-128353880D01*
X150239698Y-128042811D01*
X150495000Y-127660725D01*
X150750302Y-128042811D01*
X151215849Y-128353880D01*
X151765000Y-128463113D01*
X152314151Y-128353880D01*
X152779698Y-128042811D01*
X153035000Y-127660725D01*
X153290302Y-128042811D01*
X153755849Y-128353880D01*
X154305000Y-128463113D01*
X154854151Y-128353880D01*
X155319698Y-128042811D01*
X155575000Y-127660725D01*
X155830302Y-128042811D01*
X156295849Y-128353880D01*
X156845000Y-128463113D01*
X157394151Y-128353880D01*
X157859698Y-128042811D01*
X158115000Y-127660725D01*
X158370302Y-128042811D01*
X158835849Y-128353880D01*
X159385000Y-128463113D01*
X159934151Y-128353880D01*
X160399698Y-128042811D01*
X160669986Y-127638297D01*
X160772611Y-127855134D01*
X161187577Y-128231041D01*
X161575961Y-128391904D01*
X161798000Y-128269915D01*
X161798000Y-127127000D01*
X162052000Y-127127000D01*
X162052000Y-128269915D01*
X162274039Y-128391904D01*
X162662423Y-128231041D01*
X163077389Y-127855134D01*
X163316914Y-127349041D01*
X163195629Y-127127000D01*
X162052000Y-127127000D01*
X161798000Y-127127000D01*
X161778000Y-127127000D01*
X161778000Y-126873000D01*
X161798000Y-126873000D01*
X161798000Y-126853000D01*
X162052000Y-126853000D01*
X162052000Y-126873000D01*
X163195629Y-126873000D01*
X163316914Y-126650959D01*
X163077389Y-126144866D01*
X162662423Y-125768959D01*
X162411427Y-125665000D01*
X169590000Y-125665000D01*
X169909541Y-125601439D01*
X170180434Y-125420434D01*
X171393038Y-124207830D01*
X173493450Y-124207830D01*
X173493450Y-125907090D01*
X173537728Y-126142407D01*
X173676800Y-126358531D01*
X173889000Y-126503521D01*
X174140890Y-126554530D01*
X175840150Y-126554530D01*
X176075467Y-126510252D01*
X176291591Y-126371180D01*
X176436581Y-126158980D01*
X176487590Y-125907090D01*
X176487590Y-124207830D01*
X176443312Y-123972513D01*
X176304240Y-123756389D01*
X176092040Y-123611399D01*
X175840150Y-123560390D01*
X174140890Y-123560390D01*
X173905573Y-123604668D01*
X173689449Y-123743740D01*
X173544459Y-123955940D01*
X173493450Y-124207830D01*
X171393038Y-124207830D01*
X172705868Y-122895000D01*
X181588014Y-122895000D01*
X181790288Y-123197725D01*
X182207172Y-123476278D01*
X182698920Y-123574093D01*
X183190668Y-123476278D01*
X183607552Y-123197725D01*
X183844460Y-122843167D01*
X184081368Y-123197725D01*
X184115000Y-123220197D01*
X184115000Y-123993420D01*
X183892646Y-124215386D01*
X183666148Y-124760853D01*
X183665632Y-125351476D01*
X183891178Y-125897337D01*
X184308446Y-126315334D01*
X184853913Y-126541832D01*
X185444536Y-126542348D01*
X185990397Y-126316802D01*
X186408394Y-125899534D01*
X186634892Y-125354067D01*
X186635408Y-124763444D01*
X186409862Y-124217583D01*
X186185000Y-123992328D01*
X186185000Y-122920493D01*
X186464604Y-123259588D01*
X186909280Y-123495951D01*
X186955609Y-123503099D01*
X187154080Y-123379067D01*
X187154080Y-122187000D01*
X187408080Y-122187000D01*
X187408080Y-123379067D01*
X187606551Y-123503099D01*
X187652880Y-123495951D01*
X188097556Y-123259588D01*
X188417931Y-122871047D01*
X188565231Y-122389480D01*
X188410926Y-122187000D01*
X187408080Y-122187000D01*
X187154080Y-122187000D01*
X187134080Y-122187000D01*
X187134080Y-121933000D01*
X187154080Y-121933000D01*
X187154080Y-120740933D01*
X187408080Y-120740933D01*
X187408080Y-121933000D01*
X188410926Y-121933000D01*
X188565231Y-121730520D01*
X188417931Y-121248953D01*
X188097556Y-120860412D01*
X187652880Y-120624049D01*
X187606551Y-120616901D01*
X187408080Y-120740933D01*
X187154080Y-120740933D01*
X187048660Y-120675052D01*
X192908711Y-114815000D01*
X194819593Y-114815000D01*
X195034536Y-115030318D01*
X194640630Y-115423537D01*
X194410262Y-115978325D01*
X194409738Y-116579040D01*
X194639138Y-117134229D01*
X195034536Y-117530318D01*
X194640630Y-117923537D01*
X194410262Y-118478325D01*
X194409738Y-119079040D01*
X194639138Y-119634229D01*
X195063537Y-120059370D01*
X195618325Y-120289738D01*
X196219040Y-120290262D01*
X196774229Y-120060862D01*
X197199370Y-119636463D01*
X197429738Y-119081675D01*
X197430262Y-118480960D01*
X197200862Y-117925771D01*
X196805464Y-117529682D01*
X197199370Y-117136463D01*
X197429738Y-116581675D01*
X197430262Y-115980960D01*
X197200862Y-115425771D01*
X196805464Y-115029682D01*
X197199370Y-114636463D01*
X197429738Y-114081675D01*
X197430262Y-113480960D01*
X197200862Y-112925771D01*
X196805464Y-112529682D01*
X197199370Y-112136463D01*
X197429738Y-111581675D01*
X197430262Y-110980960D01*
X197200862Y-110425771D01*
X196805464Y-110029682D01*
X197199370Y-109636463D01*
X197429738Y-109081675D01*
X197430262Y-108480960D01*
X197200862Y-107925771D01*
X197032283Y-107756897D01*
X197246441Y-107619090D01*
X197391431Y-107406890D01*
X197442440Y-107155000D01*
X197442440Y-105405000D01*
X197398162Y-105169683D01*
X197259090Y-104953559D01*
X197046890Y-104808569D01*
X196795000Y-104757560D01*
X195045000Y-104757560D01*
X194809683Y-104801838D01*
X194593559Y-104940910D01*
X194448569Y-105153110D01*
X194429961Y-105245000D01*
X193308711Y-105245000D01*
X191431856Y-103368144D01*
X191096077Y-103143785D01*
X190700000Y-103064999D01*
X190699995Y-103065000D01*
X186777356Y-103065000D01*
X186563492Y-103022459D01*
X186563487Y-103022460D01*
X186215079Y-103022460D01*
X186025000Y-102832049D01*
X186025000Y-102008602D01*
X186135651Y-101843002D01*
X186144229Y-101871047D01*
X186464604Y-102259588D01*
X186909280Y-102495951D01*
X186955609Y-102503099D01*
X187154080Y-102379067D01*
X187154080Y-101187000D01*
X187408080Y-101187000D01*
X187408080Y-102379067D01*
X187606551Y-102503099D01*
X187652880Y-102495951D01*
X188097556Y-102259588D01*
X188417931Y-101871047D01*
X188565231Y-101389480D01*
X188410926Y-101187000D01*
X187408080Y-101187000D01*
X187154080Y-101187000D01*
X187134080Y-101187000D01*
X187134080Y-100933000D01*
X187154080Y-100933000D01*
X187154080Y-99740933D01*
X187408080Y-99740933D01*
X187408080Y-100933000D01*
X188410926Y-100933000D01*
X188565231Y-100730520D01*
X188417931Y-100248953D01*
X188097556Y-99860412D01*
X187652880Y-99624049D01*
X187606551Y-99616901D01*
X187408080Y-99740933D01*
X187154080Y-99740933D01*
X186955609Y-99616901D01*
X186909280Y-99624049D01*
X186464604Y-99860412D01*
X186144229Y-100248953D01*
X186135651Y-100276998D01*
X185898632Y-99922275D01*
X185481748Y-99643722D01*
X184990000Y-99545907D01*
X184498252Y-99643722D01*
X184081368Y-99922275D01*
X183844460Y-100276833D01*
X183607552Y-99922275D01*
X183190668Y-99643722D01*
X182698920Y-99545907D01*
X182207172Y-99643722D01*
X181790288Y-99922275D01*
X181511735Y-100339159D01*
X181413920Y-100830907D01*
X181413920Y-101164132D01*
X179019566Y-103558486D01*
X178838561Y-103829379D01*
X178775000Y-104148920D01*
X178775000Y-110127315D01*
X178750990Y-110248021D01*
X178750990Y-117278142D01*
X176868142Y-119160990D01*
X176435208Y-119160990D01*
X176436581Y-119158980D01*
X176487590Y-118907090D01*
X176487590Y-117207830D01*
X176443312Y-116972513D01*
X176304240Y-116756389D01*
X176092040Y-116611399D01*
X175840150Y-116560390D01*
X174140890Y-116560390D01*
X173905573Y-116604668D01*
X173689449Y-116743740D01*
X173544459Y-116955940D01*
X173493450Y-117207830D01*
X173493450Y-118907090D01*
X173537728Y-119142407D01*
X173549686Y-119160990D01*
X170004010Y-119160990D01*
X169684470Y-119224550D01*
X169413576Y-119405556D01*
X167175764Y-121643368D01*
X160736434Y-121643368D01*
X161601114Y-120778688D01*
X161925000Y-120843113D01*
X162474151Y-120733880D01*
X162939698Y-120422811D01*
X163250767Y-119957264D01*
X163360000Y-119408113D01*
X163360000Y-119351887D01*
X163250767Y-118802736D01*
X162939698Y-118337189D01*
X162474151Y-118026120D01*
X161925000Y-117916887D01*
X161375849Y-118026120D01*
X160910302Y-118337189D01*
X160655000Y-118719275D01*
X160399698Y-118337189D01*
X159934151Y-118026120D01*
X159385000Y-117916887D01*
X158835849Y-118026120D01*
X158370302Y-118337189D01*
X158100014Y-118741703D01*
X157997389Y-118524866D01*
X157582423Y-118148959D01*
X157194039Y-117988096D01*
X156972000Y-118110085D01*
X156972000Y-119253000D01*
X156992000Y-119253000D01*
X156992000Y-119507000D01*
X156972000Y-119507000D01*
X156972000Y-120649915D01*
X157194039Y-120771904D01*
X157582423Y-120611041D01*
X157997389Y-120235134D01*
X158100014Y-120018297D01*
X158370302Y-120422811D01*
X158835849Y-120733880D01*
X159364378Y-120839011D01*
X151785622Y-120839011D01*
X152314151Y-120733880D01*
X152779698Y-120422811D01*
X153049986Y-120018297D01*
X153152611Y-120235134D01*
X153567577Y-120611041D01*
X153955961Y-120771904D01*
X154178000Y-120649915D01*
X154178000Y-119507000D01*
X154432000Y-119507000D01*
X154432000Y-120649915D01*
X154654039Y-120771904D01*
X155042423Y-120611041D01*
X155457389Y-120235134D01*
X155575000Y-119986633D01*
X155692611Y-120235134D01*
X156107577Y-120611041D01*
X156495961Y-120771904D01*
X156718000Y-120649915D01*
X156718000Y-119507000D01*
X154432000Y-119507000D01*
X154178000Y-119507000D01*
X154158000Y-119507000D01*
X154158000Y-119253000D01*
X154178000Y-119253000D01*
X154178000Y-118110085D01*
X154432000Y-118110085D01*
X154432000Y-119253000D01*
X156718000Y-119253000D01*
X156718000Y-118110085D01*
X156495961Y-117988096D01*
X156107577Y-118148959D01*
X155692611Y-118524866D01*
X155575000Y-118773367D01*
X155457389Y-118524866D01*
X155042423Y-118148959D01*
X154654039Y-117988096D01*
X154432000Y-118110085D01*
X154178000Y-118110085D01*
X153955961Y-117988096D01*
X153567577Y-118148959D01*
X153152611Y-118524866D01*
X153049986Y-118741703D01*
X152779698Y-118337189D01*
X152314151Y-118026120D01*
X152015823Y-117966779D01*
X159234101Y-110748501D01*
X159398848Y-110501939D01*
X159456700Y-110211100D01*
X159456700Y-110207830D01*
X173493450Y-110207830D01*
X173493450Y-111907090D01*
X173537728Y-112142407D01*
X173676800Y-112358531D01*
X173889000Y-112503521D01*
X174140890Y-112554530D01*
X175840150Y-112554530D01*
X176075467Y-112510252D01*
X176291591Y-112371180D01*
X176436581Y-112158980D01*
X176487590Y-111907090D01*
X176487590Y-110207830D01*
X176443312Y-109972513D01*
X176304240Y-109756389D01*
X176092040Y-109611399D01*
X175840150Y-109560390D01*
X174140890Y-109560390D01*
X173905573Y-109604668D01*
X173689449Y-109743740D01*
X173544459Y-109955940D01*
X173493450Y-110207830D01*
X159456700Y-110207830D01*
X159456700Y-109915496D01*
X159604961Y-109976904D01*
X159827000Y-109854915D01*
X159827000Y-108712000D01*
X160081000Y-108712000D01*
X160081000Y-109854915D01*
X160303039Y-109976904D01*
X160691423Y-109816041D01*
X161106389Y-109440134D01*
X161345914Y-108934041D01*
X161224629Y-108712000D01*
X160081000Y-108712000D01*
X159827000Y-108712000D01*
X159807000Y-108712000D01*
X159807000Y-108458000D01*
X159827000Y-108458000D01*
X159827000Y-108438000D01*
X160081000Y-108438000D01*
X160081000Y-108458000D01*
X161224629Y-108458000D01*
X161345914Y-108235959D01*
X161207976Y-107944510D01*
X163794967Y-107944510D01*
X164085806Y-107886658D01*
X164332368Y-107721911D01*
X166435001Y-105619278D01*
X166599748Y-105372716D01*
X166657600Y-105081877D01*
X166657600Y-103207830D01*
X173493450Y-103207830D01*
X173493450Y-104907090D01*
X173537728Y-105142407D01*
X173676800Y-105358531D01*
X173889000Y-105503521D01*
X174140890Y-105554530D01*
X175840150Y-105554530D01*
X176075467Y-105510252D01*
X176291591Y-105371180D01*
X176436581Y-105158980D01*
X176487590Y-104907090D01*
X176487590Y-103207830D01*
X176443312Y-102972513D01*
X176304240Y-102756389D01*
X176092040Y-102611399D01*
X175840150Y-102560390D01*
X174140890Y-102560390D01*
X173905573Y-102604668D01*
X173689449Y-102743740D01*
X173544459Y-102955940D01*
X173493450Y-103207830D01*
X166657600Y-103207830D01*
X166657600Y-94879078D01*
X172372378Y-94879078D01*
X172401917Y-95389428D01*
X172540389Y-95723729D01*
X172770984Y-95779410D01*
X173490395Y-95060000D01*
X172770984Y-94340590D01*
X172540389Y-94396271D01*
X172372378Y-94879078D01*
X166657600Y-94879078D01*
X166657600Y-94160984D01*
X172950590Y-94160984D01*
X173670000Y-94880395D01*
X174389410Y-94160984D01*
X174333729Y-93930389D01*
X173850922Y-93762378D01*
X173340572Y-93791917D01*
X173006271Y-93930389D01*
X172950590Y-94160984D01*
X166657600Y-94160984D01*
X166657600Y-93444402D01*
X168037758Y-92064244D01*
X171991848Y-92064244D01*
X172066273Y-92138799D01*
X172428171Y-92289072D01*
X172820028Y-92289414D01*
X173182188Y-92139773D01*
X173459514Y-91862930D01*
X173609787Y-91501032D01*
X173610029Y-91223874D01*
X173859757Y-91223874D01*
X173934182Y-91298429D01*
X174296080Y-91448702D01*
X174687937Y-91449044D01*
X174905000Y-91359356D01*
X174905000Y-94650703D01*
X174799611Y-94396271D01*
X174569016Y-94340590D01*
X173849605Y-95060000D01*
X174569016Y-95779410D01*
X174799611Y-95723729D01*
X174905000Y-95420877D01*
X174905000Y-96311289D01*
X174768430Y-96447859D01*
X174571890Y-96313569D01*
X174320000Y-96262560D01*
X174157615Y-96262560D01*
X174333729Y-96189611D01*
X174389410Y-95959016D01*
X173670000Y-95239605D01*
X172950590Y-95959016D01*
X173006271Y-96189611D01*
X173215902Y-96262560D01*
X173020000Y-96262560D01*
X172784683Y-96306838D01*
X172568559Y-96445910D01*
X172423569Y-96658110D01*
X172372560Y-96910000D01*
X172372560Y-98210000D01*
X172416838Y-98445317D01*
X172555910Y-98661441D01*
X172768110Y-98806431D01*
X173020000Y-98857440D01*
X174320000Y-98857440D01*
X174555317Y-98813162D01*
X174771441Y-98674090D01*
X174825481Y-98595000D01*
X175119995Y-98595000D01*
X175120000Y-98595001D01*
X175516077Y-98516215D01*
X175851856Y-98291856D01*
X176671853Y-97471858D01*
X176671856Y-97471856D01*
X176896215Y-97136077D01*
X176905808Y-97087852D01*
X176975001Y-96740000D01*
X176975000Y-96739995D01*
X176975000Y-93045750D01*
X177410000Y-93045750D01*
X177410000Y-93486309D01*
X177506673Y-93719698D01*
X177685301Y-93898327D01*
X177918690Y-93995000D01*
X178359250Y-93995000D01*
X178518000Y-93836250D01*
X178518000Y-92887000D01*
X178772000Y-92887000D01*
X178772000Y-93836250D01*
X178930750Y-93995000D01*
X179371310Y-93995000D01*
X179604699Y-93898327D01*
X179783327Y-93719698D01*
X179880000Y-93486309D01*
X179880000Y-93045750D01*
X179721250Y-92887000D01*
X178772000Y-92887000D01*
X178518000Y-92887000D01*
X177568750Y-92887000D01*
X177410000Y-93045750D01*
X176975000Y-93045750D01*
X176975000Y-92033691D01*
X177410000Y-92033691D01*
X177410000Y-92474250D01*
X177568750Y-92633000D01*
X178518000Y-92633000D01*
X178518000Y-91683750D01*
X178772000Y-91683750D01*
X178772000Y-92633000D01*
X179721250Y-92633000D01*
X179880000Y-92474250D01*
X179880000Y-92033691D01*
X179783327Y-91800302D01*
X179604699Y-91621673D01*
X179371310Y-91525000D01*
X178930750Y-91525000D01*
X178772000Y-91683750D01*
X178518000Y-91683750D01*
X178359250Y-91525000D01*
X177918690Y-91525000D01*
X177685301Y-91621673D01*
X177506673Y-91800302D01*
X177410000Y-92033691D01*
X176975000Y-92033691D01*
X176975000Y-91628712D01*
X177308711Y-91295000D01*
X177933164Y-91295000D01*
X177944515Y-91306371D01*
X178398266Y-91494785D01*
X178889579Y-91495214D01*
X179343657Y-91307592D01*
X179691371Y-90960485D01*
X179879785Y-90506734D01*
X179880214Y-90015421D01*
X179692592Y-89561343D01*
X179446680Y-89315000D01*
X194397560Y-89315000D01*
X194397560Y-91065000D01*
X194441838Y-91300317D01*
X194580910Y-91516441D01*
X194793110Y-91661431D01*
X194809676Y-91664786D01*
X194640630Y-91833537D01*
X194410262Y-92388325D01*
X194409738Y-92989040D01*
X194639138Y-93544229D01*
X195063537Y-93969370D01*
X195618325Y-94199738D01*
X196219040Y-94200262D01*
X196774229Y-93970862D01*
X197199370Y-93546463D01*
X197429738Y-92991675D01*
X197430262Y-92390960D01*
X197200862Y-91835771D01*
X197032283Y-91666897D01*
X197246441Y-91529090D01*
X197391431Y-91316890D01*
X197442440Y-91065000D01*
X197442440Y-89315000D01*
X197398162Y-89079683D01*
X197259090Y-88863559D01*
X197046890Y-88718569D01*
X196795000Y-88667560D01*
X195045000Y-88667560D01*
X194809683Y-88711838D01*
X194593559Y-88850910D01*
X194448569Y-89063110D01*
X194397560Y-89315000D01*
X179446680Y-89315000D01*
X179345485Y-89213629D01*
X178891734Y-89025215D01*
X178400421Y-89024786D01*
X177946343Y-89212408D01*
X177933729Y-89225000D01*
X176880005Y-89225000D01*
X176880000Y-89224999D01*
X176483923Y-89303785D01*
X176148144Y-89528144D01*
X176148142Y-89528147D01*
X175457409Y-90218879D01*
X175328397Y-89906645D01*
X175051554Y-89629319D01*
X174689656Y-89479046D01*
X174297799Y-89478704D01*
X173935639Y-89628345D01*
X173859978Y-89703874D01*
X171160128Y-89703874D01*
X175388501Y-85475501D01*
X175553248Y-85228940D01*
X175611100Y-84938100D01*
X175611100Y-83864553D01*
X175623538Y-83894655D01*
X176082927Y-84354846D01*
X176683453Y-84604206D01*
X177333694Y-84604774D01*
X177934655Y-84356462D01*
X178394846Y-83897073D01*
X178644206Y-83296547D01*
X178644208Y-83293694D01*
X195375226Y-83293694D01*
X195623538Y-83894655D01*
X196082927Y-84354846D01*
X196683453Y-84604206D01*
X197333694Y-84604774D01*
X197934655Y-84356462D01*
X198394846Y-83897073D01*
X198644206Y-83296547D01*
X198644774Y-82646306D01*
X198396462Y-82045345D01*
X197937073Y-81585154D01*
X197336547Y-81335794D01*
X196686306Y-81335226D01*
X196085345Y-81583538D01*
X195625154Y-82042927D01*
X195375794Y-82643453D01*
X195375226Y-83293694D01*
X178644208Y-83293694D01*
X178644774Y-82646306D01*
X178396462Y-82045345D01*
X177937073Y-81585154D01*
X177336547Y-81335794D01*
X176686306Y-81335226D01*
X176085345Y-81583538D01*
X175625154Y-82042927D01*
X175611100Y-82076773D01*
X175611100Y-77391602D01*
X176218002Y-76784700D01*
X184490660Y-76784700D01*
X184490660Y-78816700D01*
X184534938Y-79052017D01*
X184674010Y-79268141D01*
X184886210Y-79413131D01*
X185138100Y-79464140D01*
X187170100Y-79464140D01*
X187405417Y-79419862D01*
X187621541Y-79280790D01*
X187723298Y-79131863D01*
X188062290Y-79358370D01*
X188694100Y-79484045D01*
X189325910Y-79358370D01*
X189861533Y-79000478D01*
X190219425Y-78464855D01*
X190345100Y-77833045D01*
X190345100Y-77768355D01*
X190219425Y-77136545D01*
X189861533Y-76600922D01*
X189384477Y-76282163D01*
X195037443Y-76282163D01*
X195136042Y-76548965D01*
X195745582Y-76775401D01*
X196395377Y-76751341D01*
X196883958Y-76548965D01*
X196982557Y-76282163D01*
X196010000Y-75309605D01*
X195037443Y-76282163D01*
X189384477Y-76282163D01*
X189325910Y-76243030D01*
X188694100Y-76117355D01*
X188062290Y-76243030D01*
X187722308Y-76470199D01*
X187634190Y-76333259D01*
X187421990Y-76188269D01*
X187170100Y-76137260D01*
X185138100Y-76137260D01*
X184902783Y-76181538D01*
X184686659Y-76320610D01*
X184541669Y-76532810D01*
X184490660Y-76784700D01*
X176218002Y-76784700D01*
X178137120Y-74865582D01*
X194364599Y-74865582D01*
X194388659Y-75515377D01*
X194591035Y-76003958D01*
X194857837Y-76102557D01*
X195830395Y-75130000D01*
X196189605Y-75130000D01*
X197162163Y-76102557D01*
X197428965Y-76003958D01*
X197655401Y-75394418D01*
X197631341Y-74744623D01*
X197428965Y-74256042D01*
X197162163Y-74157443D01*
X196189605Y-75130000D01*
X195830395Y-75130000D01*
X194857837Y-74157443D01*
X194591035Y-74256042D01*
X194364599Y-74865582D01*
X178137120Y-74865582D01*
X179024865Y-73977837D01*
X195037443Y-73977837D01*
X196010000Y-74950395D01*
X196982557Y-73977837D01*
X196883958Y-73711035D01*
X196274418Y-73484599D01*
X195624623Y-73508659D01*
X195136042Y-73711035D01*
X195037443Y-73977837D01*
X179024865Y-73977837D01*
X180322102Y-72680600D01*
X192923200Y-72680600D01*
X193214039Y-72622748D01*
X193460601Y-72458001D01*
X196559401Y-69359201D01*
X196724148Y-69112639D01*
X196782000Y-68821800D01*
X196782000Y-66419538D01*
X196934655Y-66356462D01*
X197394846Y-65897073D01*
X197644206Y-65296547D01*
X197644774Y-64646306D01*
X197396462Y-64045345D01*
X196937073Y-63585154D01*
X196336547Y-63335794D01*
X195686306Y-63335226D01*
X195085345Y-63583538D01*
X194625154Y-64042927D01*
X194555779Y-64210000D01*
X194275702Y-64210000D01*
X193955901Y-63890199D01*
X193709339Y-63725452D01*
X193418500Y-63667600D01*
X192954030Y-63667600D01*
X192710485Y-63423629D01*
X192256734Y-63235215D01*
X191765421Y-63234786D01*
X191311343Y-63422408D01*
X190963629Y-63769515D01*
X190775215Y-64223266D01*
X190774786Y-64714579D01*
X190962408Y-65168657D01*
X191309515Y-65516371D01*
X191763266Y-65704785D01*
X192254579Y-65705214D01*
X192708657Y-65517592D01*
X193031149Y-65195663D01*
X193071685Y-65187600D01*
X193103698Y-65187600D01*
X193423499Y-65507401D01*
X193670060Y-65672148D01*
X193716292Y-65681344D01*
X193960900Y-65730000D01*
X194555504Y-65730000D01*
X194623538Y-65894655D01*
X195082927Y-66354846D01*
X195258831Y-66427888D01*
X195262000Y-66443820D01*
X195262000Y-68506998D01*
X192608398Y-71160600D01*
X180007300Y-71160600D01*
X179716461Y-71218452D01*
X179469899Y-71383199D01*
X174313699Y-76539399D01*
X174148952Y-76785961D01*
X174091100Y-77076800D01*
X174091100Y-84623298D01*
X170116698Y-88597700D01*
X165440400Y-88597700D01*
X165149561Y-88655552D01*
X164902999Y-88820299D01*
X161773298Y-91950000D01*
X130117995Y-91950000D01*
X129947811Y-91695302D01*
X129565725Y-91440000D01*
X129947811Y-91184698D01*
X130258880Y-90719151D01*
X130368113Y-90170000D01*
X130258880Y-89620849D01*
X129947811Y-89155302D01*
X129565725Y-88900000D01*
X129947811Y-88644698D01*
X130258880Y-88179151D01*
X130368113Y-87630000D01*
X130333017Y-87453562D01*
X135430579Y-82356000D01*
X136966995Y-82356000D01*
X136967000Y-82356001D01*
X137249484Y-82299810D01*
X137305675Y-82288633D01*
X137592790Y-82096790D01*
X138190200Y-81499380D01*
X138190200Y-83625225D01*
X138179999Y-83676508D01*
X138180000Y-83676513D01*
X138180000Y-83687153D01*
X138140345Y-83703538D01*
X137680154Y-84162927D01*
X137430794Y-84763453D01*
X137430226Y-85413694D01*
X137678538Y-86014655D01*
X138137927Y-86474846D01*
X138738453Y-86724206D01*
X139388694Y-86724774D01*
X139989655Y-86476462D01*
X140449846Y-86017073D01*
X140652691Y-85528568D01*
X140853538Y-86014655D01*
X141312927Y-86474846D01*
X141913453Y-86724206D01*
X142563694Y-86724774D01*
X143164655Y-86476462D01*
X143624846Y-86017073D01*
X143827691Y-85528568D01*
X144028538Y-86014655D01*
X144487927Y-86474846D01*
X145088453Y-86724206D01*
X145738694Y-86724774D01*
X146339655Y-86476462D01*
X146799846Y-86017073D01*
X147002691Y-85528568D01*
X147203538Y-86014655D01*
X147662927Y-86474846D01*
X148263453Y-86724206D01*
X148913694Y-86724774D01*
X149514655Y-86476462D01*
X149974846Y-86017073D01*
X150177691Y-85528568D01*
X150378538Y-86014655D01*
X150837927Y-86474846D01*
X151438453Y-86724206D01*
X152088694Y-86724774D01*
X152689655Y-86476462D01*
X153149846Y-86017073D01*
X153352691Y-85528568D01*
X153553538Y-86014655D01*
X154012927Y-86474846D01*
X154613453Y-86724206D01*
X155263694Y-86724774D01*
X155864655Y-86476462D01*
X156324846Y-86017073D01*
X156527691Y-85528568D01*
X156728538Y-86014655D01*
X157187927Y-86474846D01*
X157788453Y-86724206D01*
X158438694Y-86724774D01*
X159039655Y-86476462D01*
X159499846Y-86017073D01*
X159702691Y-85528568D01*
X159903538Y-86014655D01*
X160362927Y-86474846D01*
X160963453Y-86724206D01*
X161613694Y-86724774D01*
X162214655Y-86476462D01*
X162674846Y-86017073D01*
X162924206Y-85416547D01*
X162924774Y-84766306D01*
X162676462Y-84165345D01*
X162217073Y-83705154D01*
X161616547Y-83455794D01*
X160966306Y-83455226D01*
X160365345Y-83703538D01*
X159905154Y-84162927D01*
X159702309Y-84651432D01*
X159501462Y-84165345D01*
X159042073Y-83705154D01*
X158441547Y-83455794D01*
X157791306Y-83455226D01*
X157190345Y-83703538D01*
X156730154Y-84162927D01*
X156527309Y-84651432D01*
X156326462Y-84165345D01*
X155867073Y-83705154D01*
X155266547Y-83455794D01*
X154616306Y-83455226D01*
X154015345Y-83703538D01*
X153555154Y-84162927D01*
X153352309Y-84651432D01*
X153151462Y-84165345D01*
X152692073Y-83705154D01*
X152091547Y-83455794D01*
X151441306Y-83455226D01*
X150840345Y-83703538D01*
X150380154Y-84162927D01*
X150177309Y-84651432D01*
X149976462Y-84165345D01*
X149517073Y-83705154D01*
X148916547Y-83455794D01*
X148266306Y-83455226D01*
X147665345Y-83703538D01*
X147205154Y-84162927D01*
X147002309Y-84651432D01*
X146801462Y-84165345D01*
X146342073Y-83705154D01*
X145741547Y-83455794D01*
X145091306Y-83455226D01*
X144490345Y-83703538D01*
X144030154Y-84162927D01*
X143827309Y-84651432D01*
X143626462Y-84165345D01*
X143167073Y-83705154D01*
X143125000Y-83687684D01*
X143125000Y-83676513D01*
X143125001Y-83676508D01*
X143109800Y-83600089D01*
X143109800Y-79640480D01*
X143637987Y-79112292D01*
X143637990Y-79112290D01*
X143829833Y-78825175D01*
X143889815Y-78523629D01*
X143897201Y-78486500D01*
X143897200Y-78486495D01*
X143897200Y-71082836D01*
X143903000Y-71082836D01*
X143903000Y-72157164D01*
X144009340Y-72691773D01*
X144312172Y-73144992D01*
X144415000Y-73213700D01*
X144415000Y-73941695D01*
X144414999Y-73941700D01*
X144457914Y-74157443D01*
X144482367Y-74280375D01*
X144630825Y-74502559D01*
X144674210Y-74567490D01*
X145345860Y-75239139D01*
X145210029Y-75239021D01*
X144829485Y-75396258D01*
X144538081Y-75687154D01*
X144380180Y-76067423D01*
X144379821Y-76479171D01*
X144537058Y-76859715D01*
X144827954Y-77151119D01*
X145208223Y-77309020D01*
X145619971Y-77309379D01*
X145983433Y-77159200D01*
X152261715Y-77159200D01*
X152622523Y-77309020D01*
X153034271Y-77309379D01*
X153397733Y-77159200D01*
X165671495Y-77159200D01*
X165671500Y-77159201D01*
X165953984Y-77103010D01*
X166010175Y-77091833D01*
X166297290Y-76899990D01*
X167545787Y-75651492D01*
X167545790Y-75651490D01*
X167737633Y-75364375D01*
X167766420Y-75219655D01*
X167805001Y-75025700D01*
X167805000Y-75025695D01*
X167805000Y-73213700D01*
X167907828Y-73144992D01*
X168190000Y-72722693D01*
X168472172Y-73144992D01*
X168925391Y-73447824D01*
X169460000Y-73554164D01*
X169994609Y-73447824D01*
X170447828Y-73144992D01*
X170750660Y-72691773D01*
X170857000Y-72157164D01*
X170857000Y-71082836D01*
X170750660Y-70548227D01*
X170447828Y-70095008D01*
X169994609Y-69792176D01*
X169460000Y-69685836D01*
X168925391Y-69792176D01*
X168472172Y-70095008D01*
X168190000Y-70517307D01*
X167907828Y-70095008D01*
X167454609Y-69792176D01*
X166920000Y-69685836D01*
X166385391Y-69792176D01*
X165932172Y-70095008D01*
X165650000Y-70517307D01*
X165367828Y-70095008D01*
X164914609Y-69792176D01*
X164380000Y-69685836D01*
X163845391Y-69792176D01*
X163392172Y-70095008D01*
X163110000Y-70517307D01*
X162827828Y-70095008D01*
X162675000Y-69992891D01*
X162675000Y-69958000D01*
X162611439Y-69638459D01*
X162430434Y-69367566D01*
X160712434Y-67649566D01*
X160683151Y-67630000D01*
X160441541Y-67468561D01*
X160122000Y-67405000D01*
X148397614Y-67405000D01*
X148036788Y-67255172D01*
X147644931Y-67254830D01*
X147282771Y-67404471D01*
X147005445Y-67681314D01*
X146855172Y-68043212D01*
X146854909Y-68345000D01*
X146078000Y-68345000D01*
X145758459Y-68408561D01*
X145575275Y-68530961D01*
X145487566Y-68589566D01*
X144709566Y-69367566D01*
X144528561Y-69638459D01*
X144465000Y-69958000D01*
X144465000Y-69992891D01*
X144312172Y-70095008D01*
X144009340Y-70548227D01*
X143903000Y-71082836D01*
X143897200Y-71082836D01*
X143897200Y-65899016D01*
X180290590Y-65899016D01*
X180346271Y-66129611D01*
X180829078Y-66297622D01*
X181339428Y-66268083D01*
X181673729Y-66129611D01*
X181729410Y-65899016D01*
X181010000Y-65179605D01*
X180290590Y-65899016D01*
X143897200Y-65899016D01*
X143897200Y-64819078D01*
X179712378Y-64819078D01*
X179741917Y-65329428D01*
X179880389Y-65663729D01*
X180110984Y-65719410D01*
X180830395Y-65000000D01*
X181189605Y-65000000D01*
X181909016Y-65719410D01*
X182139611Y-65663729D01*
X182282024Y-65254481D01*
X184724777Y-65254481D01*
X184919995Y-65726943D01*
X185281155Y-66088735D01*
X185753276Y-66284777D01*
X186220383Y-66285185D01*
X187442599Y-67507401D01*
X187689161Y-67672148D01*
X187980000Y-67730000D01*
X190792666Y-67730000D01*
X190806838Y-67805317D01*
X190945910Y-68021441D01*
X191158110Y-68166431D01*
X191410000Y-68217440D01*
X192610000Y-68217440D01*
X192845317Y-68173162D01*
X193061441Y-68034090D01*
X193206431Y-67821890D01*
X193257440Y-67570000D01*
X193257440Y-66370000D01*
X193213162Y-66134683D01*
X193074090Y-65918559D01*
X192861890Y-65773569D01*
X192610000Y-65722560D01*
X191410000Y-65722560D01*
X191174683Y-65766838D01*
X190958559Y-65905910D01*
X190813569Y-66118110D01*
X190794961Y-66210000D01*
X188294802Y-66210000D01*
X187294818Y-65210016D01*
X187295223Y-64745519D01*
X187100005Y-64273057D01*
X186738845Y-63911265D01*
X186266724Y-63715223D01*
X185755519Y-63714777D01*
X185283057Y-63909995D01*
X184921265Y-64271155D01*
X184725223Y-64743276D01*
X184724777Y-65254481D01*
X182282024Y-65254481D01*
X182307622Y-65180922D01*
X182278083Y-64670572D01*
X182139611Y-64336271D01*
X181909016Y-64280590D01*
X181189605Y-65000000D01*
X180830395Y-65000000D01*
X180110984Y-64280590D01*
X179880389Y-64336271D01*
X179712378Y-64819078D01*
X143897200Y-64819078D01*
X143897200Y-64100984D01*
X180290590Y-64100984D01*
X181010000Y-64820395D01*
X181729410Y-64100984D01*
X181673729Y-63870389D01*
X181190922Y-63702378D01*
X180680572Y-63731917D01*
X180346271Y-63870389D01*
X180290590Y-64100984D01*
X143897200Y-64100984D01*
X143897200Y-63574980D01*
X144610679Y-62861500D01*
X154807210Y-62861500D01*
X154807215Y-62861501D01*
X154807220Y-62861500D01*
X155102176Y-62861500D01*
X155253223Y-62924220D01*
X155664971Y-62924579D01*
X155817634Y-62861500D01*
X168361395Y-62861500D01*
X168361400Y-62861501D01*
X168643884Y-62805310D01*
X168700075Y-62794133D01*
X168987190Y-62602290D01*
X168987191Y-62602289D01*
X170085787Y-61503692D01*
X170085790Y-61503690D01*
X170277633Y-61216575D01*
X170302512Y-61091500D01*
X170345001Y-60877900D01*
X170345000Y-60877895D01*
X170345000Y-57973700D01*
X170447828Y-57904992D01*
X170750660Y-57451773D01*
X170857000Y-56917164D01*
X170857000Y-55842836D01*
X170750660Y-55308227D01*
X170447828Y-54855008D01*
X169994609Y-54552176D01*
X169460000Y-54445836D01*
X168925391Y-54552176D01*
X168472172Y-54855008D01*
X168190000Y-55277307D01*
X167907828Y-54855008D01*
X167454609Y-54552176D01*
X166920000Y-54445836D01*
X166385391Y-54552176D01*
X165932172Y-54855008D01*
X165650000Y-55277307D01*
X165367828Y-54855008D01*
X164914609Y-54552176D01*
X164380000Y-54445836D01*
X163845391Y-54552176D01*
X163392172Y-54855008D01*
X163110000Y-55277307D01*
X162827828Y-54855008D01*
X162374609Y-54552176D01*
X161840000Y-54445836D01*
X161305391Y-54552176D01*
X160852172Y-54855008D01*
X160570000Y-55277307D01*
X160287828Y-54855008D01*
X159834609Y-54552176D01*
X159300000Y-54445836D01*
X159147708Y-54476129D01*
X158195790Y-53524210D01*
X158194699Y-53523481D01*
X157908675Y-53332367D01*
X157852484Y-53321190D01*
X157570000Y-53264999D01*
X157569995Y-53265000D01*
X147030000Y-53265000D01*
X146691325Y-53332367D01*
X146404210Y-53524210D01*
X146404208Y-53524213D01*
X145452292Y-54476129D01*
X145300000Y-54445836D01*
X144765391Y-54552176D01*
X144312172Y-54855008D01*
X144009340Y-55308227D01*
X143903000Y-55842836D01*
X143903000Y-56917164D01*
X144009340Y-57451773D01*
X144095019Y-57580001D01*
X141050004Y-57580001D01*
X141049999Y-57580000D01*
X140767515Y-57636191D01*
X140711324Y-57647368D01*
X140424209Y-57839211D01*
X140424207Y-57839214D01*
X139262210Y-59001210D01*
X139070367Y-59288325D01*
X139070367Y-59288326D01*
X139002999Y-59627000D01*
X139003000Y-59627005D01*
X139003000Y-63031571D01*
X138722073Y-62750154D01*
X138121547Y-62500794D01*
X137471306Y-62500226D01*
X136870345Y-62748538D01*
X136410154Y-63207927D01*
X136207309Y-63696432D01*
X136006462Y-63210345D01*
X135547073Y-62750154D01*
X134946547Y-62500794D01*
X134296306Y-62500226D01*
X133695345Y-62748538D01*
X133235154Y-63207927D01*
X133032309Y-63696432D01*
X132831462Y-63210345D01*
X132372073Y-62750154D01*
X131771547Y-62500794D01*
X131121306Y-62500226D01*
X130520345Y-62748538D01*
X130060154Y-63207927D01*
X129810794Y-63808453D01*
X129810226Y-64458694D01*
X130058538Y-65059655D01*
X130517927Y-65519846D01*
X131118453Y-65769206D01*
X131768694Y-65769774D01*
X132369655Y-65521462D01*
X132829846Y-65062073D01*
X133032691Y-64573568D01*
X133233538Y-65059655D01*
X133692927Y-65519846D01*
X134293453Y-65769206D01*
X134943694Y-65769774D01*
X135544655Y-65521462D01*
X136004846Y-65062073D01*
X136207691Y-64573568D01*
X136408538Y-65059655D01*
X136867927Y-65519846D01*
X137468453Y-65769206D01*
X138118694Y-65769774D01*
X138719655Y-65521462D01*
X139003000Y-65238611D01*
X139003000Y-73191571D01*
X138722073Y-72910154D01*
X138121547Y-72660794D01*
X137471306Y-72660226D01*
X136870345Y-72908538D01*
X136410154Y-73367927D01*
X136207309Y-73856432D01*
X136006462Y-73370345D01*
X135547073Y-72910154D01*
X134946547Y-72660794D01*
X134296306Y-72660226D01*
X133695345Y-72908538D01*
X133235154Y-73367927D01*
X133032309Y-73856432D01*
X132831462Y-73370345D01*
X132372073Y-72910154D01*
X131771547Y-72660794D01*
X131121306Y-72660226D01*
X130520345Y-72908538D01*
X130060154Y-73367927D01*
X129810794Y-73968453D01*
X129810226Y-74618694D01*
X130058538Y-75219655D01*
X130517927Y-75679846D01*
X131118453Y-75929206D01*
X131768694Y-75929774D01*
X132369655Y-75681462D01*
X132829846Y-75222073D01*
X133032691Y-74733568D01*
X133233538Y-75219655D01*
X133692927Y-75679846D01*
X134293453Y-75929206D01*
X134943694Y-75929774D01*
X135544655Y-75681462D01*
X136004846Y-75222073D01*
X136207691Y-74733568D01*
X136408538Y-75219655D01*
X136867927Y-75679846D01*
X137468453Y-75929206D01*
X138118694Y-75929774D01*
X138719655Y-75681462D01*
X139003000Y-75398611D01*
X139003000Y-76532421D01*
X135846410Y-79689010D01*
X133420990Y-79689010D01*
X133082315Y-79756377D01*
X132795200Y-79948220D01*
X132795198Y-79948223D01*
X129062653Y-83680767D01*
X128933113Y-83655000D01*
X128876887Y-83655000D01*
X128327736Y-83764233D01*
X127862189Y-84075302D01*
X127551120Y-84540849D01*
X127441887Y-85090000D01*
X127551120Y-85639151D01*
X127862189Y-86104698D01*
X128244275Y-86360000D01*
X127862189Y-86615302D01*
X127551120Y-87080849D01*
X127441887Y-87630000D01*
X127551120Y-88179151D01*
X127862189Y-88644698D01*
X128244275Y-88900000D01*
X127862189Y-89155302D01*
X127551120Y-89620849D01*
X127441887Y-90170000D01*
X127551120Y-90719151D01*
X127862189Y-91184698D01*
X128244275Y-91440000D01*
X127862189Y-91695302D01*
X127551120Y-92160849D01*
X127441887Y-92710000D01*
X127551120Y-93259151D01*
X127862189Y-93724698D01*
X128244275Y-93980000D01*
X127862189Y-94235302D01*
X127551120Y-94700849D01*
X127441887Y-95250000D01*
X127551120Y-95799151D01*
X127862189Y-96264698D01*
X128244275Y-96520000D01*
X127862189Y-96775302D01*
X127551120Y-97240849D01*
X127441887Y-97790000D01*
X127551120Y-98339151D01*
X127862189Y-98804698D01*
X128244275Y-99060000D01*
X127862189Y-99315302D01*
X127551120Y-99780849D01*
X127441887Y-100330000D01*
X127551120Y-100879151D01*
X127862189Y-101344698D01*
X128244275Y-101600000D01*
X127862189Y-101855302D01*
X127551120Y-102320849D01*
X127441887Y-102870000D01*
X127551120Y-103419151D01*
X127862189Y-103884698D01*
X128266703Y-104154986D01*
X128049866Y-104257611D01*
X127673959Y-104672577D01*
X127513096Y-105060961D01*
X127635085Y-105283000D01*
X128778000Y-105283000D01*
X128778000Y-105263000D01*
X129032000Y-105263000D01*
X129032000Y-105283000D01*
X130174915Y-105283000D01*
X130296904Y-105060961D01*
X130136041Y-104672577D01*
X129760134Y-104257611D01*
X129543297Y-104154986D01*
X129947811Y-103884698D01*
X130258880Y-103419151D01*
X130368113Y-102870000D01*
X130258880Y-102320849D01*
X129947811Y-101855302D01*
X129565725Y-101600000D01*
X129947811Y-101344698D01*
X130258880Y-100879151D01*
X130368113Y-100330000D01*
X130258880Y-99780849D01*
X129947811Y-99315302D01*
X129565725Y-99060000D01*
X129947811Y-98804698D01*
X130258880Y-98339151D01*
X130368113Y-97790000D01*
X130258880Y-97240849D01*
X129947811Y-96775302D01*
X129565725Y-96520000D01*
X129947811Y-96264698D01*
X130258880Y-95799151D01*
X130368113Y-95250000D01*
X130258880Y-94700849D01*
X129947811Y-94235302D01*
X129565725Y-93980000D01*
X129947811Y-93724698D01*
X130117995Y-93470000D01*
X139879993Y-93470000D01*
X139879850Y-93634079D01*
X139971860Y-93856761D01*
X139391547Y-93615794D01*
X138741306Y-93615226D01*
X138140345Y-93863538D01*
X137680154Y-94322927D01*
X137430794Y-94923453D01*
X137430226Y-95573694D01*
X137678538Y-96174655D01*
X138137927Y-96634846D01*
X138305000Y-96704221D01*
X138305000Y-97793000D01*
X138362852Y-98083839D01*
X138527599Y-98330401D01*
X138874000Y-98676802D01*
X138874000Y-99752005D01*
X138619302Y-99922189D01*
X138308233Y-100387736D01*
X138199000Y-100936887D01*
X138199000Y-100993113D01*
X138308233Y-101542264D01*
X138619302Y-102007811D01*
X139084849Y-102318880D01*
X139634000Y-102428113D01*
X140183151Y-102318880D01*
X140648698Y-102007811D01*
X140904000Y-101625725D01*
X141159302Y-102007811D01*
X141624849Y-102318880D01*
X142174000Y-102428113D01*
X142723151Y-102318880D01*
X143188698Y-102007811D01*
X143444000Y-101625725D01*
X143699302Y-102007811D01*
X144164849Y-102318880D01*
X144714000Y-102428113D01*
X145263151Y-102318880D01*
X145728698Y-102007811D01*
X145984000Y-101625725D01*
X146239302Y-102007811D01*
X146704849Y-102318880D01*
X147254000Y-102428113D01*
X147803151Y-102318880D01*
X148268698Y-102007811D01*
X148524000Y-101625725D01*
X148779302Y-102007811D01*
X149244849Y-102318880D01*
X149794000Y-102428113D01*
X150343151Y-102318880D01*
X150808698Y-102007811D01*
X151064000Y-101625725D01*
X151319302Y-102007811D01*
X151784849Y-102318880D01*
X152334000Y-102428113D01*
X152883151Y-102318880D01*
X153348698Y-102007811D01*
X153604000Y-101625725D01*
X153859302Y-102007811D01*
X154324849Y-102318880D01*
X154874000Y-102428113D01*
X155423151Y-102318880D01*
X155888698Y-102007811D01*
X156144000Y-101625725D01*
X156399302Y-102007811D01*
X156864849Y-102318880D01*
X157414000Y-102428113D01*
X157963151Y-102318880D01*
X158428698Y-102007811D01*
X158684000Y-101625725D01*
X158939302Y-102007811D01*
X159404849Y-102318880D01*
X159954000Y-102428113D01*
X160503151Y-102318880D01*
X160968698Y-102007811D01*
X161279767Y-101542264D01*
X161389000Y-100993113D01*
X161389000Y-100936887D01*
X161279767Y-100387736D01*
X160968698Y-99922189D01*
X160503151Y-99611120D01*
X159954000Y-99501887D01*
X159872754Y-99518048D01*
X161827401Y-97563401D01*
X161992148Y-97316840D01*
X162050000Y-97026000D01*
X162050000Y-96704496D01*
X162214655Y-96636462D01*
X162674846Y-96177073D01*
X162924206Y-95576547D01*
X162924774Y-94926306D01*
X162676462Y-94325345D01*
X162217073Y-93865154D01*
X161616547Y-93615794D01*
X160966306Y-93615226D01*
X160365345Y-93863538D01*
X159905154Y-94322927D01*
X159702309Y-94811432D01*
X159501462Y-94325345D01*
X159042073Y-93865154D01*
X158441547Y-93615794D01*
X157791306Y-93615226D01*
X157190345Y-93863538D01*
X156730154Y-94322927D01*
X156527309Y-94811432D01*
X156326462Y-94325345D01*
X155867073Y-93865154D01*
X155266547Y-93615794D01*
X154616306Y-93615226D01*
X154015345Y-93863538D01*
X153555154Y-94322927D01*
X153352309Y-94811432D01*
X153151462Y-94325345D01*
X152692073Y-93865154D01*
X152091547Y-93615794D01*
X151441306Y-93615226D01*
X150840345Y-93863538D01*
X150380154Y-94322927D01*
X150177309Y-94811432D01*
X149976462Y-94325345D01*
X149517073Y-93865154D01*
X148916547Y-93615794D01*
X148266306Y-93615226D01*
X147665345Y-93863538D01*
X147205154Y-94322927D01*
X147002309Y-94811432D01*
X146801462Y-94325345D01*
X146342073Y-93865154D01*
X145741547Y-93615794D01*
X145091306Y-93615226D01*
X144490345Y-93863538D01*
X144030154Y-94322927D01*
X143827309Y-94811432D01*
X143626462Y-94325345D01*
X143167073Y-93865154D01*
X142566547Y-93615794D01*
X141916306Y-93615226D01*
X141846396Y-93644112D01*
X141849848Y-93635798D01*
X141849993Y-93470000D01*
X162088100Y-93470000D01*
X162378939Y-93412148D01*
X162625501Y-93247401D01*
X165755202Y-90117700D01*
X166894898Y-90117700D01*
X164775999Y-92236599D01*
X164611252Y-92483161D01*
X164553400Y-92774000D01*
X164553400Y-104625798D01*
X163258698Y-105920500D01*
X156804400Y-105920500D01*
X156513561Y-105978352D01*
X156266999Y-106143099D01*
X155644699Y-106765399D01*
X155479952Y-107011961D01*
X155434809Y-107238909D01*
X155423151Y-107231120D01*
X154874000Y-107121887D01*
X154324849Y-107231120D01*
X153859302Y-107542189D01*
X153604000Y-107924275D01*
X153348698Y-107542189D01*
X152883151Y-107231120D01*
X152334000Y-107121887D01*
X151784849Y-107231120D01*
X151319302Y-107542189D01*
X151064000Y-107924275D01*
X150808698Y-107542189D01*
X150343151Y-107231120D01*
X149794000Y-107121887D01*
X149244849Y-107231120D01*
X148779302Y-107542189D01*
X148524000Y-107924275D01*
X148268698Y-107542189D01*
X147803151Y-107231120D01*
X147254000Y-107121887D01*
X146704849Y-107231120D01*
X146239302Y-107542189D01*
X145984000Y-107924275D01*
X145728698Y-107542189D01*
X145263151Y-107231120D01*
X144714000Y-107121887D01*
X144164849Y-107231120D01*
X143699302Y-107542189D01*
X143444000Y-107924275D01*
X143188698Y-107542189D01*
X142723151Y-107231120D01*
X142174000Y-107121887D01*
X141624849Y-107231120D01*
X141159302Y-107542189D01*
X140904000Y-107924275D01*
X140648698Y-107542189D01*
X140183151Y-107231120D01*
X139634000Y-107121887D01*
X139084849Y-107231120D01*
X138619302Y-107542189D01*
X138308233Y-108007736D01*
X138199000Y-108556887D01*
X138199000Y-108613113D01*
X138308233Y-109162264D01*
X138619302Y-109627811D01*
X138874000Y-109797995D01*
X138874000Y-110162998D01*
X137401998Y-111635000D01*
X109229520Y-111635000D01*
X109009670Y-111305971D01*
X108523489Y-110981115D01*
X107950000Y-110867041D01*
X107376511Y-110981115D01*
X106890330Y-111305971D01*
X106674336Y-111629228D01*
X106616821Y-111506510D01*
X106184947Y-111112312D01*
X105769026Y-110940042D01*
X105537000Y-111061183D01*
X105537000Y-112268000D01*
X105557000Y-112268000D01*
X105557000Y-112522000D01*
X105537000Y-112522000D01*
X105537000Y-112542000D01*
X105283000Y-112542000D01*
X105283000Y-112522000D01*
X104075531Y-112522000D01*
X103955032Y-112754027D01*
X104203179Y-113283490D01*
X104621161Y-113665008D01*
X104350330Y-113845971D01*
X104025474Y-114332152D01*
X103911400Y-114905641D01*
X101137000Y-114905641D01*
X101137000Y-112035973D01*
X103955032Y-112035973D01*
X104075531Y-112268000D01*
X105283000Y-112268000D01*
X105283000Y-111061183D01*
X105050974Y-110940042D01*
X104635053Y-111112312D01*
X104203179Y-111506510D01*
X103955032Y-112035973D01*
X101137000Y-112035973D01*
X101137000Y-92045641D01*
X103911400Y-92045641D01*
X103911400Y-92104359D01*
X104025474Y-92677848D01*
X104350330Y-93164029D01*
X104621172Y-93345000D01*
X104350330Y-93525971D01*
X104025474Y-94012152D01*
X103911400Y-94585641D01*
X103911400Y-94644359D01*
X104025474Y-95217848D01*
X104350330Y-95704029D01*
X104621172Y-95885000D01*
X104350330Y-96065971D01*
X104025474Y-96552152D01*
X103911400Y-97125641D01*
X103911400Y-97184359D01*
X104025474Y-97757848D01*
X104350330Y-98244029D01*
X104621172Y-98425000D01*
X104350330Y-98605971D01*
X104025474Y-99092152D01*
X103911400Y-99665641D01*
X103911400Y-99724359D01*
X104025474Y-100297848D01*
X104350330Y-100784029D01*
X104836511Y-101108885D01*
X105410000Y-101222959D01*
X105787973Y-101147775D01*
X108047599Y-103407401D01*
X108294161Y-103572148D01*
X108585000Y-103630000D01*
X120072005Y-103630000D01*
X120242189Y-103884698D01*
X120624275Y-104140000D01*
X120242189Y-104395302D01*
X119931120Y-104860849D01*
X119821887Y-105410000D01*
X119931120Y-105959151D01*
X120242189Y-106424698D01*
X120707736Y-106735767D01*
X121256140Y-106844851D01*
X122790000Y-108378711D01*
X122790000Y-108780331D01*
X122773559Y-108790910D01*
X122628569Y-109003110D01*
X122577560Y-109255000D01*
X122577560Y-110455000D01*
X122621838Y-110690317D01*
X122760910Y-110906441D01*
X122973110Y-111051431D01*
X123225000Y-111102440D01*
X124425000Y-111102440D01*
X124660317Y-111058162D01*
X124876441Y-110919090D01*
X125014020Y-110717735D01*
X125641870Y-110717735D01*
X125691383Y-110943164D01*
X126156036Y-111102807D01*
X126646413Y-111072482D01*
X126958617Y-110943164D01*
X127008130Y-110717735D01*
X126325000Y-110034605D01*
X125641870Y-110717735D01*
X125014020Y-110717735D01*
X125021431Y-110706890D01*
X125072440Y-110455000D01*
X125072440Y-109686036D01*
X125077193Y-109686036D01*
X125107518Y-110176413D01*
X125236836Y-110488617D01*
X125462265Y-110538130D01*
X126145395Y-109855000D01*
X126504605Y-109855000D01*
X127187735Y-110538130D01*
X127413164Y-110488617D01*
X127572807Y-110023964D01*
X127542482Y-109533587D01*
X127413164Y-109221383D01*
X127187735Y-109171870D01*
X126504605Y-109855000D01*
X126145395Y-109855000D01*
X125462265Y-109171870D01*
X125236836Y-109221383D01*
X125077193Y-109686036D01*
X125072440Y-109686036D01*
X125072440Y-109255000D01*
X125028162Y-109019683D01*
X125010519Y-108992265D01*
X125641870Y-108992265D01*
X126325000Y-109675395D01*
X127008130Y-108992265D01*
X126958617Y-108766836D01*
X126493964Y-108607193D01*
X126003587Y-108637518D01*
X125691383Y-108766836D01*
X125641870Y-108992265D01*
X125010519Y-108992265D01*
X124889090Y-108803559D01*
X124860000Y-108783683D01*
X124860000Y-107950000D01*
X124818320Y-107740460D01*
X124781215Y-107553922D01*
X124682971Y-107406890D01*
X124556856Y-107218144D01*
X124556853Y-107218142D01*
X123097750Y-105759039D01*
X127513096Y-105759039D01*
X127673959Y-106147423D01*
X128049866Y-106562389D01*
X128555959Y-106801914D01*
X128778000Y-106680629D01*
X128778000Y-105537000D01*
X129032000Y-105537000D01*
X129032000Y-106680629D01*
X129254041Y-106801914D01*
X129760134Y-106562389D01*
X130136041Y-106147423D01*
X130296904Y-105759039D01*
X130174915Y-105537000D01*
X129032000Y-105537000D01*
X128778000Y-105537000D01*
X127635085Y-105537000D01*
X127513096Y-105759039D01*
X123097750Y-105759039D01*
X122747964Y-105409253D01*
X122638880Y-104860849D01*
X122327811Y-104395302D01*
X121945725Y-104140000D01*
X122327811Y-103884698D01*
X122638880Y-103419151D01*
X122748113Y-102870000D01*
X122638880Y-102320849D01*
X122327811Y-101855302D01*
X121945725Y-101600000D01*
X122327811Y-101344698D01*
X122638880Y-100879151D01*
X122748113Y-100330000D01*
X122638880Y-99780849D01*
X122327811Y-99315302D01*
X121945725Y-99060000D01*
X122327811Y-98804698D01*
X122638880Y-98339151D01*
X122748113Y-97790000D01*
X122638880Y-97240849D01*
X122327811Y-96775302D01*
X121945725Y-96520000D01*
X122327811Y-96264698D01*
X122638880Y-95799151D01*
X122748113Y-95250000D01*
X122638880Y-94700849D01*
X122327811Y-94235302D01*
X121945725Y-93980000D01*
X122327811Y-93724698D01*
X122638880Y-93259151D01*
X122748113Y-92710000D01*
X122638880Y-92160849D01*
X122327811Y-91695302D01*
X121945725Y-91440000D01*
X122327811Y-91184698D01*
X122638880Y-90719151D01*
X122748113Y-90170000D01*
X122638880Y-89620849D01*
X122327811Y-89155302D01*
X121945725Y-88900000D01*
X122327811Y-88644698D01*
X122638880Y-88179151D01*
X122748113Y-87630000D01*
X122638880Y-87080849D01*
X122327811Y-86615302D01*
X121945725Y-86360000D01*
X122327811Y-86104698D01*
X122638880Y-85639151D01*
X122748113Y-85090000D01*
X122638880Y-84540849D01*
X122327811Y-84075302D01*
X121862264Y-83764233D01*
X121313113Y-83655000D01*
X121256887Y-83655000D01*
X120707736Y-83764233D01*
X120242189Y-84075302D01*
X120072005Y-84330000D01*
X112490000Y-84330000D01*
X112199161Y-84387852D01*
X111952599Y-84552599D01*
X108539219Y-87965979D01*
X108522759Y-87969253D01*
X108347787Y-88086166D01*
X107950000Y-88007041D01*
X107376511Y-88121115D01*
X106890330Y-88445971D01*
X106674336Y-88769228D01*
X106616821Y-88646510D01*
X106184947Y-88252312D01*
X105769026Y-88080042D01*
X105537000Y-88201183D01*
X105537000Y-89408000D01*
X105557000Y-89408000D01*
X105557000Y-89662000D01*
X105537000Y-89662000D01*
X105537000Y-89682000D01*
X105283000Y-89682000D01*
X105283000Y-89662000D01*
X104075531Y-89662000D01*
X103955032Y-89894027D01*
X104203179Y-90423490D01*
X104621161Y-90805008D01*
X104350330Y-90985971D01*
X104025474Y-91472152D01*
X103911400Y-92045641D01*
X101137000Y-92045641D01*
X101137000Y-89175973D01*
X103955032Y-89175973D01*
X104075531Y-89408000D01*
X105283000Y-89408000D01*
X105283000Y-88201183D01*
X105050974Y-88080042D01*
X104635053Y-88252312D01*
X104203179Y-88646510D01*
X103955032Y-89175973D01*
X101137000Y-89175973D01*
X101137000Y-79814579D01*
X122724786Y-79814579D01*
X122912408Y-80268657D01*
X123259515Y-80616371D01*
X123713266Y-80804785D01*
X124204579Y-80805214D01*
X124658657Y-80617592D01*
X125006371Y-80270485D01*
X125194785Y-79816734D01*
X125195214Y-79325421D01*
X125007592Y-78871343D01*
X124660485Y-78523629D01*
X124206734Y-78335215D01*
X123715421Y-78334786D01*
X123261343Y-78522408D01*
X122913629Y-78869515D01*
X122725215Y-79323266D01*
X122724786Y-79814579D01*
X101137000Y-79814579D01*
X101137000Y-71255750D01*
X103860600Y-71255750D01*
X103860600Y-72846370D01*
X103957273Y-73079759D01*
X104135902Y-73258387D01*
X104369291Y-73355060D01*
X105959910Y-73355060D01*
X106118660Y-73196310D01*
X106118660Y-71097000D01*
X106372660Y-71097000D01*
X106372660Y-73196310D01*
X106531410Y-73355060D01*
X107198977Y-73355060D01*
X107043899Y-73454850D01*
X106898909Y-73667050D01*
X106847900Y-73918940D01*
X106847900Y-77419060D01*
X106892178Y-77654377D01*
X107031250Y-77870501D01*
X107243450Y-78015491D01*
X107495340Y-78066500D01*
X110995460Y-78066500D01*
X111230777Y-78022222D01*
X111446901Y-77883150D01*
X111591891Y-77670950D01*
X111642900Y-77419060D01*
X111642900Y-73918940D01*
X111598622Y-73683623D01*
X111459550Y-73467499D01*
X111313197Y-73367500D01*
X113073895Y-73367500D01*
X114168961Y-74462566D01*
X114537181Y-74708603D01*
X114971527Y-74795000D01*
X115843758Y-74795000D01*
X115811560Y-74954000D01*
X115811560Y-76986000D01*
X115855838Y-77221317D01*
X115994910Y-77437441D01*
X116207110Y-77582431D01*
X116459000Y-77633440D01*
X118491000Y-77633440D01*
X118726317Y-77589162D01*
X118942441Y-77450090D01*
X119087431Y-77237890D01*
X119138440Y-76986000D01*
X119138440Y-76295750D01*
X123775000Y-76295750D01*
X123775000Y-77086310D01*
X123871673Y-77319699D01*
X124050302Y-77498327D01*
X124283691Y-77595000D01*
X125124250Y-77595000D01*
X125283000Y-77436250D01*
X125283000Y-76137000D01*
X125537000Y-76137000D01*
X125537000Y-77436250D01*
X125695750Y-77595000D01*
X126536309Y-77595000D01*
X126769698Y-77498327D01*
X126948327Y-77319699D01*
X127045000Y-77086310D01*
X127045000Y-76295750D01*
X126886250Y-76137000D01*
X125537000Y-76137000D01*
X125283000Y-76137000D01*
X123933750Y-76137000D01*
X123775000Y-76295750D01*
X119138440Y-76295750D01*
X119138440Y-74954000D01*
X119134619Y-74933690D01*
X123775000Y-74933690D01*
X123775000Y-75724250D01*
X123933750Y-75883000D01*
X125283000Y-75883000D01*
X125283000Y-75863000D01*
X125537000Y-75863000D01*
X125537000Y-75883000D01*
X126886250Y-75883000D01*
X127045000Y-75724250D01*
X127045000Y-74933690D01*
X126948327Y-74700301D01*
X126769698Y-74521673D01*
X126649749Y-74471988D01*
X126752914Y-74369003D01*
X126994724Y-73786659D01*
X126995275Y-73156107D01*
X126937798Y-73017004D01*
X127217401Y-72737401D01*
X127382148Y-72490840D01*
X127440000Y-72200000D01*
X127440000Y-69844496D01*
X127604655Y-69776462D01*
X128064846Y-69317073D01*
X128314206Y-68716547D01*
X128314774Y-68066306D01*
X128066462Y-67465345D01*
X127607073Y-67005154D01*
X127006547Y-66755794D01*
X126356306Y-66755226D01*
X125755345Y-67003538D01*
X125295154Y-67462927D01*
X125045794Y-68063453D01*
X125045226Y-68713694D01*
X125293538Y-69314655D01*
X125752927Y-69774846D01*
X125920000Y-69844221D01*
X125920000Y-71885198D01*
X125863218Y-71941980D01*
X125726659Y-71885276D01*
X125096107Y-71884725D01*
X124513343Y-72125519D01*
X124067086Y-72570997D01*
X123825276Y-73153341D01*
X123824725Y-73783893D01*
X124065519Y-74366657D01*
X124170545Y-74471867D01*
X124050302Y-74521673D01*
X123871673Y-74700301D01*
X123775000Y-74933690D01*
X119134619Y-74933690D01*
X119094162Y-74718683D01*
X118955090Y-74502559D01*
X118806163Y-74400802D01*
X119032670Y-74061810D01*
X119158345Y-73430000D01*
X119032670Y-72798190D01*
X118674778Y-72262567D01*
X118610000Y-72219284D01*
X118610000Y-69345000D01*
X118523603Y-68910654D01*
X118277566Y-68542434D01*
X118154466Y-68419334D01*
X118154774Y-68066306D01*
X117906462Y-67465345D01*
X117447073Y-67005154D01*
X116846547Y-66755794D01*
X116490615Y-66755483D01*
X116070000Y-66334868D01*
X116070000Y-62659975D01*
X116181431Y-62496890D01*
X116182012Y-62494016D01*
X117715590Y-62494016D01*
X117771271Y-62724611D01*
X118254078Y-62892622D01*
X118764428Y-62863083D01*
X119098729Y-62724611D01*
X119154410Y-62494016D01*
X118435000Y-61774605D01*
X117715590Y-62494016D01*
X116182012Y-62494016D01*
X116232440Y-62245000D01*
X116232440Y-61414078D01*
X117137378Y-61414078D01*
X117166917Y-61924428D01*
X117305389Y-62258729D01*
X117535984Y-62314410D01*
X118255395Y-61595000D01*
X118614605Y-61595000D01*
X119334016Y-62314410D01*
X119564611Y-62258729D01*
X119732622Y-61775922D01*
X119703083Y-61265572D01*
X119564611Y-60931271D01*
X119334016Y-60875590D01*
X118614605Y-61595000D01*
X118255395Y-61595000D01*
X117535984Y-60875590D01*
X117305389Y-60931271D01*
X117137378Y-61414078D01*
X116232440Y-61414078D01*
X116232440Y-60945000D01*
X116188162Y-60709683D01*
X116179347Y-60695984D01*
X117715590Y-60695984D01*
X118435000Y-61415395D01*
X119154410Y-60695984D01*
X119098729Y-60465389D01*
X118615922Y-60297378D01*
X118105572Y-60326917D01*
X117771271Y-60465389D01*
X117715590Y-60695984D01*
X116179347Y-60695984D01*
X116049090Y-60493559D01*
X115836890Y-60348569D01*
X115585000Y-60297560D01*
X114285000Y-60297560D01*
X114049683Y-60341838D01*
X113833559Y-60480910D01*
X113688569Y-60693110D01*
X113637560Y-60945000D01*
X113637560Y-62245000D01*
X113681838Y-62480317D01*
X113800000Y-62663946D01*
X113800000Y-66805000D01*
X113886397Y-67239346D01*
X113996730Y-67404471D01*
X114132434Y-67607566D01*
X114885534Y-68360666D01*
X114885226Y-68713694D01*
X115133538Y-69314655D01*
X115592927Y-69774846D01*
X116193453Y-70024206D01*
X116340000Y-70024334D01*
X116340000Y-72219284D01*
X116275222Y-72262567D01*
X116099870Y-72525000D01*
X115441659Y-72525000D01*
X114642640Y-71725981D01*
X114642640Y-69219940D01*
X114598362Y-68984623D01*
X114459290Y-68768499D01*
X114247090Y-68623509D01*
X113995200Y-68572500D01*
X110495080Y-68572500D01*
X110259763Y-68616778D01*
X110043639Y-68755850D01*
X109898649Y-68968050D01*
X109847640Y-69219940D01*
X109847640Y-72720060D01*
X109891918Y-72955377D01*
X110030990Y-73171501D01*
X110177343Y-73271500D01*
X108323760Y-73271500D01*
X108355418Y-73258387D01*
X108534047Y-73079759D01*
X108630720Y-72846370D01*
X108630720Y-71255750D01*
X108471970Y-71097000D01*
X106372660Y-71097000D01*
X106118660Y-71097000D01*
X104019350Y-71097000D01*
X103860600Y-71255750D01*
X101137000Y-71255750D01*
X101137000Y-69093630D01*
X103860600Y-69093630D01*
X103860600Y-70684250D01*
X104019350Y-70843000D01*
X106118660Y-70843000D01*
X106118660Y-68743690D01*
X106372660Y-68743690D01*
X106372660Y-70843000D01*
X108471970Y-70843000D01*
X108630720Y-70684250D01*
X108630720Y-69093630D01*
X108534047Y-68860241D01*
X108355418Y-68681613D01*
X108122029Y-68584940D01*
X106531410Y-68584940D01*
X106372660Y-68743690D01*
X106118660Y-68743690D01*
X105959910Y-68584940D01*
X104369291Y-68584940D01*
X104135902Y-68681613D01*
X103957273Y-68860241D01*
X103860600Y-69093630D01*
X101137000Y-69093630D01*
X101137000Y-60097000D01*
X108010000Y-60097000D01*
X108059410Y-60086994D01*
X108099803Y-60059803D01*
X110099803Y-58059803D01*
X110127666Y-58017789D01*
X110137000Y-57970000D01*
X110137000Y-57301399D01*
X131580000Y-57301399D01*
X131580000Y-58268601D01*
X131666397Y-58702947D01*
X131912434Y-59071167D01*
X132280654Y-59317204D01*
X132715000Y-59403601D01*
X133149346Y-59317204D01*
X133363010Y-59174438D01*
X133683126Y-59331619D01*
X133858000Y-59205454D01*
X133858000Y-57912000D01*
X133850000Y-57912000D01*
X133850000Y-57658000D01*
X133858000Y-57658000D01*
X133858000Y-56832500D01*
X134107560Y-56832500D01*
X134107560Y-58737500D01*
X134112000Y-58761097D01*
X134112000Y-59205454D01*
X134286874Y-59331619D01*
X134410725Y-59270807D01*
X134503110Y-59333931D01*
X134755000Y-59384940D01*
X135755000Y-59384940D01*
X135990317Y-59340662D01*
X136059314Y-59296263D01*
X136090654Y-59317204D01*
X136525000Y-59403601D01*
X136959346Y-59317204D01*
X137327566Y-59071167D01*
X137573603Y-58702947D01*
X137660000Y-58268601D01*
X137660000Y-57301399D01*
X137573603Y-56867053D01*
X137327566Y-56498833D01*
X136959346Y-56252796D01*
X136525000Y-56166399D01*
X136090654Y-56252796D01*
X136060681Y-56272823D01*
X136006890Y-56236069D01*
X135755000Y-56185060D01*
X134755000Y-56185060D01*
X134519683Y-56229338D01*
X134410952Y-56299305D01*
X134286874Y-56238381D01*
X134112000Y-56364546D01*
X134112000Y-56810575D01*
X134107560Y-56832500D01*
X133858000Y-56832500D01*
X133858000Y-56364546D01*
X133683126Y-56238381D01*
X133363010Y-56395562D01*
X133149346Y-56252796D01*
X132715000Y-56166399D01*
X132280654Y-56252796D01*
X131912434Y-56498833D01*
X131666397Y-56867053D01*
X131580000Y-57301399D01*
X110137000Y-57301399D01*
X110137000Y-51097000D01*
X189883000Y-51097000D01*
X189883000Y-56970000D01*
X189883000Y-56970000D01*
G37*
X189883000Y-56970000D02*
X189893006Y-57019410D01*
X189933800Y-57071600D01*
X193933800Y-60071600D01*
X193979332Y-60093241D01*
X194010000Y-60097000D01*
X198883000Y-60097000D01*
X198883000Y-126843000D01*
X193010000Y-126843000D01*
X192960590Y-126853006D01*
X192920197Y-126880197D01*
X189920197Y-129880197D01*
X189892334Y-129922211D01*
X189883000Y-129970000D01*
X189883000Y-135843000D01*
X110137000Y-135843000D01*
X110137000Y-129970000D01*
X110126994Y-129920590D01*
X110099803Y-129880197D01*
X107099803Y-126880197D01*
X107057789Y-126852334D01*
X107010000Y-126843000D01*
X101137000Y-126843000D01*
X101137000Y-125282735D01*
X133301870Y-125282735D01*
X133351383Y-125508164D01*
X133816036Y-125667807D01*
X134306413Y-125637482D01*
X134618617Y-125508164D01*
X134668130Y-125282735D01*
X133985000Y-124599605D01*
X133301870Y-125282735D01*
X101137000Y-125282735D01*
X101137000Y-124251036D01*
X132737193Y-124251036D01*
X132767518Y-124741413D01*
X132896836Y-125053617D01*
X133122265Y-125103130D01*
X133805395Y-124420000D01*
X134164605Y-124420000D01*
X134847735Y-125103130D01*
X135073164Y-125053617D01*
X135232807Y-124588964D01*
X135202482Y-124098587D01*
X135073164Y-123786383D01*
X134847735Y-123736870D01*
X134164605Y-124420000D01*
X133805395Y-124420000D01*
X133122265Y-123736870D01*
X132896836Y-123786383D01*
X132737193Y-124251036D01*
X101137000Y-124251036D01*
X101137000Y-114905641D01*
X103911400Y-114905641D01*
X103911400Y-114964359D01*
X104025474Y-115537848D01*
X104350330Y-116024029D01*
X104621172Y-116205000D01*
X104350330Y-116385971D01*
X104025474Y-116872152D01*
X103911400Y-117445641D01*
X103911400Y-117504359D01*
X104025474Y-118077848D01*
X104350330Y-118564029D01*
X104621172Y-118745000D01*
X104350330Y-118925971D01*
X104025474Y-119412152D01*
X103911400Y-119985641D01*
X103911400Y-120044359D01*
X104025474Y-120617848D01*
X104350330Y-121104029D01*
X104621172Y-121285000D01*
X104350330Y-121465971D01*
X104025474Y-121952152D01*
X103911400Y-122525641D01*
X103911400Y-122584359D01*
X104025474Y-123157848D01*
X104350330Y-123644029D01*
X104836511Y-123968885D01*
X105410000Y-124082959D01*
X105983489Y-123968885D01*
X106469670Y-123644029D01*
X106478805Y-123630358D01*
X106483238Y-123653917D01*
X106622310Y-123870041D01*
X106834510Y-124015031D01*
X107086400Y-124066040D01*
X108813600Y-124066040D01*
X109048917Y-124021762D01*
X109265041Y-123882690D01*
X109410031Y-123670490D01*
X109432959Y-123557265D01*
X133301870Y-123557265D01*
X133985000Y-124240395D01*
X134668130Y-123557265D01*
X134618617Y-123331836D01*
X134153964Y-123172193D01*
X133663587Y-123202518D01*
X133351383Y-123331836D01*
X133301870Y-123557265D01*
X109432959Y-123557265D01*
X109461040Y-123418600D01*
X109461040Y-122017601D01*
X110092399Y-122017601D01*
X110383238Y-121959749D01*
X110629800Y-121795002D01*
X115688762Y-116736040D01*
X133069938Y-116736040D01*
X135373498Y-119039600D01*
X123884111Y-119039600D01*
X123809686Y-118965045D01*
X123447788Y-118814772D01*
X123055931Y-118814430D01*
X122693771Y-118964071D01*
X122416445Y-119240914D01*
X122266172Y-119602812D01*
X122265830Y-119994669D01*
X122415471Y-120356829D01*
X122692314Y-120634155D01*
X123054212Y-120784428D01*
X123446069Y-120784770D01*
X123808229Y-120635129D01*
X123883890Y-120559600D01*
X136180719Y-120559600D01*
X136425843Y-120804724D01*
X136090655Y-120871397D01*
X136070297Y-120885000D01*
X135059669Y-120885000D01*
X135049090Y-120868559D01*
X134836890Y-120723569D01*
X134585000Y-120672560D01*
X133385000Y-120672560D01*
X133149683Y-120716838D01*
X132933559Y-120855910D01*
X132788569Y-121068110D01*
X132737560Y-121320000D01*
X132737560Y-122520000D01*
X132781838Y-122755317D01*
X132920910Y-122971441D01*
X133133110Y-123116431D01*
X133385000Y-123167440D01*
X134585000Y-123167440D01*
X134820317Y-123123162D01*
X135036441Y-122984090D01*
X135056317Y-122955000D01*
X135954868Y-122955000D01*
X137930000Y-124930133D01*
X137930000Y-126137233D01*
X137739233Y-126422736D01*
X137630000Y-126971887D01*
X137630000Y-127028113D01*
X137739233Y-127577264D01*
X138050302Y-128042811D01*
X138515849Y-128353880D01*
X139065000Y-128463113D01*
X139614151Y-128353880D01*
X140079698Y-128042811D01*
X140335000Y-127660725D01*
X140590302Y-128042811D01*
X141055849Y-128353880D01*
X141605000Y-128463113D01*
X142154151Y-128353880D01*
X142619698Y-128042811D01*
X142875000Y-127660725D01*
X143130302Y-128042811D01*
X143595849Y-128353880D01*
X144145000Y-128463113D01*
X144694151Y-128353880D01*
X145159698Y-128042811D01*
X145415000Y-127660725D01*
X145670302Y-128042811D01*
X146135849Y-128353880D01*
X146685000Y-128463113D01*
X147234151Y-128353880D01*
X147699698Y-128042811D01*
X147955000Y-127660725D01*
X148210302Y-128042811D01*
X148675849Y-128353880D01*
X149225000Y-128463113D01*
X149774151Y-128353880D01*
X150239698Y-128042811D01*
X150495000Y-127660725D01*
X150750302Y-128042811D01*
X151215849Y-128353880D01*
X151765000Y-128463113D01*
X152314151Y-128353880D01*
X152779698Y-128042811D01*
X153035000Y-127660725D01*
X153290302Y-128042811D01*
X153755849Y-128353880D01*
X154305000Y-128463113D01*
X154854151Y-128353880D01*
X155319698Y-128042811D01*
X155575000Y-127660725D01*
X155830302Y-128042811D01*
X156295849Y-128353880D01*
X156845000Y-128463113D01*
X157394151Y-128353880D01*
X157859698Y-128042811D01*
X158115000Y-127660725D01*
X158370302Y-128042811D01*
X158835849Y-128353880D01*
X159385000Y-128463113D01*
X159934151Y-128353880D01*
X160399698Y-128042811D01*
X160669986Y-127638297D01*
X160772611Y-127855134D01*
X161187577Y-128231041D01*
X161575961Y-128391904D01*
X161798000Y-128269915D01*
X161798000Y-127127000D01*
X162052000Y-127127000D01*
X162052000Y-128269915D01*
X162274039Y-128391904D01*
X162662423Y-128231041D01*
X163077389Y-127855134D01*
X163316914Y-127349041D01*
X163195629Y-127127000D01*
X162052000Y-127127000D01*
X161798000Y-127127000D01*
X161778000Y-127127000D01*
X161778000Y-126873000D01*
X161798000Y-126873000D01*
X161798000Y-126853000D01*
X162052000Y-126853000D01*
X162052000Y-126873000D01*
X163195629Y-126873000D01*
X163316914Y-126650959D01*
X163077389Y-126144866D01*
X162662423Y-125768959D01*
X162411427Y-125665000D01*
X169590000Y-125665000D01*
X169909541Y-125601439D01*
X170180434Y-125420434D01*
X171393038Y-124207830D01*
X173493450Y-124207830D01*
X173493450Y-125907090D01*
X173537728Y-126142407D01*
X173676800Y-126358531D01*
X173889000Y-126503521D01*
X174140890Y-126554530D01*
X175840150Y-126554530D01*
X176075467Y-126510252D01*
X176291591Y-126371180D01*
X176436581Y-126158980D01*
X176487590Y-125907090D01*
X176487590Y-124207830D01*
X176443312Y-123972513D01*
X176304240Y-123756389D01*
X176092040Y-123611399D01*
X175840150Y-123560390D01*
X174140890Y-123560390D01*
X173905573Y-123604668D01*
X173689449Y-123743740D01*
X173544459Y-123955940D01*
X173493450Y-124207830D01*
X171393038Y-124207830D01*
X172705868Y-122895000D01*
X181588014Y-122895000D01*
X181790288Y-123197725D01*
X182207172Y-123476278D01*
X182698920Y-123574093D01*
X183190668Y-123476278D01*
X183607552Y-123197725D01*
X183844460Y-122843167D01*
X184081368Y-123197725D01*
X184115000Y-123220197D01*
X184115000Y-123993420D01*
X183892646Y-124215386D01*
X183666148Y-124760853D01*
X183665632Y-125351476D01*
X183891178Y-125897337D01*
X184308446Y-126315334D01*
X184853913Y-126541832D01*
X185444536Y-126542348D01*
X185990397Y-126316802D01*
X186408394Y-125899534D01*
X186634892Y-125354067D01*
X186635408Y-124763444D01*
X186409862Y-124217583D01*
X186185000Y-123992328D01*
X186185000Y-122920493D01*
X186464604Y-123259588D01*
X186909280Y-123495951D01*
X186955609Y-123503099D01*
X187154080Y-123379067D01*
X187154080Y-122187000D01*
X187408080Y-122187000D01*
X187408080Y-123379067D01*
X187606551Y-123503099D01*
X187652880Y-123495951D01*
X188097556Y-123259588D01*
X188417931Y-122871047D01*
X188565231Y-122389480D01*
X188410926Y-122187000D01*
X187408080Y-122187000D01*
X187154080Y-122187000D01*
X187134080Y-122187000D01*
X187134080Y-121933000D01*
X187154080Y-121933000D01*
X187154080Y-120740933D01*
X187408080Y-120740933D01*
X187408080Y-121933000D01*
X188410926Y-121933000D01*
X188565231Y-121730520D01*
X188417931Y-121248953D01*
X188097556Y-120860412D01*
X187652880Y-120624049D01*
X187606551Y-120616901D01*
X187408080Y-120740933D01*
X187154080Y-120740933D01*
X187048660Y-120675052D01*
X192908711Y-114815000D01*
X194819593Y-114815000D01*
X195034536Y-115030318D01*
X194640630Y-115423537D01*
X194410262Y-115978325D01*
X194409738Y-116579040D01*
X194639138Y-117134229D01*
X195034536Y-117530318D01*
X194640630Y-117923537D01*
X194410262Y-118478325D01*
X194409738Y-119079040D01*
X194639138Y-119634229D01*
X195063537Y-120059370D01*
X195618325Y-120289738D01*
X196219040Y-120290262D01*
X196774229Y-120060862D01*
X197199370Y-119636463D01*
X197429738Y-119081675D01*
X197430262Y-118480960D01*
X197200862Y-117925771D01*
X196805464Y-117529682D01*
X197199370Y-117136463D01*
X197429738Y-116581675D01*
X197430262Y-115980960D01*
X197200862Y-115425771D01*
X196805464Y-115029682D01*
X197199370Y-114636463D01*
X197429738Y-114081675D01*
X197430262Y-113480960D01*
X197200862Y-112925771D01*
X196805464Y-112529682D01*
X197199370Y-112136463D01*
X197429738Y-111581675D01*
X197430262Y-110980960D01*
X197200862Y-110425771D01*
X196805464Y-110029682D01*
X197199370Y-109636463D01*
X197429738Y-109081675D01*
X197430262Y-108480960D01*
X197200862Y-107925771D01*
X197032283Y-107756897D01*
X197246441Y-107619090D01*
X197391431Y-107406890D01*
X197442440Y-107155000D01*
X197442440Y-105405000D01*
X197398162Y-105169683D01*
X197259090Y-104953559D01*
X197046890Y-104808569D01*
X196795000Y-104757560D01*
X195045000Y-104757560D01*
X194809683Y-104801838D01*
X194593559Y-104940910D01*
X194448569Y-105153110D01*
X194429961Y-105245000D01*
X193308711Y-105245000D01*
X191431856Y-103368144D01*
X191096077Y-103143785D01*
X190700000Y-103064999D01*
X190699995Y-103065000D01*
X186777356Y-103065000D01*
X186563492Y-103022459D01*
X186563487Y-103022460D01*
X186215079Y-103022460D01*
X186025000Y-102832049D01*
X186025000Y-102008602D01*
X186135651Y-101843002D01*
X186144229Y-101871047D01*
X186464604Y-102259588D01*
X186909280Y-102495951D01*
X186955609Y-102503099D01*
X187154080Y-102379067D01*
X187154080Y-101187000D01*
X187408080Y-101187000D01*
X187408080Y-102379067D01*
X187606551Y-102503099D01*
X187652880Y-102495951D01*
X188097556Y-102259588D01*
X188417931Y-101871047D01*
X188565231Y-101389480D01*
X188410926Y-101187000D01*
X187408080Y-101187000D01*
X187154080Y-101187000D01*
X187134080Y-101187000D01*
X187134080Y-100933000D01*
X187154080Y-100933000D01*
X187154080Y-99740933D01*
X187408080Y-99740933D01*
X187408080Y-100933000D01*
X188410926Y-100933000D01*
X188565231Y-100730520D01*
X188417931Y-100248953D01*
X188097556Y-99860412D01*
X187652880Y-99624049D01*
X187606551Y-99616901D01*
X187408080Y-99740933D01*
X187154080Y-99740933D01*
X186955609Y-99616901D01*
X186909280Y-99624049D01*
X186464604Y-99860412D01*
X186144229Y-100248953D01*
X186135651Y-100276998D01*
X185898632Y-99922275D01*
X185481748Y-99643722D01*
X184990000Y-99545907D01*
X184498252Y-99643722D01*
X184081368Y-99922275D01*
X183844460Y-100276833D01*
X183607552Y-99922275D01*
X183190668Y-99643722D01*
X182698920Y-99545907D01*
X182207172Y-99643722D01*
X181790288Y-99922275D01*
X181511735Y-100339159D01*
X181413920Y-100830907D01*
X181413920Y-101164132D01*
X179019566Y-103558486D01*
X178838561Y-103829379D01*
X178775000Y-104148920D01*
X178775000Y-110127315D01*
X178750990Y-110248021D01*
X178750990Y-117278142D01*
X176868142Y-119160990D01*
X176435208Y-119160990D01*
X176436581Y-119158980D01*
X176487590Y-118907090D01*
X176487590Y-117207830D01*
X176443312Y-116972513D01*
X176304240Y-116756389D01*
X176092040Y-116611399D01*
X175840150Y-116560390D01*
X174140890Y-116560390D01*
X173905573Y-116604668D01*
X173689449Y-116743740D01*
X173544459Y-116955940D01*
X173493450Y-117207830D01*
X173493450Y-118907090D01*
X173537728Y-119142407D01*
X173549686Y-119160990D01*
X170004010Y-119160990D01*
X169684470Y-119224550D01*
X169413576Y-119405556D01*
X167175764Y-121643368D01*
X160736434Y-121643368D01*
X161601114Y-120778688D01*
X161925000Y-120843113D01*
X162474151Y-120733880D01*
X162939698Y-120422811D01*
X163250767Y-119957264D01*
X163360000Y-119408113D01*
X163360000Y-119351887D01*
X163250767Y-118802736D01*
X162939698Y-118337189D01*
X162474151Y-118026120D01*
X161925000Y-117916887D01*
X161375849Y-118026120D01*
X160910302Y-118337189D01*
X160655000Y-118719275D01*
X160399698Y-118337189D01*
X159934151Y-118026120D01*
X159385000Y-117916887D01*
X158835849Y-118026120D01*
X158370302Y-118337189D01*
X158100014Y-118741703D01*
X157997389Y-118524866D01*
X157582423Y-118148959D01*
X157194039Y-117988096D01*
X156972000Y-118110085D01*
X156972000Y-119253000D01*
X156992000Y-119253000D01*
X156992000Y-119507000D01*
X156972000Y-119507000D01*
X156972000Y-120649915D01*
X157194039Y-120771904D01*
X157582423Y-120611041D01*
X157997389Y-120235134D01*
X158100014Y-120018297D01*
X158370302Y-120422811D01*
X158835849Y-120733880D01*
X159364378Y-120839011D01*
X151785622Y-120839011D01*
X152314151Y-120733880D01*
X152779698Y-120422811D01*
X153049986Y-120018297D01*
X153152611Y-120235134D01*
X153567577Y-120611041D01*
X153955961Y-120771904D01*
X154178000Y-120649915D01*
X154178000Y-119507000D01*
X154432000Y-119507000D01*
X154432000Y-120649915D01*
X154654039Y-120771904D01*
X155042423Y-120611041D01*
X155457389Y-120235134D01*
X155575000Y-119986633D01*
X155692611Y-120235134D01*
X156107577Y-120611041D01*
X156495961Y-120771904D01*
X156718000Y-120649915D01*
X156718000Y-119507000D01*
X154432000Y-119507000D01*
X154178000Y-119507000D01*
X154158000Y-119507000D01*
X154158000Y-119253000D01*
X154178000Y-119253000D01*
X154178000Y-118110085D01*
X154432000Y-118110085D01*
X154432000Y-119253000D01*
X156718000Y-119253000D01*
X156718000Y-118110085D01*
X156495961Y-117988096D01*
X156107577Y-118148959D01*
X155692611Y-118524866D01*
X155575000Y-118773367D01*
X155457389Y-118524866D01*
X155042423Y-118148959D01*
X154654039Y-117988096D01*
X154432000Y-118110085D01*
X154178000Y-118110085D01*
X153955961Y-117988096D01*
X153567577Y-118148959D01*
X153152611Y-118524866D01*
X153049986Y-118741703D01*
X152779698Y-118337189D01*
X152314151Y-118026120D01*
X152015823Y-117966779D01*
X159234101Y-110748501D01*
X159398848Y-110501939D01*
X159456700Y-110211100D01*
X159456700Y-110207830D01*
X173493450Y-110207830D01*
X173493450Y-111907090D01*
X173537728Y-112142407D01*
X173676800Y-112358531D01*
X173889000Y-112503521D01*
X174140890Y-112554530D01*
X175840150Y-112554530D01*
X176075467Y-112510252D01*
X176291591Y-112371180D01*
X176436581Y-112158980D01*
X176487590Y-111907090D01*
X176487590Y-110207830D01*
X176443312Y-109972513D01*
X176304240Y-109756389D01*
X176092040Y-109611399D01*
X175840150Y-109560390D01*
X174140890Y-109560390D01*
X173905573Y-109604668D01*
X173689449Y-109743740D01*
X173544459Y-109955940D01*
X173493450Y-110207830D01*
X159456700Y-110207830D01*
X159456700Y-109915496D01*
X159604961Y-109976904D01*
X159827000Y-109854915D01*
X159827000Y-108712000D01*
X160081000Y-108712000D01*
X160081000Y-109854915D01*
X160303039Y-109976904D01*
X160691423Y-109816041D01*
X161106389Y-109440134D01*
X161345914Y-108934041D01*
X161224629Y-108712000D01*
X160081000Y-108712000D01*
X159827000Y-108712000D01*
X159807000Y-108712000D01*
X159807000Y-108458000D01*
X159827000Y-108458000D01*
X159827000Y-108438000D01*
X160081000Y-108438000D01*
X160081000Y-108458000D01*
X161224629Y-108458000D01*
X161345914Y-108235959D01*
X161207976Y-107944510D01*
X163794967Y-107944510D01*
X164085806Y-107886658D01*
X164332368Y-107721911D01*
X166435001Y-105619278D01*
X166599748Y-105372716D01*
X166657600Y-105081877D01*
X166657600Y-103207830D01*
X173493450Y-103207830D01*
X173493450Y-104907090D01*
X173537728Y-105142407D01*
X173676800Y-105358531D01*
X173889000Y-105503521D01*
X174140890Y-105554530D01*
X175840150Y-105554530D01*
X176075467Y-105510252D01*
X176291591Y-105371180D01*
X176436581Y-105158980D01*
X176487590Y-104907090D01*
X176487590Y-103207830D01*
X176443312Y-102972513D01*
X176304240Y-102756389D01*
X176092040Y-102611399D01*
X175840150Y-102560390D01*
X174140890Y-102560390D01*
X173905573Y-102604668D01*
X173689449Y-102743740D01*
X173544459Y-102955940D01*
X173493450Y-103207830D01*
X166657600Y-103207830D01*
X166657600Y-94879078D01*
X172372378Y-94879078D01*
X172401917Y-95389428D01*
X172540389Y-95723729D01*
X172770984Y-95779410D01*
X173490395Y-95060000D01*
X172770984Y-94340590D01*
X172540389Y-94396271D01*
X172372378Y-94879078D01*
X166657600Y-94879078D01*
X166657600Y-94160984D01*
X172950590Y-94160984D01*
X173670000Y-94880395D01*
X174389410Y-94160984D01*
X174333729Y-93930389D01*
X173850922Y-93762378D01*
X173340572Y-93791917D01*
X173006271Y-93930389D01*
X172950590Y-94160984D01*
X166657600Y-94160984D01*
X166657600Y-93444402D01*
X168037758Y-92064244D01*
X171991848Y-92064244D01*
X172066273Y-92138799D01*
X172428171Y-92289072D01*
X172820028Y-92289414D01*
X173182188Y-92139773D01*
X173459514Y-91862930D01*
X173609787Y-91501032D01*
X173610029Y-91223874D01*
X173859757Y-91223874D01*
X173934182Y-91298429D01*
X174296080Y-91448702D01*
X174687937Y-91449044D01*
X174905000Y-91359356D01*
X174905000Y-94650703D01*
X174799611Y-94396271D01*
X174569016Y-94340590D01*
X173849605Y-95060000D01*
X174569016Y-95779410D01*
X174799611Y-95723729D01*
X174905000Y-95420877D01*
X174905000Y-96311289D01*
X174768430Y-96447859D01*
X174571890Y-96313569D01*
X174320000Y-96262560D01*
X174157615Y-96262560D01*
X174333729Y-96189611D01*
X174389410Y-95959016D01*
X173670000Y-95239605D01*
X172950590Y-95959016D01*
X173006271Y-96189611D01*
X173215902Y-96262560D01*
X173020000Y-96262560D01*
X172784683Y-96306838D01*
X172568559Y-96445910D01*
X172423569Y-96658110D01*
X172372560Y-96910000D01*
X172372560Y-98210000D01*
X172416838Y-98445317D01*
X172555910Y-98661441D01*
X172768110Y-98806431D01*
X173020000Y-98857440D01*
X174320000Y-98857440D01*
X174555317Y-98813162D01*
X174771441Y-98674090D01*
X174825481Y-98595000D01*
X175119995Y-98595000D01*
X175120000Y-98595001D01*
X175516077Y-98516215D01*
X175851856Y-98291856D01*
X176671853Y-97471858D01*
X176671856Y-97471856D01*
X176896215Y-97136077D01*
X176905808Y-97087852D01*
X176975001Y-96740000D01*
X176975000Y-96739995D01*
X176975000Y-93045750D01*
X177410000Y-93045750D01*
X177410000Y-93486309D01*
X177506673Y-93719698D01*
X177685301Y-93898327D01*
X177918690Y-93995000D01*
X178359250Y-93995000D01*
X178518000Y-93836250D01*
X178518000Y-92887000D01*
X178772000Y-92887000D01*
X178772000Y-93836250D01*
X178930750Y-93995000D01*
X179371310Y-93995000D01*
X179604699Y-93898327D01*
X179783327Y-93719698D01*
X179880000Y-93486309D01*
X179880000Y-93045750D01*
X179721250Y-92887000D01*
X178772000Y-92887000D01*
X178518000Y-92887000D01*
X177568750Y-92887000D01*
X177410000Y-93045750D01*
X176975000Y-93045750D01*
X176975000Y-92033691D01*
X177410000Y-92033691D01*
X177410000Y-92474250D01*
X177568750Y-92633000D01*
X178518000Y-92633000D01*
X178518000Y-91683750D01*
X178772000Y-91683750D01*
X178772000Y-92633000D01*
X179721250Y-92633000D01*
X179880000Y-92474250D01*
X179880000Y-92033691D01*
X179783327Y-91800302D01*
X179604699Y-91621673D01*
X179371310Y-91525000D01*
X178930750Y-91525000D01*
X178772000Y-91683750D01*
X178518000Y-91683750D01*
X178359250Y-91525000D01*
X177918690Y-91525000D01*
X177685301Y-91621673D01*
X177506673Y-91800302D01*
X177410000Y-92033691D01*
X176975000Y-92033691D01*
X176975000Y-91628712D01*
X177308711Y-91295000D01*
X177933164Y-91295000D01*
X177944515Y-91306371D01*
X178398266Y-91494785D01*
X178889579Y-91495214D01*
X179343657Y-91307592D01*
X179691371Y-90960485D01*
X179879785Y-90506734D01*
X179880214Y-90015421D01*
X179692592Y-89561343D01*
X179446680Y-89315000D01*
X194397560Y-89315000D01*
X194397560Y-91065000D01*
X194441838Y-91300317D01*
X194580910Y-91516441D01*
X194793110Y-91661431D01*
X194809676Y-91664786D01*
X194640630Y-91833537D01*
X194410262Y-92388325D01*
X194409738Y-92989040D01*
X194639138Y-93544229D01*
X195063537Y-93969370D01*
X195618325Y-94199738D01*
X196219040Y-94200262D01*
X196774229Y-93970862D01*
X197199370Y-93546463D01*
X197429738Y-92991675D01*
X197430262Y-92390960D01*
X197200862Y-91835771D01*
X197032283Y-91666897D01*
X197246441Y-91529090D01*
X197391431Y-91316890D01*
X197442440Y-91065000D01*
X197442440Y-89315000D01*
X197398162Y-89079683D01*
X197259090Y-88863559D01*
X197046890Y-88718569D01*
X196795000Y-88667560D01*
X195045000Y-88667560D01*
X194809683Y-88711838D01*
X194593559Y-88850910D01*
X194448569Y-89063110D01*
X194397560Y-89315000D01*
X179446680Y-89315000D01*
X179345485Y-89213629D01*
X178891734Y-89025215D01*
X178400421Y-89024786D01*
X177946343Y-89212408D01*
X177933729Y-89225000D01*
X176880005Y-89225000D01*
X176880000Y-89224999D01*
X176483923Y-89303785D01*
X176148144Y-89528144D01*
X176148142Y-89528147D01*
X175457409Y-90218879D01*
X175328397Y-89906645D01*
X175051554Y-89629319D01*
X174689656Y-89479046D01*
X174297799Y-89478704D01*
X173935639Y-89628345D01*
X173859978Y-89703874D01*
X171160128Y-89703874D01*
X175388501Y-85475501D01*
X175553248Y-85228940D01*
X175611100Y-84938100D01*
X175611100Y-83864553D01*
X175623538Y-83894655D01*
X176082927Y-84354846D01*
X176683453Y-84604206D01*
X177333694Y-84604774D01*
X177934655Y-84356462D01*
X178394846Y-83897073D01*
X178644206Y-83296547D01*
X178644208Y-83293694D01*
X195375226Y-83293694D01*
X195623538Y-83894655D01*
X196082927Y-84354846D01*
X196683453Y-84604206D01*
X197333694Y-84604774D01*
X197934655Y-84356462D01*
X198394846Y-83897073D01*
X198644206Y-83296547D01*
X198644774Y-82646306D01*
X198396462Y-82045345D01*
X197937073Y-81585154D01*
X197336547Y-81335794D01*
X196686306Y-81335226D01*
X196085345Y-81583538D01*
X195625154Y-82042927D01*
X195375794Y-82643453D01*
X195375226Y-83293694D01*
X178644208Y-83293694D01*
X178644774Y-82646306D01*
X178396462Y-82045345D01*
X177937073Y-81585154D01*
X177336547Y-81335794D01*
X176686306Y-81335226D01*
X176085345Y-81583538D01*
X175625154Y-82042927D01*
X175611100Y-82076773D01*
X175611100Y-77391602D01*
X176218002Y-76784700D01*
X184490660Y-76784700D01*
X184490660Y-78816700D01*
X184534938Y-79052017D01*
X184674010Y-79268141D01*
X184886210Y-79413131D01*
X185138100Y-79464140D01*
X187170100Y-79464140D01*
X187405417Y-79419862D01*
X187621541Y-79280790D01*
X187723298Y-79131863D01*
X188062290Y-79358370D01*
X188694100Y-79484045D01*
X189325910Y-79358370D01*
X189861533Y-79000478D01*
X190219425Y-78464855D01*
X190345100Y-77833045D01*
X190345100Y-77768355D01*
X190219425Y-77136545D01*
X189861533Y-76600922D01*
X189384477Y-76282163D01*
X195037443Y-76282163D01*
X195136042Y-76548965D01*
X195745582Y-76775401D01*
X196395377Y-76751341D01*
X196883958Y-76548965D01*
X196982557Y-76282163D01*
X196010000Y-75309605D01*
X195037443Y-76282163D01*
X189384477Y-76282163D01*
X189325910Y-76243030D01*
X188694100Y-76117355D01*
X188062290Y-76243030D01*
X187722308Y-76470199D01*
X187634190Y-76333259D01*
X187421990Y-76188269D01*
X187170100Y-76137260D01*
X185138100Y-76137260D01*
X184902783Y-76181538D01*
X184686659Y-76320610D01*
X184541669Y-76532810D01*
X184490660Y-76784700D01*
X176218002Y-76784700D01*
X178137120Y-74865582D01*
X194364599Y-74865582D01*
X194388659Y-75515377D01*
X194591035Y-76003958D01*
X194857837Y-76102557D01*
X195830395Y-75130000D01*
X196189605Y-75130000D01*
X197162163Y-76102557D01*
X197428965Y-76003958D01*
X197655401Y-75394418D01*
X197631341Y-74744623D01*
X197428965Y-74256042D01*
X197162163Y-74157443D01*
X196189605Y-75130000D01*
X195830395Y-75130000D01*
X194857837Y-74157443D01*
X194591035Y-74256042D01*
X194364599Y-74865582D01*
X178137120Y-74865582D01*
X179024865Y-73977837D01*
X195037443Y-73977837D01*
X196010000Y-74950395D01*
X196982557Y-73977837D01*
X196883958Y-73711035D01*
X196274418Y-73484599D01*
X195624623Y-73508659D01*
X195136042Y-73711035D01*
X195037443Y-73977837D01*
X179024865Y-73977837D01*
X180322102Y-72680600D01*
X192923200Y-72680600D01*
X193214039Y-72622748D01*
X193460601Y-72458001D01*
X196559401Y-69359201D01*
X196724148Y-69112639D01*
X196782000Y-68821800D01*
X196782000Y-66419538D01*
X196934655Y-66356462D01*
X197394846Y-65897073D01*
X197644206Y-65296547D01*
X197644774Y-64646306D01*
X197396462Y-64045345D01*
X196937073Y-63585154D01*
X196336547Y-63335794D01*
X195686306Y-63335226D01*
X195085345Y-63583538D01*
X194625154Y-64042927D01*
X194555779Y-64210000D01*
X194275702Y-64210000D01*
X193955901Y-63890199D01*
X193709339Y-63725452D01*
X193418500Y-63667600D01*
X192954030Y-63667600D01*
X192710485Y-63423629D01*
X192256734Y-63235215D01*
X191765421Y-63234786D01*
X191311343Y-63422408D01*
X190963629Y-63769515D01*
X190775215Y-64223266D01*
X190774786Y-64714579D01*
X190962408Y-65168657D01*
X191309515Y-65516371D01*
X191763266Y-65704785D01*
X192254579Y-65705214D01*
X192708657Y-65517592D01*
X193031149Y-65195663D01*
X193071685Y-65187600D01*
X193103698Y-65187600D01*
X193423499Y-65507401D01*
X193670060Y-65672148D01*
X193716292Y-65681344D01*
X193960900Y-65730000D01*
X194555504Y-65730000D01*
X194623538Y-65894655D01*
X195082927Y-66354846D01*
X195258831Y-66427888D01*
X195262000Y-66443820D01*
X195262000Y-68506998D01*
X192608398Y-71160600D01*
X180007300Y-71160600D01*
X179716461Y-71218452D01*
X179469899Y-71383199D01*
X174313699Y-76539399D01*
X174148952Y-76785961D01*
X174091100Y-77076800D01*
X174091100Y-84623298D01*
X170116698Y-88597700D01*
X165440400Y-88597700D01*
X165149561Y-88655552D01*
X164902999Y-88820299D01*
X161773298Y-91950000D01*
X130117995Y-91950000D01*
X129947811Y-91695302D01*
X129565725Y-91440000D01*
X129947811Y-91184698D01*
X130258880Y-90719151D01*
X130368113Y-90170000D01*
X130258880Y-89620849D01*
X129947811Y-89155302D01*
X129565725Y-88900000D01*
X129947811Y-88644698D01*
X130258880Y-88179151D01*
X130368113Y-87630000D01*
X130333017Y-87453562D01*
X135430579Y-82356000D01*
X136966995Y-82356000D01*
X136967000Y-82356001D01*
X137249484Y-82299810D01*
X137305675Y-82288633D01*
X137592790Y-82096790D01*
X138190200Y-81499380D01*
X138190200Y-83625225D01*
X138179999Y-83676508D01*
X138180000Y-83676513D01*
X138180000Y-83687153D01*
X138140345Y-83703538D01*
X137680154Y-84162927D01*
X137430794Y-84763453D01*
X137430226Y-85413694D01*
X137678538Y-86014655D01*
X138137927Y-86474846D01*
X138738453Y-86724206D01*
X139388694Y-86724774D01*
X139989655Y-86476462D01*
X140449846Y-86017073D01*
X140652691Y-85528568D01*
X140853538Y-86014655D01*
X141312927Y-86474846D01*
X141913453Y-86724206D01*
X142563694Y-86724774D01*
X143164655Y-86476462D01*
X143624846Y-86017073D01*
X143827691Y-85528568D01*
X144028538Y-86014655D01*
X144487927Y-86474846D01*
X145088453Y-86724206D01*
X145738694Y-86724774D01*
X146339655Y-86476462D01*
X146799846Y-86017073D01*
X147002691Y-85528568D01*
X147203538Y-86014655D01*
X147662927Y-86474846D01*
X148263453Y-86724206D01*
X148913694Y-86724774D01*
X149514655Y-86476462D01*
X149974846Y-86017073D01*
X150177691Y-85528568D01*
X150378538Y-86014655D01*
X150837927Y-86474846D01*
X151438453Y-86724206D01*
X152088694Y-86724774D01*
X152689655Y-86476462D01*
X153149846Y-86017073D01*
X153352691Y-85528568D01*
X153553538Y-86014655D01*
X154012927Y-86474846D01*
X154613453Y-86724206D01*
X155263694Y-86724774D01*
X155864655Y-86476462D01*
X156324846Y-86017073D01*
X156527691Y-85528568D01*
X156728538Y-86014655D01*
X157187927Y-86474846D01*
X157788453Y-86724206D01*
X158438694Y-86724774D01*
X159039655Y-86476462D01*
X159499846Y-86017073D01*
X159702691Y-85528568D01*
X159903538Y-86014655D01*
X160362927Y-86474846D01*
X160963453Y-86724206D01*
X161613694Y-86724774D01*
X162214655Y-86476462D01*
X162674846Y-86017073D01*
X162924206Y-85416547D01*
X162924774Y-84766306D01*
X162676462Y-84165345D01*
X162217073Y-83705154D01*
X161616547Y-83455794D01*
X160966306Y-83455226D01*
X160365345Y-83703538D01*
X159905154Y-84162927D01*
X159702309Y-84651432D01*
X159501462Y-84165345D01*
X159042073Y-83705154D01*
X158441547Y-83455794D01*
X157791306Y-83455226D01*
X157190345Y-83703538D01*
X156730154Y-84162927D01*
X156527309Y-84651432D01*
X156326462Y-84165345D01*
X155867073Y-83705154D01*
X155266547Y-83455794D01*
X154616306Y-83455226D01*
X154015345Y-83703538D01*
X153555154Y-84162927D01*
X153352309Y-84651432D01*
X153151462Y-84165345D01*
X152692073Y-83705154D01*
X152091547Y-83455794D01*
X151441306Y-83455226D01*
X150840345Y-83703538D01*
X150380154Y-84162927D01*
X150177309Y-84651432D01*
X149976462Y-84165345D01*
X149517073Y-83705154D01*
X148916547Y-83455794D01*
X148266306Y-83455226D01*
X147665345Y-83703538D01*
X147205154Y-84162927D01*
X147002309Y-84651432D01*
X146801462Y-84165345D01*
X146342073Y-83705154D01*
X145741547Y-83455794D01*
X145091306Y-83455226D01*
X144490345Y-83703538D01*
X144030154Y-84162927D01*
X143827309Y-84651432D01*
X143626462Y-84165345D01*
X143167073Y-83705154D01*
X143125000Y-83687684D01*
X143125000Y-83676513D01*
X143125001Y-83676508D01*
X143109800Y-83600089D01*
X143109800Y-79640480D01*
X143637987Y-79112292D01*
X143637990Y-79112290D01*
X143829833Y-78825175D01*
X143889815Y-78523629D01*
X143897201Y-78486500D01*
X143897200Y-78486495D01*
X143897200Y-71082836D01*
X143903000Y-71082836D01*
X143903000Y-72157164D01*
X144009340Y-72691773D01*
X144312172Y-73144992D01*
X144415000Y-73213700D01*
X144415000Y-73941695D01*
X144414999Y-73941700D01*
X144457914Y-74157443D01*
X144482367Y-74280375D01*
X144630825Y-74502559D01*
X144674210Y-74567490D01*
X145345860Y-75239139D01*
X145210029Y-75239021D01*
X144829485Y-75396258D01*
X144538081Y-75687154D01*
X144380180Y-76067423D01*
X144379821Y-76479171D01*
X144537058Y-76859715D01*
X144827954Y-77151119D01*
X145208223Y-77309020D01*
X145619971Y-77309379D01*
X145983433Y-77159200D01*
X152261715Y-77159200D01*
X152622523Y-77309020D01*
X153034271Y-77309379D01*
X153397733Y-77159200D01*
X165671495Y-77159200D01*
X165671500Y-77159201D01*
X165953984Y-77103010D01*
X166010175Y-77091833D01*
X166297290Y-76899990D01*
X167545787Y-75651492D01*
X167545790Y-75651490D01*
X167737633Y-75364375D01*
X167766420Y-75219655D01*
X167805001Y-75025700D01*
X167805000Y-75025695D01*
X167805000Y-73213700D01*
X167907828Y-73144992D01*
X168190000Y-72722693D01*
X168472172Y-73144992D01*
X168925391Y-73447824D01*
X169460000Y-73554164D01*
X169994609Y-73447824D01*
X170447828Y-73144992D01*
X170750660Y-72691773D01*
X170857000Y-72157164D01*
X170857000Y-71082836D01*
X170750660Y-70548227D01*
X170447828Y-70095008D01*
X169994609Y-69792176D01*
X169460000Y-69685836D01*
X168925391Y-69792176D01*
X168472172Y-70095008D01*
X168190000Y-70517307D01*
X167907828Y-70095008D01*
X167454609Y-69792176D01*
X166920000Y-69685836D01*
X166385391Y-69792176D01*
X165932172Y-70095008D01*
X165650000Y-70517307D01*
X165367828Y-70095008D01*
X164914609Y-69792176D01*
X164380000Y-69685836D01*
X163845391Y-69792176D01*
X163392172Y-70095008D01*
X163110000Y-70517307D01*
X162827828Y-70095008D01*
X162675000Y-69992891D01*
X162675000Y-69958000D01*
X162611439Y-69638459D01*
X162430434Y-69367566D01*
X160712434Y-67649566D01*
X160683151Y-67630000D01*
X160441541Y-67468561D01*
X160122000Y-67405000D01*
X148397614Y-67405000D01*
X148036788Y-67255172D01*
X147644931Y-67254830D01*
X147282771Y-67404471D01*
X147005445Y-67681314D01*
X146855172Y-68043212D01*
X146854909Y-68345000D01*
X146078000Y-68345000D01*
X145758459Y-68408561D01*
X145575275Y-68530961D01*
X145487566Y-68589566D01*
X144709566Y-69367566D01*
X144528561Y-69638459D01*
X144465000Y-69958000D01*
X144465000Y-69992891D01*
X144312172Y-70095008D01*
X144009340Y-70548227D01*
X143903000Y-71082836D01*
X143897200Y-71082836D01*
X143897200Y-65899016D01*
X180290590Y-65899016D01*
X180346271Y-66129611D01*
X180829078Y-66297622D01*
X181339428Y-66268083D01*
X181673729Y-66129611D01*
X181729410Y-65899016D01*
X181010000Y-65179605D01*
X180290590Y-65899016D01*
X143897200Y-65899016D01*
X143897200Y-64819078D01*
X179712378Y-64819078D01*
X179741917Y-65329428D01*
X179880389Y-65663729D01*
X180110984Y-65719410D01*
X180830395Y-65000000D01*
X181189605Y-65000000D01*
X181909016Y-65719410D01*
X182139611Y-65663729D01*
X182282024Y-65254481D01*
X184724777Y-65254481D01*
X184919995Y-65726943D01*
X185281155Y-66088735D01*
X185753276Y-66284777D01*
X186220383Y-66285185D01*
X187442599Y-67507401D01*
X187689161Y-67672148D01*
X187980000Y-67730000D01*
X190792666Y-67730000D01*
X190806838Y-67805317D01*
X190945910Y-68021441D01*
X191158110Y-68166431D01*
X191410000Y-68217440D01*
X192610000Y-68217440D01*
X192845317Y-68173162D01*
X193061441Y-68034090D01*
X193206431Y-67821890D01*
X193257440Y-67570000D01*
X193257440Y-66370000D01*
X193213162Y-66134683D01*
X193074090Y-65918559D01*
X192861890Y-65773569D01*
X192610000Y-65722560D01*
X191410000Y-65722560D01*
X191174683Y-65766838D01*
X190958559Y-65905910D01*
X190813569Y-66118110D01*
X190794961Y-66210000D01*
X188294802Y-66210000D01*
X187294818Y-65210016D01*
X187295223Y-64745519D01*
X187100005Y-64273057D01*
X186738845Y-63911265D01*
X186266724Y-63715223D01*
X185755519Y-63714777D01*
X185283057Y-63909995D01*
X184921265Y-64271155D01*
X184725223Y-64743276D01*
X184724777Y-65254481D01*
X182282024Y-65254481D01*
X182307622Y-65180922D01*
X182278083Y-64670572D01*
X182139611Y-64336271D01*
X181909016Y-64280590D01*
X181189605Y-65000000D01*
X180830395Y-65000000D01*
X180110984Y-64280590D01*
X179880389Y-64336271D01*
X179712378Y-64819078D01*
X143897200Y-64819078D01*
X143897200Y-64100984D01*
X180290590Y-64100984D01*
X181010000Y-64820395D01*
X181729410Y-64100984D01*
X181673729Y-63870389D01*
X181190922Y-63702378D01*
X180680572Y-63731917D01*
X180346271Y-63870389D01*
X180290590Y-64100984D01*
X143897200Y-64100984D01*
X143897200Y-63574980D01*
X144610679Y-62861500D01*
X154807210Y-62861500D01*
X154807215Y-62861501D01*
X154807220Y-62861500D01*
X155102176Y-62861500D01*
X155253223Y-62924220D01*
X155664971Y-62924579D01*
X155817634Y-62861500D01*
X168361395Y-62861500D01*
X168361400Y-62861501D01*
X168643884Y-62805310D01*
X168700075Y-62794133D01*
X168987190Y-62602290D01*
X168987191Y-62602289D01*
X170085787Y-61503692D01*
X170085790Y-61503690D01*
X170277633Y-61216575D01*
X170302512Y-61091500D01*
X170345001Y-60877900D01*
X170345000Y-60877895D01*
X170345000Y-57973700D01*
X170447828Y-57904992D01*
X170750660Y-57451773D01*
X170857000Y-56917164D01*
X170857000Y-55842836D01*
X170750660Y-55308227D01*
X170447828Y-54855008D01*
X169994609Y-54552176D01*
X169460000Y-54445836D01*
X168925391Y-54552176D01*
X168472172Y-54855008D01*
X168190000Y-55277307D01*
X167907828Y-54855008D01*
X167454609Y-54552176D01*
X166920000Y-54445836D01*
X166385391Y-54552176D01*
X165932172Y-54855008D01*
X165650000Y-55277307D01*
X165367828Y-54855008D01*
X164914609Y-54552176D01*
X164380000Y-54445836D01*
X163845391Y-54552176D01*
X163392172Y-54855008D01*
X163110000Y-55277307D01*
X162827828Y-54855008D01*
X162374609Y-54552176D01*
X161840000Y-54445836D01*
X161305391Y-54552176D01*
X160852172Y-54855008D01*
X160570000Y-55277307D01*
X160287828Y-54855008D01*
X159834609Y-54552176D01*
X159300000Y-54445836D01*
X159147708Y-54476129D01*
X158195790Y-53524210D01*
X158194699Y-53523481D01*
X157908675Y-53332367D01*
X157852484Y-53321190D01*
X157570000Y-53264999D01*
X157569995Y-53265000D01*
X147030000Y-53265000D01*
X146691325Y-53332367D01*
X146404210Y-53524210D01*
X146404208Y-53524213D01*
X145452292Y-54476129D01*
X145300000Y-54445836D01*
X144765391Y-54552176D01*
X144312172Y-54855008D01*
X144009340Y-55308227D01*
X143903000Y-55842836D01*
X143903000Y-56917164D01*
X144009340Y-57451773D01*
X144095019Y-57580001D01*
X141050004Y-57580001D01*
X141049999Y-57580000D01*
X140767515Y-57636191D01*
X140711324Y-57647368D01*
X140424209Y-57839211D01*
X140424207Y-57839214D01*
X139262210Y-59001210D01*
X139070367Y-59288325D01*
X139070367Y-59288326D01*
X139002999Y-59627000D01*
X139003000Y-59627005D01*
X139003000Y-63031571D01*
X138722073Y-62750154D01*
X138121547Y-62500794D01*
X137471306Y-62500226D01*
X136870345Y-62748538D01*
X136410154Y-63207927D01*
X136207309Y-63696432D01*
X136006462Y-63210345D01*
X135547073Y-62750154D01*
X134946547Y-62500794D01*
X134296306Y-62500226D01*
X133695345Y-62748538D01*
X133235154Y-63207927D01*
X133032309Y-63696432D01*
X132831462Y-63210345D01*
X132372073Y-62750154D01*
X131771547Y-62500794D01*
X131121306Y-62500226D01*
X130520345Y-62748538D01*
X130060154Y-63207927D01*
X129810794Y-63808453D01*
X129810226Y-64458694D01*
X130058538Y-65059655D01*
X130517927Y-65519846D01*
X131118453Y-65769206D01*
X131768694Y-65769774D01*
X132369655Y-65521462D01*
X132829846Y-65062073D01*
X133032691Y-64573568D01*
X133233538Y-65059655D01*
X133692927Y-65519846D01*
X134293453Y-65769206D01*
X134943694Y-65769774D01*
X135544655Y-65521462D01*
X136004846Y-65062073D01*
X136207691Y-64573568D01*
X136408538Y-65059655D01*
X136867927Y-65519846D01*
X137468453Y-65769206D01*
X138118694Y-65769774D01*
X138719655Y-65521462D01*
X139003000Y-65238611D01*
X139003000Y-73191571D01*
X138722073Y-72910154D01*
X138121547Y-72660794D01*
X137471306Y-72660226D01*
X136870345Y-72908538D01*
X136410154Y-73367927D01*
X136207309Y-73856432D01*
X136006462Y-73370345D01*
X135547073Y-72910154D01*
X134946547Y-72660794D01*
X134296306Y-72660226D01*
X133695345Y-72908538D01*
X133235154Y-73367927D01*
X133032309Y-73856432D01*
X132831462Y-73370345D01*
X132372073Y-72910154D01*
X131771547Y-72660794D01*
X131121306Y-72660226D01*
X130520345Y-72908538D01*
X130060154Y-73367927D01*
X129810794Y-73968453D01*
X129810226Y-74618694D01*
X130058538Y-75219655D01*
X130517927Y-75679846D01*
X131118453Y-75929206D01*
X131768694Y-75929774D01*
X132369655Y-75681462D01*
X132829846Y-75222073D01*
X133032691Y-74733568D01*
X133233538Y-75219655D01*
X133692927Y-75679846D01*
X134293453Y-75929206D01*
X134943694Y-75929774D01*
X135544655Y-75681462D01*
X136004846Y-75222073D01*
X136207691Y-74733568D01*
X136408538Y-75219655D01*
X136867927Y-75679846D01*
X137468453Y-75929206D01*
X138118694Y-75929774D01*
X138719655Y-75681462D01*
X139003000Y-75398611D01*
X139003000Y-76532421D01*
X135846410Y-79689010D01*
X133420990Y-79689010D01*
X133082315Y-79756377D01*
X132795200Y-79948220D01*
X132795198Y-79948223D01*
X129062653Y-83680767D01*
X128933113Y-83655000D01*
X128876887Y-83655000D01*
X128327736Y-83764233D01*
X127862189Y-84075302D01*
X127551120Y-84540849D01*
X127441887Y-85090000D01*
X127551120Y-85639151D01*
X127862189Y-86104698D01*
X128244275Y-86360000D01*
X127862189Y-86615302D01*
X127551120Y-87080849D01*
X127441887Y-87630000D01*
X127551120Y-88179151D01*
X127862189Y-88644698D01*
X128244275Y-88900000D01*
X127862189Y-89155302D01*
X127551120Y-89620849D01*
X127441887Y-90170000D01*
X127551120Y-90719151D01*
X127862189Y-91184698D01*
X128244275Y-91440000D01*
X127862189Y-91695302D01*
X127551120Y-92160849D01*
X127441887Y-92710000D01*
X127551120Y-93259151D01*
X127862189Y-93724698D01*
X128244275Y-93980000D01*
X127862189Y-94235302D01*
X127551120Y-94700849D01*
X127441887Y-95250000D01*
X127551120Y-95799151D01*
X127862189Y-96264698D01*
X128244275Y-96520000D01*
X127862189Y-96775302D01*
X127551120Y-97240849D01*
X127441887Y-97790000D01*
X127551120Y-98339151D01*
X127862189Y-98804698D01*
X128244275Y-99060000D01*
X127862189Y-99315302D01*
X127551120Y-99780849D01*
X127441887Y-100330000D01*
X127551120Y-100879151D01*
X127862189Y-101344698D01*
X128244275Y-101600000D01*
X127862189Y-101855302D01*
X127551120Y-102320849D01*
X127441887Y-102870000D01*
X127551120Y-103419151D01*
X127862189Y-103884698D01*
X128266703Y-104154986D01*
X128049866Y-104257611D01*
X127673959Y-104672577D01*
X127513096Y-105060961D01*
X127635085Y-105283000D01*
X128778000Y-105283000D01*
X128778000Y-105263000D01*
X129032000Y-105263000D01*
X129032000Y-105283000D01*
X130174915Y-105283000D01*
X130296904Y-105060961D01*
X130136041Y-104672577D01*
X129760134Y-104257611D01*
X129543297Y-104154986D01*
X129947811Y-103884698D01*
X130258880Y-103419151D01*
X130368113Y-102870000D01*
X130258880Y-102320849D01*
X129947811Y-101855302D01*
X129565725Y-101600000D01*
X129947811Y-101344698D01*
X130258880Y-100879151D01*
X130368113Y-100330000D01*
X130258880Y-99780849D01*
X129947811Y-99315302D01*
X129565725Y-99060000D01*
X129947811Y-98804698D01*
X130258880Y-98339151D01*
X130368113Y-97790000D01*
X130258880Y-97240849D01*
X129947811Y-96775302D01*
X129565725Y-96520000D01*
X129947811Y-96264698D01*
X130258880Y-95799151D01*
X130368113Y-95250000D01*
X130258880Y-94700849D01*
X129947811Y-94235302D01*
X129565725Y-93980000D01*
X129947811Y-93724698D01*
X130117995Y-93470000D01*
X139879993Y-93470000D01*
X139879850Y-93634079D01*
X139971860Y-93856761D01*
X139391547Y-93615794D01*
X138741306Y-93615226D01*
X138140345Y-93863538D01*
X137680154Y-94322927D01*
X137430794Y-94923453D01*
X137430226Y-95573694D01*
X137678538Y-96174655D01*
X138137927Y-96634846D01*
X138305000Y-96704221D01*
X138305000Y-97793000D01*
X138362852Y-98083839D01*
X138527599Y-98330401D01*
X138874000Y-98676802D01*
X138874000Y-99752005D01*
X138619302Y-99922189D01*
X138308233Y-100387736D01*
X138199000Y-100936887D01*
X138199000Y-100993113D01*
X138308233Y-101542264D01*
X138619302Y-102007811D01*
X139084849Y-102318880D01*
X139634000Y-102428113D01*
X140183151Y-102318880D01*
X140648698Y-102007811D01*
X140904000Y-101625725D01*
X141159302Y-102007811D01*
X141624849Y-102318880D01*
X142174000Y-102428113D01*
X142723151Y-102318880D01*
X143188698Y-102007811D01*
X143444000Y-101625725D01*
X143699302Y-102007811D01*
X144164849Y-102318880D01*
X144714000Y-102428113D01*
X145263151Y-102318880D01*
X145728698Y-102007811D01*
X145984000Y-101625725D01*
X146239302Y-102007811D01*
X146704849Y-102318880D01*
X147254000Y-102428113D01*
X147803151Y-102318880D01*
X148268698Y-102007811D01*
X148524000Y-101625725D01*
X148779302Y-102007811D01*
X149244849Y-102318880D01*
X149794000Y-102428113D01*
X150343151Y-102318880D01*
X150808698Y-102007811D01*
X151064000Y-101625725D01*
X151319302Y-102007811D01*
X151784849Y-102318880D01*
X152334000Y-102428113D01*
X152883151Y-102318880D01*
X153348698Y-102007811D01*
X153604000Y-101625725D01*
X153859302Y-102007811D01*
X154324849Y-102318880D01*
X154874000Y-102428113D01*
X155423151Y-102318880D01*
X155888698Y-102007811D01*
X156144000Y-101625725D01*
X156399302Y-102007811D01*
X156864849Y-102318880D01*
X157414000Y-102428113D01*
X157963151Y-102318880D01*
X158428698Y-102007811D01*
X158684000Y-101625725D01*
X158939302Y-102007811D01*
X159404849Y-102318880D01*
X159954000Y-102428113D01*
X160503151Y-102318880D01*
X160968698Y-102007811D01*
X161279767Y-101542264D01*
X161389000Y-100993113D01*
X161389000Y-100936887D01*
X161279767Y-100387736D01*
X160968698Y-99922189D01*
X160503151Y-99611120D01*
X159954000Y-99501887D01*
X159872754Y-99518048D01*
X161827401Y-97563401D01*
X161992148Y-97316840D01*
X162050000Y-97026000D01*
X162050000Y-96704496D01*
X162214655Y-96636462D01*
X162674846Y-96177073D01*
X162924206Y-95576547D01*
X162924774Y-94926306D01*
X162676462Y-94325345D01*
X162217073Y-93865154D01*
X161616547Y-93615794D01*
X160966306Y-93615226D01*
X160365345Y-93863538D01*
X159905154Y-94322927D01*
X159702309Y-94811432D01*
X159501462Y-94325345D01*
X159042073Y-93865154D01*
X158441547Y-93615794D01*
X157791306Y-93615226D01*
X157190345Y-93863538D01*
X156730154Y-94322927D01*
X156527309Y-94811432D01*
X156326462Y-94325345D01*
X155867073Y-93865154D01*
X155266547Y-93615794D01*
X154616306Y-93615226D01*
X154015345Y-93863538D01*
X153555154Y-94322927D01*
X153352309Y-94811432D01*
X153151462Y-94325345D01*
X152692073Y-93865154D01*
X152091547Y-93615794D01*
X151441306Y-93615226D01*
X150840345Y-93863538D01*
X150380154Y-94322927D01*
X150177309Y-94811432D01*
X149976462Y-94325345D01*
X149517073Y-93865154D01*
X148916547Y-93615794D01*
X148266306Y-93615226D01*
X147665345Y-93863538D01*
X147205154Y-94322927D01*
X147002309Y-94811432D01*
X146801462Y-94325345D01*
X146342073Y-93865154D01*
X145741547Y-93615794D01*
X145091306Y-93615226D01*
X144490345Y-93863538D01*
X144030154Y-94322927D01*
X143827309Y-94811432D01*
X143626462Y-94325345D01*
X143167073Y-93865154D01*
X142566547Y-93615794D01*
X141916306Y-93615226D01*
X141846396Y-93644112D01*
X141849848Y-93635798D01*
X141849993Y-93470000D01*
X162088100Y-93470000D01*
X162378939Y-93412148D01*
X162625501Y-93247401D01*
X165755202Y-90117700D01*
X166894898Y-90117700D01*
X164775999Y-92236599D01*
X164611252Y-92483161D01*
X164553400Y-92774000D01*
X164553400Y-104625798D01*
X163258698Y-105920500D01*
X156804400Y-105920500D01*
X156513561Y-105978352D01*
X156266999Y-106143099D01*
X155644699Y-106765399D01*
X155479952Y-107011961D01*
X155434809Y-107238909D01*
X155423151Y-107231120D01*
X154874000Y-107121887D01*
X154324849Y-107231120D01*
X153859302Y-107542189D01*
X153604000Y-107924275D01*
X153348698Y-107542189D01*
X152883151Y-107231120D01*
X152334000Y-107121887D01*
X151784849Y-107231120D01*
X151319302Y-107542189D01*
X151064000Y-107924275D01*
X150808698Y-107542189D01*
X150343151Y-107231120D01*
X149794000Y-107121887D01*
X149244849Y-107231120D01*
X148779302Y-107542189D01*
X148524000Y-107924275D01*
X148268698Y-107542189D01*
X147803151Y-107231120D01*
X147254000Y-107121887D01*
X146704849Y-107231120D01*
X146239302Y-107542189D01*
X145984000Y-107924275D01*
X145728698Y-107542189D01*
X145263151Y-107231120D01*
X144714000Y-107121887D01*
X144164849Y-107231120D01*
X143699302Y-107542189D01*
X143444000Y-107924275D01*
X143188698Y-107542189D01*
X142723151Y-107231120D01*
X142174000Y-107121887D01*
X141624849Y-107231120D01*
X141159302Y-107542189D01*
X140904000Y-107924275D01*
X140648698Y-107542189D01*
X140183151Y-107231120D01*
X139634000Y-107121887D01*
X139084849Y-107231120D01*
X138619302Y-107542189D01*
X138308233Y-108007736D01*
X138199000Y-108556887D01*
X138199000Y-108613113D01*
X138308233Y-109162264D01*
X138619302Y-109627811D01*
X138874000Y-109797995D01*
X138874000Y-110162998D01*
X137401998Y-111635000D01*
X109229520Y-111635000D01*
X109009670Y-111305971D01*
X108523489Y-110981115D01*
X107950000Y-110867041D01*
X107376511Y-110981115D01*
X106890330Y-111305971D01*
X106674336Y-111629228D01*
X106616821Y-111506510D01*
X106184947Y-111112312D01*
X105769026Y-110940042D01*
X105537000Y-111061183D01*
X105537000Y-112268000D01*
X105557000Y-112268000D01*
X105557000Y-112522000D01*
X105537000Y-112522000D01*
X105537000Y-112542000D01*
X105283000Y-112542000D01*
X105283000Y-112522000D01*
X104075531Y-112522000D01*
X103955032Y-112754027D01*
X104203179Y-113283490D01*
X104621161Y-113665008D01*
X104350330Y-113845971D01*
X104025474Y-114332152D01*
X103911400Y-114905641D01*
X101137000Y-114905641D01*
X101137000Y-112035973D01*
X103955032Y-112035973D01*
X104075531Y-112268000D01*
X105283000Y-112268000D01*
X105283000Y-111061183D01*
X105050974Y-110940042D01*
X104635053Y-111112312D01*
X104203179Y-111506510D01*
X103955032Y-112035973D01*
X101137000Y-112035973D01*
X101137000Y-92045641D01*
X103911400Y-92045641D01*
X103911400Y-92104359D01*
X104025474Y-92677848D01*
X104350330Y-93164029D01*
X104621172Y-93345000D01*
X104350330Y-93525971D01*
X104025474Y-94012152D01*
X103911400Y-94585641D01*
X103911400Y-94644359D01*
X104025474Y-95217848D01*
X104350330Y-95704029D01*
X104621172Y-95885000D01*
X104350330Y-96065971D01*
X104025474Y-96552152D01*
X103911400Y-97125641D01*
X103911400Y-97184359D01*
X104025474Y-97757848D01*
X104350330Y-98244029D01*
X104621172Y-98425000D01*
X104350330Y-98605971D01*
X104025474Y-99092152D01*
X103911400Y-99665641D01*
X103911400Y-99724359D01*
X104025474Y-100297848D01*
X104350330Y-100784029D01*
X104836511Y-101108885D01*
X105410000Y-101222959D01*
X105787973Y-101147775D01*
X108047599Y-103407401D01*
X108294161Y-103572148D01*
X108585000Y-103630000D01*
X120072005Y-103630000D01*
X120242189Y-103884698D01*
X120624275Y-104140000D01*
X120242189Y-104395302D01*
X119931120Y-104860849D01*
X119821887Y-105410000D01*
X119931120Y-105959151D01*
X120242189Y-106424698D01*
X120707736Y-106735767D01*
X121256140Y-106844851D01*
X122790000Y-108378711D01*
X122790000Y-108780331D01*
X122773559Y-108790910D01*
X122628569Y-109003110D01*
X122577560Y-109255000D01*
X122577560Y-110455000D01*
X122621838Y-110690317D01*
X122760910Y-110906441D01*
X122973110Y-111051431D01*
X123225000Y-111102440D01*
X124425000Y-111102440D01*
X124660317Y-111058162D01*
X124876441Y-110919090D01*
X125014020Y-110717735D01*
X125641870Y-110717735D01*
X125691383Y-110943164D01*
X126156036Y-111102807D01*
X126646413Y-111072482D01*
X126958617Y-110943164D01*
X127008130Y-110717735D01*
X126325000Y-110034605D01*
X125641870Y-110717735D01*
X125014020Y-110717735D01*
X125021431Y-110706890D01*
X125072440Y-110455000D01*
X125072440Y-109686036D01*
X125077193Y-109686036D01*
X125107518Y-110176413D01*
X125236836Y-110488617D01*
X125462265Y-110538130D01*
X126145395Y-109855000D01*
X126504605Y-109855000D01*
X127187735Y-110538130D01*
X127413164Y-110488617D01*
X127572807Y-110023964D01*
X127542482Y-109533587D01*
X127413164Y-109221383D01*
X127187735Y-109171870D01*
X126504605Y-109855000D01*
X126145395Y-109855000D01*
X125462265Y-109171870D01*
X125236836Y-109221383D01*
X125077193Y-109686036D01*
X125072440Y-109686036D01*
X125072440Y-109255000D01*
X125028162Y-109019683D01*
X125010519Y-108992265D01*
X125641870Y-108992265D01*
X126325000Y-109675395D01*
X127008130Y-108992265D01*
X126958617Y-108766836D01*
X126493964Y-108607193D01*
X126003587Y-108637518D01*
X125691383Y-108766836D01*
X125641870Y-108992265D01*
X125010519Y-108992265D01*
X124889090Y-108803559D01*
X124860000Y-108783683D01*
X124860000Y-107950000D01*
X124818320Y-107740460D01*
X124781215Y-107553922D01*
X124682971Y-107406890D01*
X124556856Y-107218144D01*
X124556853Y-107218142D01*
X123097750Y-105759039D01*
X127513096Y-105759039D01*
X127673959Y-106147423D01*
X128049866Y-106562389D01*
X128555959Y-106801914D01*
X128778000Y-106680629D01*
X128778000Y-105537000D01*
X129032000Y-105537000D01*
X129032000Y-106680629D01*
X129254041Y-106801914D01*
X129760134Y-106562389D01*
X130136041Y-106147423D01*
X130296904Y-105759039D01*
X130174915Y-105537000D01*
X129032000Y-105537000D01*
X128778000Y-105537000D01*
X127635085Y-105537000D01*
X127513096Y-105759039D01*
X123097750Y-105759039D01*
X122747964Y-105409253D01*
X122638880Y-104860849D01*
X122327811Y-104395302D01*
X121945725Y-104140000D01*
X122327811Y-103884698D01*
X122638880Y-103419151D01*
X122748113Y-102870000D01*
X122638880Y-102320849D01*
X122327811Y-101855302D01*
X121945725Y-101600000D01*
X122327811Y-101344698D01*
X122638880Y-100879151D01*
X122748113Y-100330000D01*
X122638880Y-99780849D01*
X122327811Y-99315302D01*
X121945725Y-99060000D01*
X122327811Y-98804698D01*
X122638880Y-98339151D01*
X122748113Y-97790000D01*
X122638880Y-97240849D01*
X122327811Y-96775302D01*
X121945725Y-96520000D01*
X122327811Y-96264698D01*
X122638880Y-95799151D01*
X122748113Y-95250000D01*
X122638880Y-94700849D01*
X122327811Y-94235302D01*
X121945725Y-93980000D01*
X122327811Y-93724698D01*
X122638880Y-93259151D01*
X122748113Y-92710000D01*
X122638880Y-92160849D01*
X122327811Y-91695302D01*
X121945725Y-91440000D01*
X122327811Y-91184698D01*
X122638880Y-90719151D01*
X122748113Y-90170000D01*
X122638880Y-89620849D01*
X122327811Y-89155302D01*
X121945725Y-88900000D01*
X122327811Y-88644698D01*
X122638880Y-88179151D01*
X122748113Y-87630000D01*
X122638880Y-87080849D01*
X122327811Y-86615302D01*
X121945725Y-86360000D01*
X122327811Y-86104698D01*
X122638880Y-85639151D01*
X122748113Y-85090000D01*
X122638880Y-84540849D01*
X122327811Y-84075302D01*
X121862264Y-83764233D01*
X121313113Y-83655000D01*
X121256887Y-83655000D01*
X120707736Y-83764233D01*
X120242189Y-84075302D01*
X120072005Y-84330000D01*
X112490000Y-84330000D01*
X112199161Y-84387852D01*
X111952599Y-84552599D01*
X108539219Y-87965979D01*
X108522759Y-87969253D01*
X108347787Y-88086166D01*
X107950000Y-88007041D01*
X107376511Y-88121115D01*
X106890330Y-88445971D01*
X106674336Y-88769228D01*
X106616821Y-88646510D01*
X106184947Y-88252312D01*
X105769026Y-88080042D01*
X105537000Y-88201183D01*
X105537000Y-89408000D01*
X105557000Y-89408000D01*
X105557000Y-89662000D01*
X105537000Y-89662000D01*
X105537000Y-89682000D01*
X105283000Y-89682000D01*
X105283000Y-89662000D01*
X104075531Y-89662000D01*
X103955032Y-89894027D01*
X104203179Y-90423490D01*
X104621161Y-90805008D01*
X104350330Y-90985971D01*
X104025474Y-91472152D01*
X103911400Y-92045641D01*
X101137000Y-92045641D01*
X101137000Y-89175973D01*
X103955032Y-89175973D01*
X104075531Y-89408000D01*
X105283000Y-89408000D01*
X105283000Y-88201183D01*
X105050974Y-88080042D01*
X104635053Y-88252312D01*
X104203179Y-88646510D01*
X103955032Y-89175973D01*
X101137000Y-89175973D01*
X101137000Y-79814579D01*
X122724786Y-79814579D01*
X122912408Y-80268657D01*
X123259515Y-80616371D01*
X123713266Y-80804785D01*
X124204579Y-80805214D01*
X124658657Y-80617592D01*
X125006371Y-80270485D01*
X125194785Y-79816734D01*
X125195214Y-79325421D01*
X125007592Y-78871343D01*
X124660485Y-78523629D01*
X124206734Y-78335215D01*
X123715421Y-78334786D01*
X123261343Y-78522408D01*
X122913629Y-78869515D01*
X122725215Y-79323266D01*
X122724786Y-79814579D01*
X101137000Y-79814579D01*
X101137000Y-71255750D01*
X103860600Y-71255750D01*
X103860600Y-72846370D01*
X103957273Y-73079759D01*
X104135902Y-73258387D01*
X104369291Y-73355060D01*
X105959910Y-73355060D01*
X106118660Y-73196310D01*
X106118660Y-71097000D01*
X106372660Y-71097000D01*
X106372660Y-73196310D01*
X106531410Y-73355060D01*
X107198977Y-73355060D01*
X107043899Y-73454850D01*
X106898909Y-73667050D01*
X106847900Y-73918940D01*
X106847900Y-77419060D01*
X106892178Y-77654377D01*
X107031250Y-77870501D01*
X107243450Y-78015491D01*
X107495340Y-78066500D01*
X110995460Y-78066500D01*
X111230777Y-78022222D01*
X111446901Y-77883150D01*
X111591891Y-77670950D01*
X111642900Y-77419060D01*
X111642900Y-73918940D01*
X111598622Y-73683623D01*
X111459550Y-73467499D01*
X111313197Y-73367500D01*
X113073895Y-73367500D01*
X114168961Y-74462566D01*
X114537181Y-74708603D01*
X114971527Y-74795000D01*
X115843758Y-74795000D01*
X115811560Y-74954000D01*
X115811560Y-76986000D01*
X115855838Y-77221317D01*
X115994910Y-77437441D01*
X116207110Y-77582431D01*
X116459000Y-77633440D01*
X118491000Y-77633440D01*
X118726317Y-77589162D01*
X118942441Y-77450090D01*
X119087431Y-77237890D01*
X119138440Y-76986000D01*
X119138440Y-76295750D01*
X123775000Y-76295750D01*
X123775000Y-77086310D01*
X123871673Y-77319699D01*
X124050302Y-77498327D01*
X124283691Y-77595000D01*
X125124250Y-77595000D01*
X125283000Y-77436250D01*
X125283000Y-76137000D01*
X125537000Y-76137000D01*
X125537000Y-77436250D01*
X125695750Y-77595000D01*
X126536309Y-77595000D01*
X126769698Y-77498327D01*
X126948327Y-77319699D01*
X127045000Y-77086310D01*
X127045000Y-76295750D01*
X126886250Y-76137000D01*
X125537000Y-76137000D01*
X125283000Y-76137000D01*
X123933750Y-76137000D01*
X123775000Y-76295750D01*
X119138440Y-76295750D01*
X119138440Y-74954000D01*
X119134619Y-74933690D01*
X123775000Y-74933690D01*
X123775000Y-75724250D01*
X123933750Y-75883000D01*
X125283000Y-75883000D01*
X125283000Y-75863000D01*
X125537000Y-75863000D01*
X125537000Y-75883000D01*
X126886250Y-75883000D01*
X127045000Y-75724250D01*
X127045000Y-74933690D01*
X126948327Y-74700301D01*
X126769698Y-74521673D01*
X126649749Y-74471988D01*
X126752914Y-74369003D01*
X126994724Y-73786659D01*
X126995275Y-73156107D01*
X126937798Y-73017004D01*
X127217401Y-72737401D01*
X127382148Y-72490840D01*
X127440000Y-72200000D01*
X127440000Y-69844496D01*
X127604655Y-69776462D01*
X128064846Y-69317073D01*
X128314206Y-68716547D01*
X128314774Y-68066306D01*
X128066462Y-67465345D01*
X127607073Y-67005154D01*
X127006547Y-66755794D01*
X126356306Y-66755226D01*
X125755345Y-67003538D01*
X125295154Y-67462927D01*
X125045794Y-68063453D01*
X125045226Y-68713694D01*
X125293538Y-69314655D01*
X125752927Y-69774846D01*
X125920000Y-69844221D01*
X125920000Y-71885198D01*
X125863218Y-71941980D01*
X125726659Y-71885276D01*
X125096107Y-71884725D01*
X124513343Y-72125519D01*
X124067086Y-72570997D01*
X123825276Y-73153341D01*
X123824725Y-73783893D01*
X124065519Y-74366657D01*
X124170545Y-74471867D01*
X124050302Y-74521673D01*
X123871673Y-74700301D01*
X123775000Y-74933690D01*
X119134619Y-74933690D01*
X119094162Y-74718683D01*
X118955090Y-74502559D01*
X118806163Y-74400802D01*
X119032670Y-74061810D01*
X119158345Y-73430000D01*
X119032670Y-72798190D01*
X118674778Y-72262567D01*
X118610000Y-72219284D01*
X118610000Y-69345000D01*
X118523603Y-68910654D01*
X118277566Y-68542434D01*
X118154466Y-68419334D01*
X118154774Y-68066306D01*
X117906462Y-67465345D01*
X117447073Y-67005154D01*
X116846547Y-66755794D01*
X116490615Y-66755483D01*
X116070000Y-66334868D01*
X116070000Y-62659975D01*
X116181431Y-62496890D01*
X116182012Y-62494016D01*
X117715590Y-62494016D01*
X117771271Y-62724611D01*
X118254078Y-62892622D01*
X118764428Y-62863083D01*
X119098729Y-62724611D01*
X119154410Y-62494016D01*
X118435000Y-61774605D01*
X117715590Y-62494016D01*
X116182012Y-62494016D01*
X116232440Y-62245000D01*
X116232440Y-61414078D01*
X117137378Y-61414078D01*
X117166917Y-61924428D01*
X117305389Y-62258729D01*
X117535984Y-62314410D01*
X118255395Y-61595000D01*
X118614605Y-61595000D01*
X119334016Y-62314410D01*
X119564611Y-62258729D01*
X119732622Y-61775922D01*
X119703083Y-61265572D01*
X119564611Y-60931271D01*
X119334016Y-60875590D01*
X118614605Y-61595000D01*
X118255395Y-61595000D01*
X117535984Y-60875590D01*
X117305389Y-60931271D01*
X117137378Y-61414078D01*
X116232440Y-61414078D01*
X116232440Y-60945000D01*
X116188162Y-60709683D01*
X116179347Y-60695984D01*
X117715590Y-60695984D01*
X118435000Y-61415395D01*
X119154410Y-60695984D01*
X119098729Y-60465389D01*
X118615922Y-60297378D01*
X118105572Y-60326917D01*
X117771271Y-60465389D01*
X117715590Y-60695984D01*
X116179347Y-60695984D01*
X116049090Y-60493559D01*
X115836890Y-60348569D01*
X115585000Y-60297560D01*
X114285000Y-60297560D01*
X114049683Y-60341838D01*
X113833559Y-60480910D01*
X113688569Y-60693110D01*
X113637560Y-60945000D01*
X113637560Y-62245000D01*
X113681838Y-62480317D01*
X113800000Y-62663946D01*
X113800000Y-66805000D01*
X113886397Y-67239346D01*
X113996730Y-67404471D01*
X114132434Y-67607566D01*
X114885534Y-68360666D01*
X114885226Y-68713694D01*
X115133538Y-69314655D01*
X115592927Y-69774846D01*
X116193453Y-70024206D01*
X116340000Y-70024334D01*
X116340000Y-72219284D01*
X116275222Y-72262567D01*
X116099870Y-72525000D01*
X115441659Y-72525000D01*
X114642640Y-71725981D01*
X114642640Y-69219940D01*
X114598362Y-68984623D01*
X114459290Y-68768499D01*
X114247090Y-68623509D01*
X113995200Y-68572500D01*
X110495080Y-68572500D01*
X110259763Y-68616778D01*
X110043639Y-68755850D01*
X109898649Y-68968050D01*
X109847640Y-69219940D01*
X109847640Y-72720060D01*
X109891918Y-72955377D01*
X110030990Y-73171501D01*
X110177343Y-73271500D01*
X108323760Y-73271500D01*
X108355418Y-73258387D01*
X108534047Y-73079759D01*
X108630720Y-72846370D01*
X108630720Y-71255750D01*
X108471970Y-71097000D01*
X106372660Y-71097000D01*
X106118660Y-71097000D01*
X104019350Y-71097000D01*
X103860600Y-71255750D01*
X101137000Y-71255750D01*
X101137000Y-69093630D01*
X103860600Y-69093630D01*
X103860600Y-70684250D01*
X104019350Y-70843000D01*
X106118660Y-70843000D01*
X106118660Y-68743690D01*
X106372660Y-68743690D01*
X106372660Y-70843000D01*
X108471970Y-70843000D01*
X108630720Y-70684250D01*
X108630720Y-69093630D01*
X108534047Y-68860241D01*
X108355418Y-68681613D01*
X108122029Y-68584940D01*
X106531410Y-68584940D01*
X106372660Y-68743690D01*
X106118660Y-68743690D01*
X105959910Y-68584940D01*
X104369291Y-68584940D01*
X104135902Y-68681613D01*
X103957273Y-68860241D01*
X103860600Y-69093630D01*
X101137000Y-69093630D01*
X101137000Y-60097000D01*
X108010000Y-60097000D01*
X108059410Y-60086994D01*
X108099803Y-60059803D01*
X110099803Y-58059803D01*
X110127666Y-58017789D01*
X110137000Y-57970000D01*
X110137000Y-57301399D01*
X131580000Y-57301399D01*
X131580000Y-58268601D01*
X131666397Y-58702947D01*
X131912434Y-59071167D01*
X132280654Y-59317204D01*
X132715000Y-59403601D01*
X133149346Y-59317204D01*
X133363010Y-59174438D01*
X133683126Y-59331619D01*
X133858000Y-59205454D01*
X133858000Y-57912000D01*
X133850000Y-57912000D01*
X133850000Y-57658000D01*
X133858000Y-57658000D01*
X133858000Y-56832500D01*
X134107560Y-56832500D01*
X134107560Y-58737500D01*
X134112000Y-58761097D01*
X134112000Y-59205454D01*
X134286874Y-59331619D01*
X134410725Y-59270807D01*
X134503110Y-59333931D01*
X134755000Y-59384940D01*
X135755000Y-59384940D01*
X135990317Y-59340662D01*
X136059314Y-59296263D01*
X136090654Y-59317204D01*
X136525000Y-59403601D01*
X136959346Y-59317204D01*
X137327566Y-59071167D01*
X137573603Y-58702947D01*
X137660000Y-58268601D01*
X137660000Y-57301399D01*
X137573603Y-56867053D01*
X137327566Y-56498833D01*
X136959346Y-56252796D01*
X136525000Y-56166399D01*
X136090654Y-56252796D01*
X136060681Y-56272823D01*
X136006890Y-56236069D01*
X135755000Y-56185060D01*
X134755000Y-56185060D01*
X134519683Y-56229338D01*
X134410952Y-56299305D01*
X134286874Y-56238381D01*
X134112000Y-56364546D01*
X134112000Y-56810575D01*
X134107560Y-56832500D01*
X133858000Y-56832500D01*
X133858000Y-56364546D01*
X133683126Y-56238381D01*
X133363010Y-56395562D01*
X133149346Y-56252796D01*
X132715000Y-56166399D01*
X132280654Y-56252796D01*
X131912434Y-56498833D01*
X131666397Y-56867053D01*
X131580000Y-57301399D01*
X110137000Y-57301399D01*
X110137000Y-51097000D01*
X189883000Y-51097000D01*
X189883000Y-56970000D01*
G36*
X141840418Y-125583714D02*
X141605000Y-125536887D01*
X141055849Y-125646120D01*
X140590302Y-125957189D01*
X140335000Y-126339275D01*
X140200000Y-126137233D01*
X140200000Y-124460000D01*
X140113603Y-124025654D01*
X140067022Y-123955940D01*
X139867566Y-123657433D01*
X138569143Y-122359011D01*
X145065121Y-122359011D01*
X141840418Y-125583714D01*
X141840418Y-125583714D01*
G37*
X141840418Y-125583714D02*
X141605000Y-125536887D01*
X141055849Y-125646120D01*
X140590302Y-125957189D01*
X140335000Y-126339275D01*
X140200000Y-126137233D01*
X140200000Y-124460000D01*
X140113603Y-124025654D01*
X140067022Y-123955940D01*
X139867566Y-123657433D01*
X138569143Y-122359011D01*
X145065121Y-122359011D01*
X141840418Y-125583714D01*
G36*
X195034536Y-112530318D02*
X194819479Y-112745000D01*
X192480005Y-112745000D01*
X192480000Y-112744999D01*
X192083923Y-112823785D01*
X191748144Y-113048144D01*
X191748142Y-113048147D01*
X186635060Y-118161228D01*
X186635408Y-117763444D01*
X186409862Y-117217583D01*
X186025000Y-116832049D01*
X186025000Y-116008602D01*
X186135651Y-115843002D01*
X186144229Y-115871047D01*
X186464604Y-116259588D01*
X186909280Y-116495951D01*
X186955609Y-116503099D01*
X187154080Y-116379067D01*
X187154080Y-115187000D01*
X187408080Y-115187000D01*
X187408080Y-116379067D01*
X187606551Y-116503099D01*
X187652880Y-116495951D01*
X188097556Y-116259588D01*
X188417931Y-115871047D01*
X188565231Y-115389480D01*
X188410926Y-115187000D01*
X187408080Y-115187000D01*
X187154080Y-115187000D01*
X187134080Y-115187000D01*
X187134080Y-114933000D01*
X187154080Y-114933000D01*
X187154080Y-114913000D01*
X187408080Y-114913000D01*
X187408080Y-114933000D01*
X188410926Y-114933000D01*
X188565231Y-114730520D01*
X188417931Y-114248953D01*
X188097556Y-113860412D01*
X187652880Y-113624049D01*
X187632766Y-113620946D01*
X188938711Y-112315000D01*
X194819593Y-112315000D01*
X195034536Y-112530318D01*
X195034536Y-112530318D01*
G37*
X195034536Y-112530318D02*
X194819479Y-112745000D01*
X192480005Y-112745000D01*
X192480000Y-112744999D01*
X192083923Y-112823785D01*
X191748144Y-113048144D01*
X191748142Y-113048147D01*
X186635060Y-118161228D01*
X186635408Y-117763444D01*
X186409862Y-117217583D01*
X186025000Y-116832049D01*
X186025000Y-116008602D01*
X186135651Y-115843002D01*
X186144229Y-115871047D01*
X186464604Y-116259588D01*
X186909280Y-116495951D01*
X186955609Y-116503099D01*
X187154080Y-116379067D01*
X187154080Y-115187000D01*
X187408080Y-115187000D01*
X187408080Y-116379067D01*
X187606551Y-116503099D01*
X187652880Y-116495951D01*
X188097556Y-116259588D01*
X188417931Y-115871047D01*
X188565231Y-115389480D01*
X188410926Y-115187000D01*
X187408080Y-115187000D01*
X187154080Y-115187000D01*
X187134080Y-115187000D01*
X187134080Y-114933000D01*
X187154080Y-114933000D01*
X187154080Y-114913000D01*
X187408080Y-114913000D01*
X187408080Y-114933000D01*
X188410926Y-114933000D01*
X188565231Y-114730520D01*
X188417931Y-114248953D01*
X188097556Y-113860412D01*
X187652880Y-113624049D01*
X187632766Y-113620946D01*
X188938711Y-112315000D01*
X194819593Y-112315000D01*
X195034536Y-112530318D01*
G36*
X191538142Y-109511853D02*
X191538144Y-109511856D01*
X191721289Y-109634229D01*
X191873922Y-109736215D01*
X192270000Y-109815000D01*
X194819593Y-109815000D01*
X195034536Y-110030318D01*
X194819479Y-110245000D01*
X188510005Y-110245000D01*
X188510000Y-110244999D01*
X188113923Y-110323785D01*
X187778144Y-110548144D01*
X187778142Y-110548147D01*
X184728332Y-113597956D01*
X184498252Y-113643722D01*
X184081368Y-113922275D01*
X183844460Y-114276833D01*
X183607552Y-113922275D01*
X183190668Y-113643722D01*
X182698920Y-113545907D01*
X182207172Y-113643722D01*
X181790288Y-113922275D01*
X181511735Y-114339159D01*
X181413920Y-114830907D01*
X181413920Y-115289093D01*
X181511735Y-115780841D01*
X181790288Y-116197725D01*
X181863920Y-116246924D01*
X181863920Y-116955212D01*
X181075000Y-117744132D01*
X181075000Y-110864788D01*
X182420981Y-109518807D01*
X182698920Y-109574093D01*
X183190668Y-109476278D01*
X183607552Y-109197725D01*
X183844460Y-108843167D01*
X184081368Y-109197725D01*
X184115000Y-109220197D01*
X184115000Y-109993420D01*
X183892646Y-110215386D01*
X183666148Y-110760853D01*
X183665632Y-111351476D01*
X183891178Y-111897337D01*
X184308446Y-112315334D01*
X184853913Y-112541832D01*
X185444536Y-112542348D01*
X185990397Y-112316802D01*
X186408394Y-111899534D01*
X186634892Y-111354067D01*
X186635408Y-110763444D01*
X186409862Y-110217583D01*
X186185000Y-109992328D01*
X186185000Y-108920493D01*
X186464604Y-109259588D01*
X186909280Y-109495951D01*
X186955609Y-109503099D01*
X187154080Y-109379067D01*
X187154080Y-108187000D01*
X187408080Y-108187000D01*
X187408080Y-109379067D01*
X187606551Y-109503099D01*
X187652880Y-109495951D01*
X188097556Y-109259588D01*
X188417931Y-108871047D01*
X188565231Y-108389480D01*
X188410926Y-108187000D01*
X187408080Y-108187000D01*
X187154080Y-108187000D01*
X187134080Y-108187000D01*
X187134080Y-107933000D01*
X187154080Y-107933000D01*
X187154080Y-107913000D01*
X187408080Y-107913000D01*
X187408080Y-107933000D01*
X188410926Y-107933000D01*
X188565231Y-107730520D01*
X188425898Y-107275000D01*
X189301288Y-107275000D01*
X191538142Y-109511853D01*
X191538142Y-109511853D01*
G37*
X191538142Y-109511853D02*
X191538144Y-109511856D01*
X191721289Y-109634229D01*
X191873922Y-109736215D01*
X192270000Y-109815000D01*
X194819593Y-109815000D01*
X195034536Y-110030318D01*
X194819479Y-110245000D01*
X188510005Y-110245000D01*
X188510000Y-110244999D01*
X188113923Y-110323785D01*
X187778144Y-110548144D01*
X187778142Y-110548147D01*
X184728332Y-113597956D01*
X184498252Y-113643722D01*
X184081368Y-113922275D01*
X183844460Y-114276833D01*
X183607552Y-113922275D01*
X183190668Y-113643722D01*
X182698920Y-113545907D01*
X182207172Y-113643722D01*
X181790288Y-113922275D01*
X181511735Y-114339159D01*
X181413920Y-114830907D01*
X181413920Y-115289093D01*
X181511735Y-115780841D01*
X181790288Y-116197725D01*
X181863920Y-116246924D01*
X181863920Y-116955212D01*
X181075000Y-117744132D01*
X181075000Y-110864788D01*
X182420981Y-109518807D01*
X182698920Y-109574093D01*
X183190668Y-109476278D01*
X183607552Y-109197725D01*
X183844460Y-108843167D01*
X184081368Y-109197725D01*
X184115000Y-109220197D01*
X184115000Y-109993420D01*
X183892646Y-110215386D01*
X183666148Y-110760853D01*
X183665632Y-111351476D01*
X183891178Y-111897337D01*
X184308446Y-112315334D01*
X184853913Y-112541832D01*
X185444536Y-112542348D01*
X185990397Y-112316802D01*
X186408394Y-111899534D01*
X186634892Y-111354067D01*
X186635408Y-110763444D01*
X186409862Y-110217583D01*
X186185000Y-109992328D01*
X186185000Y-108920493D01*
X186464604Y-109259588D01*
X186909280Y-109495951D01*
X186955609Y-109503099D01*
X187154080Y-109379067D01*
X187154080Y-108187000D01*
X187408080Y-108187000D01*
X187408080Y-109379067D01*
X187606551Y-109503099D01*
X187652880Y-109495951D01*
X188097556Y-109259588D01*
X188417931Y-108871047D01*
X188565231Y-108389480D01*
X188410926Y-108187000D01*
X187408080Y-108187000D01*
X187154080Y-108187000D01*
X187134080Y-108187000D01*
X187134080Y-107933000D01*
X187154080Y-107933000D01*
X187154080Y-107913000D01*
X187408080Y-107913000D01*
X187408080Y-107933000D01*
X188410926Y-107933000D01*
X188565231Y-107730520D01*
X188425898Y-107275000D01*
X189301288Y-107275000D01*
X191538142Y-109511853D01*
M02*
