M48
;DRILL file {KiCad 4.0.5} date 03/29/17 16:27:16
;FORMAT={-:-/ absolute / metric / decimal}
FMAT,2
METRIC,TZ
T1C0.500
T2C0.600
T3C0.700
T4C0.750
T5C0.800
T6C0.900
T7C1.000
T8C1.001
T9C1.016
%
G90
G05
M71
T1
X103.01Y-72.97
X103.01Y-84.97
X103.01Y-113.97
X103.01Y-125.97
X104.25Y-61.408
X109.01Y-125.97
X111.01Y-127.97
X111.01Y-134.97
X114.01Y-110.97
X116.01Y-117.97
X120.01Y-66.97
X120.01Y-81.97
X120.01Y-134.97
X123.251Y-119.8
X124.01Y-117.97
X125.893Y-86.932
X126.629Y-93.993
X128.915Y-70.625
X129.01Y-110.97
X129.347Y-81.827
X129.349Y-65.254
X129.741Y-78.169
X130.01Y-51.97
X130.01Y-134.97
X133.01Y-117.97
X133.931Y-105.41
X133.932Y-84.875
X133.934Y-87.799
X135.608Y-98.362
X136.523Y-77.978
X136.98Y-108.459
X137.01Y-110.97
X137.589Y-83.122
X137.665Y-102.998
X139.97Y-123.44
X140.01Y-51.97
X140.01Y-134.97
X140.865Y-93.439
X143.203Y-105.868
X143.8Y-80.798
X143.8Y-83.008
X144.87Y-67.945
X145.415Y-76.274
X146.657Y-116.175
X146.962Y-80.76
X146.962Y-82.589
X147.84Y-68.24
X150.01Y-134.97
X150.429Y-59.754
X151.01Y-51.97
X151.765Y-75.123
X152.829Y-76.274
X152.92Y-60.721
X155.46Y-61.889
X156.512Y-114.669
X160.01Y-51.97
X160.01Y-134.97
X161.287Y-74.575
X162.558Y-98.565
X162.558Y-105.766
X162.773Y-82.589
X164.38Y-58.865
X165.301Y-121.095
X167.217Y-94.482
X167.942Y-126.2
X169.098Y-87.669
X169.098Y-92.507
X170.01Y-51.97
X170.01Y-134.97
X171.49Y-127.193
X171.968Y-102.07
X172.625Y-91.304
X172.768Y-109.132
X173.225Y-70.536
X173.225Y-78.829
X174.493Y-90.464
X176.667Y-102.197
X176.87Y-70.435
X176.87Y-78.829
X177.442Y-114.656
X177.531Y-109.055
X179.01Y-84.97
X180.01Y-51.97
X180.01Y-124.97
X180.01Y-129.97
X180.01Y-134.97
X189.01Y-51.97
X189.01Y-58.97
X189.01Y-129.97
X189.01Y-134.97
X194.01Y-125.97
X198.01Y-60.97
X198.01Y-66.97
X198.01Y-76.97
X198.01Y-86.97
X198.01Y-96.97
X198.01Y-106.97
X198.01Y-116.97
X198.01Y-125.97
T2
X111.01Y-51.97
X120.01Y-51.97
T3
X123.825Y-109.855
X126.325Y-109.855
X133.985Y-121.92
X133.985Y-124.42
X178.645Y-90.26
X178.645Y-92.76
X181.01Y-65.
X186.01Y-65.
X192.01Y-64.47
X192.01Y-66.97
T4
X132.715Y-57.785
X133.985Y-57.785
X135.255Y-57.785
X136.525Y-57.785
T5
X114.935Y-61.595
X118.435Y-61.595
X121.285Y-85.09
X121.285Y-87.63
X121.285Y-90.17
X121.285Y-92.71
X121.285Y-95.25
X121.285Y-97.79
X121.285Y-100.33
X121.285Y-102.87
X121.285Y-105.41
X123.96Y-79.57
X128.905Y-85.09
X128.905Y-87.63
X128.905Y-90.17
X128.905Y-92.71
X128.905Y-95.25
X128.905Y-97.79
X128.905Y-100.33
X128.905Y-102.87
X128.905Y-105.41
X139.065Y-119.38
X139.065Y-127.
X139.634Y-100.965
X139.634Y-108.585
X141.605Y-119.38
X141.605Y-127.
X142.174Y-100.965
X142.174Y-108.585
X144.145Y-119.38
X144.145Y-127.
X144.714Y-100.965
X144.714Y-108.585
X145.3Y-56.38
X145.3Y-71.62
X146.685Y-119.38
X146.685Y-127.
X147.254Y-100.965
X147.254Y-108.585
X147.84Y-56.38
X147.84Y-71.62
X149.225Y-119.38
X149.225Y-127.
X149.794Y-100.965
X149.794Y-108.585
X150.38Y-56.38
X150.38Y-71.62
X151.765Y-119.38
X151.765Y-127.
X152.334Y-100.965
X152.334Y-108.585
X152.92Y-56.38
X152.92Y-71.62
X154.305Y-119.38
X154.305Y-127.
X154.874Y-100.965
X154.874Y-108.585
X155.46Y-56.38
X155.46Y-71.62
X156.845Y-119.38
X156.845Y-127.
X157.414Y-100.965
X157.414Y-108.585
X159.3Y-56.38
X159.3Y-71.62
X159.385Y-119.38
X159.385Y-127.
X159.954Y-100.965
X159.954Y-108.585
X161.84Y-56.38
X161.84Y-71.62
X161.925Y-119.38
X161.925Y-127.
X164.38Y-56.38
X164.38Y-71.62
X166.92Y-56.38
X166.92Y-71.62
X169.46Y-56.38
X169.46Y-71.62
X173.67Y-95.06
X173.67Y-97.56
X182.699Y-101.06
X182.699Y-108.06
X182.699Y-115.06
X182.699Y-122.06
X184.99Y-101.06
X184.99Y-108.06
X184.99Y-115.06
X184.99Y-122.06
X187.281Y-101.06
X187.281Y-108.06
X187.281Y-115.06
X187.281Y-122.06
T6
X174.991Y-104.057
X174.991Y-111.057
X174.991Y-118.057
X174.991Y-125.057
X185.151Y-104.057
X185.151Y-111.057
X185.151Y-118.057
X185.151Y-125.057
X195.92Y-106.28
X195.92Y-108.78
X195.92Y-111.28
X195.92Y-113.78
X195.92Y-116.28
X195.92Y-118.78
T7
X195.92Y-90.19
X195.92Y-92.69
T8
X116.52Y-68.39
X125.41Y-73.47
X125.41Y-76.01
X126.68Y-68.39
X131.445Y-64.135
X131.445Y-74.295
X134.62Y-64.135
X134.62Y-74.295
X137.795Y-64.135
X137.795Y-74.295
X139.065Y-85.09
X139.065Y-95.25
X142.24Y-85.09
X142.24Y-95.25
X145.415Y-85.09
X145.415Y-95.25
X148.59Y-85.09
X148.59Y-95.25
X151.765Y-85.09
X151.765Y-95.25
X154.94Y-85.09
X154.94Y-95.25
X158.115Y-85.09
X158.115Y-95.25
X161.29Y-85.09
X161.29Y-95.25
X177.01Y-82.97
X196.01Y-64.97
X196.01Y-75.13
X197.01Y-82.97
T9
X105.41Y-89.535
X105.41Y-92.075
X105.41Y-94.615
X105.41Y-97.155
X105.41Y-99.695
X105.41Y-112.395
X105.41Y-114.935
X105.41Y-117.475
X105.41Y-120.015
X105.41Y-122.555
X107.95Y-89.535
X107.95Y-92.075
X107.95Y-94.615
X107.95Y-97.155
X107.95Y-99.695
X107.95Y-112.395
X107.95Y-114.935
X107.95Y-117.475
X107.95Y-120.015
X107.95Y-122.555
X117.475Y-73.43
X117.475Y-75.97
X186.154Y-77.801
X188.694Y-77.801
T8
X106.246Y-69.971G85X106.246Y-71.969
G05
X108.246Y-75.669G85X110.245Y-75.669
G05
X112.245Y-69.971G85X112.245Y-71.969
G05
T0
M30
